<?xml version="1.0" encoding="UTF-8" standalone="no"?>
<svg
   width="24"
   height="24"
   viewBox="0 0 24 24"
   id="Flat"
   version="1.1"
   sodipodi:docname="2.svg"
   inkscape:version="1.2.1 (9c6d41e410, 2022-07-14)"
   xmlns:inkscape="http://www.inkscape.org/namespaces/inkscape"
   xmlns:sodipodi="http://sodipodi.sourceforge.net/DTD/sodipodi-0.dtd"
   xmlns="http://www.w3.org/2000/svg"
   xmlns:svg="http://www.w3.org/2000/svg">
  <defs
     id="defs137" />
  <sodipodi:namedview
     id="namedview135"
     pagecolor="#ffffff"
     bordercolor="#000000"
     borderopacity="0.25"
     inkscape:showpageshadow="2"
     inkscape:pageopacity="0.0"
     inkscape:pagecheckerboard="true"
     inkscape:deskcolor="#d1d1d1"
     showgrid="false"
     inkscape:zoom="33.916667"
     inkscape:cx="12.014742"
     inkscape:cy="12.029484"
     inkscape:window-width="1920"
     inkscape:window-height="1017"
     inkscape:window-x="-8"
     inkscape:window-y="-8"
     inkscape:window-maximized="1"
     inkscape:current-layer="Flat" />
  <path
     d="M 12,0 A 12,12 0 1 0 24,12 12.013524,12.013524 0 0 0 12,0 Z m 0,23.04 A 11.04,11.04 0 1 1 23.04,12 11.052574,11.052574 0 0 1 12,23.04 Z M 14.772305,11.018086 10.08012,17.279297 H 14.88 a 0.48,0.48 0 0 1 0,0.96 H 9.146484 c -0.0088,4.8e-4 -0.0177,7.2e-4 -0.0266,7.2e-4 A 0.4802184,0.4802184 0 0 1 8.743947,17.461423 l 5.252695,-7.009101 A 2.4005028,2.4005028 0 1 0 9.788323,8.186033 0.47997149,0.47997148 0 0 1 8.90426,7.81197 3.36048,3.36048 0 1 1 14.7859,10.999001 c -0.0043,0.0064 -0.0089,0.01289 -0.01359,0.0191 z"
     id="path132"
     style="fill:#ff7d00;fill-opacity:1;stroke-width:0.2;stroke:#ff7d00;stroke-opacity:1;stroke-dasharray:none" />
</svg>
