<?xml version="1.0" encoding="UTF-8" standalone="no"?>
<svg
   width="24.222977"
   height="24.222977"
   viewBox="0 0 24.222977 24.222977"
   id="Flat"
   version="1.1"
   sodipodi:docname="5.svg"
   inkscape:version="1.2.1 (9c6d41e410, 2022-07-14)"
   xmlns:inkscape="http://www.inkscape.org/namespaces/inkscape"
   xmlns:sodipodi="http://sodipodi.sourceforge.net/DTD/sodipodi-0.dtd"
   xmlns="http://www.w3.org/2000/svg"
   xmlns:svg="http://www.w3.org/2000/svg">
  <defs
     id="defs261" />
  <sodipodi:namedview
     id="namedview259"
     pagecolor="#ffffff"
     bordercolor="#000000"
     borderopacity="0.25"
     inkscape:showpageshadow="2"
     inkscape:pageopacity="0.0"
     inkscape:pagecheckerboard="true"
     inkscape:deskcolor="#d1d1d1"
     showgrid="false"
     inkscape:zoom="33.916667"
     inkscape:cx="12.132678"
     inkscape:cy="12.117936"
     inkscape:window-width="1920"
     inkscape:window-height="1017"
     inkscape:window-x="-8"
     inkscape:window-y="-8"
     inkscape:window-maximized="1"
     inkscape:current-layer="Flat" />
  <path
     d="m 12.122977,0.1 a 12,12 0 1 0 12,12 12.013524,12.013524 0 0 0 -12,-12 z m 0,23.04 a 11.04,11.04 0 1 1 11.04,-11.04 11.052574,11.052574 0 0 1 -11.04,11.04 z M 10.591453,7.3 9.9014528,11.545352 a 3.872082,3.872082 0 0 1 4.4519532,0.718711 3.8470236,3.8470236 0 0 1 -5.4491012,5.431874 0.47995146,0.47995146 0 0 1 0.677344,-0.68016 2.8798416,2.8798416 0 1 0 0,-4.071445 0.4799532,0.4799532 0 0 1 -0.812461,-0.41707 l 0.9402,-5.784258 A 0.4799016,0.4799016 0 0 1 10.183177,6.34 h 4.8198 a 0.48,0.48 0 0 1 0,0.96 z"
     id="path256"
     style="fill:#ff7d00;fill-opacity:1;stroke:#ff7d00;stroke-width:0.2;stroke-dasharray:none;stroke-opacity:1" />
</svg>
