<?xml version="1.0" encoding="UTF-8" standalone="no"?>
<svg
   width="24.222977"
   height="24.222977"
   viewBox="0 0 24.222977 24.222977"
   id="Flat"
   version="1.1"
   sodipodi:docname="6.svg"
   inkscape:version="1.2.1 (9c6d41e410, 2022-07-14)"
   xmlns:inkscape="http://www.inkscape.org/namespaces/inkscape"
   xmlns:sodipodi="http://sodipodi.sourceforge.net/DTD/sodipodi-0.dtd"
   xmlns="http://www.w3.org/2000/svg"
   xmlns:svg="http://www.w3.org/2000/svg">
  <defs
     id="defs757" />
  <sodipodi:namedview
     id="namedview755"
     pagecolor="#ffffff"
     bordercolor="#000000"
     borderopacity="0.25"
     inkscape:showpageshadow="2"
     inkscape:pageopacity="0.0"
     inkscape:pagecheckerboard="true"
     inkscape:deskcolor="#d1d1d1"
     showgrid="false"
     inkscape:zoom="33.916667"
     inkscape:cx="12.162162"
     inkscape:cy="12.14742"
     inkscape:window-width="1920"
     inkscape:window-height="1017"
     inkscape:window-x="-8"
     inkscape:window-y="-8"
     inkscape:window-maximized="1"
     inkscape:current-layer="Flat" />
  <path
     d="m 12.122977,0.1 a 12,12 0 1 0 12,12 12.013524,12.013524 0 0 0 -12,-12 z m 0,23.04 a 11.04,11.04 0 1 1 11.04,-11.04 11.052574,11.052574 0 0 1 -11.04,11.04 z m 0,-12.96 a 3.8247084,3.8247084 0 0 0 -1.170821,0.183164 l 2.542852,-4.25707 A 0.47992895,0.47992895 0 0 0 12.670946,5.613906 l -3.8698802,6.478712 c -0.005,0.0084 -0.0077,0.01746 -0.01219,0.02601 A 3.8386572,3.8386572 0 1 0 12.122977,10.18 Z m 0,6.72 a 2.88,2.88 0 1 1 2.88,-2.88 2.8833,2.8833 0 0 1 -2.88,2.88 z"
     id="path752"
     style="fill:#ff7d00;fill-opacity:1;stroke:#ff7d00;stroke-width:0.2;stroke-dasharray:none;stroke-opacity:1" />
</svg>
