<?xml version="1.0" encoding="UTF-8" standalone="no"?>
<svg
   width="24.222977"
   height="24.222977"
   viewBox="0 0 24.222977 24.222977"
   id="Flat"
   version="1.1"
   sodipodi:docname="9.svg"
   inkscape:version="1.2.1 (9c6d41e410, 2022-07-14)"
   xmlns:inkscape="http://www.inkscape.org/namespaces/inkscape"
   xmlns:sodipodi="http://sodipodi.sourceforge.net/DTD/sodipodi-0.dtd"
   xmlns="http://www.w3.org/2000/svg"
   xmlns:svg="http://www.w3.org/2000/svg">
  <defs
     id="defs633" />
  <sodipodi:namedview
     id="namedview631"
     pagecolor="#ffffff"
     bordercolor="#000000"
     borderopacity="0.25"
     inkscape:showpageshadow="2"
     inkscape:pageopacity="0.0"
     inkscape:pagecheckerboard="true"
     inkscape:deskcolor="#d1d1d1"
     showgrid="false"
     inkscape:zoom="33.916667"
     inkscape:cx="12.162162"
     inkscape:cy="12.14742"
     inkscape:window-width="1920"
     inkscape:window-height="1017"
     inkscape:window-x="-8"
     inkscape:window-y="-8"
     inkscape:window-maximized="1"
     inkscape:current-layer="Flat" />
  <path
     d="m 12.122977,0.1 a 12,12 0 1 0 12,12 12.013524,12.013524 0 0 0 -12,-12 z m 0,23.04 a 11.04,11.04 0 1 1 11.04,-11.04 11.052574,11.052574 0 0 1 -11.04,11.04 z m 0,-16.8 a 3.84,3.84 0 1 0 1.170323,7.497012 l -2.542471,4.256894 a 0.48003,0.48003 0 1 0 0.824296,0.492188 l 3.86988,-6.479415 c 0.0045,-0.0075 0.0069,-0.01559 0.01087,-0.02326 A 3.8370192,3.8370192 0 0 0 12.122977,6.34 Z m -2.8800002,3.84 a 2.88,2.88 0 1 1 2.8800002,2.88 2.8833,2.8833 0 0 1 -2.8800002,-2.88 z"
     id="path628"
     style="fill:#ff7d00;fill-opacity:1;stroke:#ff7d00;stroke-width:0.2;stroke-dasharray:none;stroke-opacity:1" />
</svg>
