<?xml version="1.0" encoding="UTF-8" standalone="no"?>
<svg
   xmlns:dc="http://purl.org/dc/elements/1.1/"
   xmlns:cc="http://creativecommons.org/ns#"
   xmlns:rdf="http://www.w3.org/1999/02/22-rdf-syntax-ns#"
   xmlns:svg="http://www.w3.org/2000/svg"
   xmlns="http://www.w3.org/2000/svg"
   xmlns:sodipodi="http://sodipodi.sourceforge.net/DTD/sodipodi-0.dtd"
   xmlns:inkscape="http://www.inkscape.org/namespaces/inkscape"
   width="19mm"
   height="19mm"
   viewBox="0 0 19.000001 19"
   version="1.1"
   id="svg1029"
   sodipodi:docname="driver-dark.svg"
   inkscape:version="1.0.1 (3bc2e813f5, 2020-09-07)">
  <defs
     id="defs1023" />
  <sodipodi:namedview
     id="base"
     pagecolor="#ffffff"
     bordercolor="#666666"
     borderopacity="1.0"
     inkscape:pageopacity="0.0"
     inkscape:pageshadow="2"
     inkscape:zoom="11.766996"
     inkscape:cx="35.905511"
     inkscape:cy="35.905512"
     inkscape:document-units="mm"
     inkscape:current-layer="g1617"
     inkscape:document-rotation="0"
     showgrid="false"
     fit-margin-top="0"
     fit-margin-left="0"
     fit-margin-right="0"
     fit-margin-bottom="0"
     showborder="false"
     inkscape:showpageshadow="false"
     inkscape:window-width="1920"
     inkscape:window-height="1017"
     inkscape:window-x="1358"
     inkscape:window-y="-8"
     inkscape:window-maximized="1" />
  <metadata
     id="metadata1026">
    <rdf:RDF>
      <cc:Work
         rdf:about="">
        <dc:format>image/svg+xml</dc:format>
        <dc:type
           rdf:resource="http://purl.org/dc/dcmitype/StillImage" />
        <dc:title />
      </cc:Work>
    </rdf:RDF>
  </metadata>
  <g
     inkscape:label="Layer 1"
     inkscape:groupmode="layer"
     id="layer1"
     transform="translate(-47.774757,-86.362865)">
    <g
       id="g1617"
       transform="translate(2.6073259,5.3280139)">
      <g
         style="fill:#f59100;fill-opacity:1;stroke:none;stroke-width:0.99974;stroke-miterlimit:4;stroke-dasharray:none;stroke-opacity:1"
         id="g1083"
         transform="matrix(0.17104241,0,0,0.17104643,45.944268,81.982528)">
        <path
           style="fill:#f59100;fill-opacity:1;stroke:none;stroke-width:0.99974;stroke-miterlimit:4;stroke-dasharray:none;stroke-opacity:1"
           d="M 89.922,41.946 C 81.506,38.706 67.578,34.601 51,34.601 c -16.577,0 -30.506,4.104 -38.921,7.345 -0.538,2.602 -0.822,5.295 -0.822,8.054 0,1.196 0.062,2.376 0.167,3.545 2.499,-0.227 4.794,-0.395 6.129,-0.395 4.153,0 5.153,0.846 5.537,1.23 0.074,0.074 0.353,0.553 0.754,1.274 0.945,4.562 3.01,8.709 5.895,12.153 0.068,0.453 0.12,0.93 0.12,1.34 0,0.949 -4.57,6.651 -6.664,9.21 2.618,2.567 5.583,4.779 8.824,6.55 l 0.147,-0.07 3.538,-4.46 c 0,0 2.461,-4.307 7.383,-4.307 4.923,0 7.914,0 7.914,0 0,0 2.992,0 7.914,0 4.922,0 7.383,4.307 7.383,4.307 l 3.538,4.46 0.146,0.07 c 3.243,-1.771 6.208,-3.982 8.824,-6.55 -2.093,-2.559 -6.665,-8.261 -6.665,-9.21 0,-0.41 0.054,-0.887 0.122,-1.34 2.884,-3.444 4.95,-7.592 5.893,-12.153 0.402,-0.721 0.682,-1.2 0.756,-1.274 0.385,-0.384 1.384,-1.23 5.537,-1.23 1.334,0 3.63,0.168 6.128,0.395 0.104,-1.168 0.167,-2.35 0.167,-3.546 -0.001,-2.758 -0.286,-5.451 -0.822,-8.053 z M 51,55.903 c -3.492,0 -6.325,-2.832 -6.325,-6.325 0,-3.493 2.833,-6.325 6.325,-6.325 3.493,0 6.326,2.832 6.326,6.325 0,3.493 -2.833,6.325 -6.326,6.325 z"
           id="path1079" />
        <path
           style="fill:#f59100;fill-opacity:1;stroke:none;stroke-width:0.99974;stroke-miterlimit:4;stroke-dasharray:none;stroke-opacity:1"
           d="M 51,1 C 23.938,1 2,22.938 2,50 2,77.062 23.938,99 51,99 78.062,99 100,77.062 100,50 100,22.938 78.062,1 51,1 Z m 0,90.363 C 28.192,91.363 9.636,72.808 9.636,50 9.636,27.192 28.192,8.636 51,8.636 73.808,8.636 92.364,27.192 92.364,50 92.364,72.808 73.808,91.363 51,91.363 Z"
           id="path1081" />
      </g>
      <circle
         style="opacity:0.226933;fill:none;fill-opacity:1;fill-rule:evenodd;stroke-width:0.156149"
         id="path1608"
         cx="54.667431"
         cy="90.534851"
         r="9.5" />
    </g>
  </g>
</svg>
