<?xml version="1.0" encoding="UTF-8" standalone="no"?>
<svg
   xmlns:dc="http://purl.org/dc/elements/1.1/"
   xmlns:cc="http://creativecommons.org/ns#"
   xmlns:rdf="http://www.w3.org/1999/02/22-rdf-syntax-ns#"
   xmlns:svg="http://www.w3.org/2000/svg"
   xmlns="http://www.w3.org/2000/svg"
   xmlns:sodipodi="http://sodipodi.sourceforge.net/DTD/sodipodi-0.dtd"
   xmlns:inkscape="http://www.inkscape.org/namespaces/inkscape"
   height="21.81818"
   viewBox="0 0 20 21.81818"
   width="20"
   version="1.1"
   id="svg4"
   sodipodi:docname="trash.svg"
   inkscape:version="1.0.1 (3bc2e813f5, 2020-09-07)">
  <metadata
     id="metadata10">
    <rdf:RDF>
      <cc:Work
         rdf:about="">
        <dc:format>image/svg+xml</dc:format>
        <dc:type
           rdf:resource="http://purl.org/dc/dcmitype/StillImage" />
        <dc:title></dc:title>
      </cc:Work>
    </rdf:RDF>
  </metadata>
  <defs
     id="defs8" />
  <sodipodi:namedview
     pagecolor="#ffffff"
     bordercolor="#666666"
     borderopacity="1"
     objecttolerance="10"
     gridtolerance="10"
     guidetolerance="10"
     inkscape:pageopacity="0"
     inkscape:pageshadow="2"
     inkscape:window-width="1920"
     inkscape:window-height="1017"
     id="namedview6"
     showgrid="false"
     fit-margin-top="0"
     fit-margin-left="0"
     fit-margin-right="0"
     fit-margin-bottom="0"
     showborder="true"
     inkscape:zoom="38.72917"
     inkscape:cx="10"
     inkscape:cy="10.90909"
     inkscape:window-x="1912"
     inkscape:window-y="-8"
     inkscape:window-maximized="1"
     inkscape:current-layer="svg4">
    <inkscape:grid
       type="xygrid"
       id="grid835"
       originx="-192"
       originy="-128" />
  </sodipodi:namedview>
  <path
     d="m 7.27273,8.63636 v 8.18182 q 0,0.19887 -0.12784,0.32671 -0.12784,0.12784 -0.32671,0.12784 H 5.90909 q -0.19886,0 -0.3267,-0.12784 Q 5.45455,17.01705 5.45455,16.81818 V 8.63636 q 0,-0.19886 0.12784,-0.3267 0.12784,-0.12784 0.3267,-0.12784 h 0.90909 q 0.19887,0 0.32671,0.12784 0.12784,0.12784 0.12784,0.3267 z m 3.63636,0 v 8.18182 q 0,0.19887 -0.12784,0.32671 -0.12784,0.12784 -0.3267,0.12784 h -0.9091 q -0.19886,0 -0.3267,-0.12784 Q 9.09091,17.01705 9.09091,16.81818 V 8.63636 q 0,-0.19886 0.12784,-0.3267 0.12784,-0.12784 0.3267,-0.12784 h 0.9091 q 0.19886,0 0.3267,0.12784 0.12784,0.12784 0.12784,0.3267 z m 3.63636,0 v 8.18182 q 0,0.19887 -0.12784,0.32671 -0.12784,0.12784 -0.3267,0.12784 h -0.90909 q -0.19887,0 -0.32671,-0.12784 -0.12784,-0.12784 -0.12784,-0.32671 V 8.63636 q 0,-0.19886 0.12784,-0.3267 0.12784,-0.12784 0.32671,-0.12784 h 0.90909 q 0.19886,0 0.3267,0.12784 0.12784,0.12784 0.12784,0.3267 z m 1.81819,10.28409 V 5.45455 H 3.63636 v 13.4659 q 0,0.3125 0.0994,0.57529 0.0994,0.26278 0.20596,0.38352 Q 4.0483,20 4.09091,20 h 11.81818 q 0.0426,0 0.14915,-0.12074 0.10653,-0.12074 0.20596,-0.38352 0.0994,-0.26279 0.0994,-0.57529 z M 6.81818,3.63636 h 6.36364 L 12.5,1.97443 Q 12.4006,1.84659 12.25852,1.81818 H 7.75568 Q 7.61364,1.84658 7.5142,1.97443 Z M 20,4.09091 V 5 q 0,0.19886 -0.12784,0.3267 -0.12784,0.12785 -0.32671,0.12785 h -1.36363 v 13.4659 q 0,1.17898 -0.66762,2.03836 -0.66761,0.85937 -1.60511,0.85937 H 4.09091 q -0.9375,0 -1.60511,-0.83096 Q 1.81818,20.15625 1.81818,18.97727 V 5.45455 H 0.45455 Q 0.25568,5.45455 0.12784,5.3267 0,5.19886 0,5 V 4.09091 Q 0,3.89205 0.12784,3.7642 0.25568,3.63636 0.45455,3.63636 h 4.3892 L 5.83807,1.2642 Q 6.05114,0.73864 6.60511,0.36932 7.15909,0 7.72727,0 h 4.54546 q 0.56818,0 1.12216,0.36932 0.55397,0.36932 0.76704,0.89488 l 0.99432,2.37216 h 4.3892 q 0.19887,0 0.32671,0.12784 Q 20,3.89205 20,4.09091 Z"
     id="path2"
     style="fill:#800000;stroke-width:0.0142045" />
</svg>
