<?xml version="1.0" encoding="UTF-8"?>
<svg width="700pt" height="700pt" version="1.1" viewBox="0 0 700 700" xmlns="http://www.w3.org/2000/svg" xmlns:xlink="http://www.w3.org/1999/xlink">
 <defs>
  <symbol id="w" overflow="visible">
   <path d="m9.375-0.5625c-0.48047 0.25-0.98438 0.4375-1.5156 0.5625-0.52344 0.13281-1.0625 0.20312-1.625 0.20312-1.7109 0-3.0586-0.47266-4.0469-1.4219-0.99219-0.95703-1.4844-2.25-1.4844-3.875 0-1.6328 0.49219-2.9258 1.4844-3.875 0.98828-0.94531 2.3359-1.4219 4.0469-1.4219 0.5625 0 1.1016 0.0625 1.625 0.1875 0.53125 0.125 1.0352 0.32031 1.5156 0.57812v2.1094c-0.49219-0.33203-0.97656-0.57812-1.4531-0.73438-0.46875-0.15625-0.96484-0.23438-1.4844-0.23438-0.9375 0-1.6797 0.30469-2.2188 0.90625-0.53125 0.60547-0.79688 1.4336-0.79688 2.4844 0 1.0547 0.26562 1.8828 0.79688 2.4844 0.53906 0.60547 1.2812 0.90625 2.2188 0.90625 0.51953 0 1.0156-0.078125 1.4844-0.23438 0.47656-0.15625 0.96094-0.39844 1.4531-0.73438z"/>
  </symbol>
  <symbol id="b" overflow="visible">
   <path d="m6.8594-5.5781c-0.21094-0.09375-0.42188-0.16016-0.64062-0.20312-0.21094-0.050781-0.42188-0.078125-0.64062-0.078125-0.625 0-1.1094 0.20312-1.4531 0.60938-0.33594 0.39844-0.5 0.96875-0.5 1.7188v3.5312h-2.4531v-7.6562h2.4531v1.25c0.3125-0.5 0.67188-0.86328 1.0781-1.0938 0.40625-0.22656 0.89453-0.34375 1.4688-0.34375 0.082031 0 0.17188 0.007812 0.26562 0.015625 0.09375 0 0.23438 0.015625 0.42188 0.046875z"/>
  </symbol>
  <symbol id="a" overflow="visible">
   <path d="m8.8125-3.8438v0.6875h-5.7188c0.0625 0.57422 0.26953 1.0078 0.625 1.2969 0.35156 0.29297 0.84766 0.4375 1.4844 0.4375 0.51953 0 1.0508-0.078125 1.5938-0.23438 0.53906-0.15625 1.0938-0.39062 1.6562-0.70312v1.8906c-0.57422 0.21875-1.1523 0.38672-1.7344 0.5-0.57422 0.11328-1.1523 0.17188-1.7344 0.17188-1.3867 0-2.4648-0.35156-3.2344-1.0625-0.76172-0.70703-1.1406-1.6953-1.1406-2.9688 0-1.2383 0.375-2.2188 1.125-2.9375s1.7852-1.0781 3.1094-1.0781c1.207 0 2.1719 0.36719 2.8906 1.0938 0.71875 0.71875 1.0781 1.6875 1.0781 2.9062zm-2.5156-0.8125c0-0.46875-0.13672-0.84375-0.40625-1.125-0.27344-0.28906-0.625-0.4375-1.0625-0.4375-0.46875 0-0.85547 0.13672-1.1562 0.40625-0.29297 0.26172-0.47656 0.64844-0.54688 1.1562z"/>
  </symbol>
  <symbol id="d" overflow="visible">
   <path d="m4.6094-3.4531c-0.51172 0-0.89844 0.089844-1.1562 0.26562-0.26172 0.17969-0.39062 0.43359-0.39062 0.76562 0 0.3125 0.10156 0.55859 0.3125 0.73438 0.20703 0.17969 0.5 0.26562 0.875 0.26562 0.45703 0 0.84375-0.16406 1.1562-0.5 0.3125-0.33203 0.46875-0.75 0.46875-1.25v-0.28125zm3.7344-0.92188v4.375h-2.4688v-1.1406c-0.32422 0.46875-0.69531 0.8125-1.1094 1.0312-0.40625 0.20703-0.90234 0.3125-1.4844 0.3125-0.80469 0-1.4492-0.22656-1.9375-0.6875-0.49219-0.46875-0.73438-1.0703-0.73438-1.8125 0-0.89453 0.30469-1.5508 0.92188-1.9688 0.61328-0.42578 1.582-0.64062 2.9062-0.64062h1.4375v-0.1875c0-0.38281-0.15234-0.66406-0.45312-0.84375-0.30469-0.1875-0.77734-0.28125-1.4219-0.28125-0.53125 0-1.0234 0.054688-1.4688 0.15625-0.44922 0.10547-0.87109 0.26562-1.2656 0.48438v-1.875c0.53125-0.125 1.0547-0.21875 1.5781-0.28125 0.53125-0.070313 1.0625-0.10938 1.5938-0.10938 1.3828 0 2.3789 0.27734 2.9844 0.82812 0.61328 0.54297 0.92188 1.4219 0.92188 2.6406z"/>
  </symbol>
  <symbol id="c" overflow="visible">
   <path d="m3.8438-9.8281v2.1719h2.5312v1.75h-2.5312v3.25c0 0.35547 0.066406 0.59375 0.20312 0.71875 0.14453 0.125 0.42969 0.1875 0.85938 0.1875h1.25v1.75h-2.0938c-0.96875 0-1.6562-0.19531-2.0625-0.59375-0.39844-0.40625-0.59375-1.0938-0.59375-2.0625v-3.25h-1.2188v-1.75h1.2188v-2.1719z"/>
  </symbol>
  <symbol id="l" overflow="visible">
   <path d="m6.3906-6.5312v-4.1094h2.4531v10.641h-2.4531v-1.1094c-0.34375 0.44922-0.71875 0.78125-1.125 1-0.40625 0.20703-0.875 0.3125-1.4062 0.3125-0.9375 0-1.7148-0.375-2.3281-1.125-0.60547-0.75-0.90625-1.7188-0.90625-2.9062 0-1.1758 0.30078-2.1406 0.90625-2.8906 0.61328-0.75 1.3906-1.125 2.3281-1.125 0.53125 0 1 0.10938 1.4062 0.32812 0.40625 0.21094 0.78125 0.53906 1.125 0.98438zm-1.625 4.9531c0.53125 0 0.92969-0.19141 1.2031-0.57812 0.28125-0.38281 0.42188-0.94141 0.42188-1.6719 0-0.72656-0.14062-1.2812-0.42188-1.6562-0.27344-0.38281-0.67188-0.57812-1.2031-0.57812-0.51172 0-0.90625 0.19531-1.1875 0.57812-0.27344 0.375-0.40625 0.92969-0.40625 1.6562 0 0.73047 0.13281 1.2891 0.40625 1.6719 0.28125 0.38672 0.67578 0.57812 1.1875 0.57812z"/>
  </symbol>
  <symbol id="k" overflow="visible">
   <path d="m5.25-1.5781c0.51953 0 0.91406-0.19141 1.1875-0.57812 0.28125-0.38281 0.42188-0.94141 0.42188-1.6719 0-0.72656-0.14062-1.2812-0.42188-1.6562-0.27344-0.38281-0.66797-0.57812-1.1875-0.57812-0.52344 0-0.92188 0.19531-1.2031 0.57812-0.28125 0.38672-0.42188 0.9375-0.42188 1.6562 0 0.73047 0.14062 1.2891 0.42188 1.6719 0.28125 0.38672 0.67969 0.57812 1.2031 0.57812zm-1.625-4.9531c0.33203-0.44531 0.70312-0.77344 1.1094-0.98438 0.41406-0.21875 0.89062-0.32812 1.4219-0.32812 0.94531 0 1.7227 0.375 2.3281 1.125 0.60156 0.75 0.90625 1.7148 0.90625 2.8906 0 1.1875-0.30469 2.1562-0.90625 2.9062-0.60547 0.75-1.3828 1.125-2.3281 1.125-0.53125 0-1.0078-0.10547-1.4219-0.3125-0.40625-0.21875-0.77734-0.55078-1.1094-1v1.1094h-2.4531v-10.641h2.4531z"/>
  </symbol>
  <symbol id="j" overflow="visible">
   <path d="m0.17188-7.6562h2.4531l2.0469 5.1875 1.75-5.1875h2.4531l-3.2188 8.375c-0.32422 0.85156-0.70312 1.4453-1.1406 1.7812-0.42969 0.34375-0.99609 0.51562-1.7031 0.51562h-1.4062v-1.5938h0.76562c0.41406 0 0.71875-0.070313 0.90625-0.20312 0.1875-0.13672 0.33203-0.375 0.4375-0.71875l0.0625-0.20312z"/>
  </symbol>
  <symbol id="i" overflow="visible">
   <path d="m1.2812-10.203h2.6406v3.8906h3.875v-3.8906h2.6406v10.203h-2.6406v-4.3281h-3.875v4.3281h-2.6406z"/>
  </symbol>
  <symbol id="h" overflow="visible">
   <path d="m8.2656-6.3906c0.3125-0.46875 0.67969-0.82812 1.1094-1.0781 0.42578-0.25 0.89453-0.375 1.4062-0.375 0.875 0 1.5391 0.27344 2 0.8125 0.46875 0.54297 0.70312 1.3359 0.70312 2.375v4.6562h-2.4688v-4c0.007813-0.050781 0.015625-0.10938 0.015625-0.17188v-0.28125c0-0.53906-0.078125-0.92969-0.23438-1.1719-0.15625-0.25-0.41797-0.375-0.78125-0.375-0.46094 0-0.82031 0.19531-1.0781 0.57812-0.25 0.38672-0.38281 0.9375-0.39062 1.6562v3.7656h-2.4531v-4c0-0.84375-0.074219-1.3828-0.21875-1.625-0.14844-0.25-0.40625-0.375-0.78125-0.375-0.46875 0-0.83594 0.19531-1.0938 0.57812-0.25 0.38672-0.375 0.9375-0.375 1.6562v3.7656h-2.4688v-7.6562h2.4688v1.125c0.30078-0.4375 0.64453-0.76562 1.0312-0.98438 0.39453-0.21875 0.82812-0.32812 1.2969-0.32812 0.51953 0 0.98438 0.13281 1.3906 0.39062 0.40625 0.25 0.71094 0.60547 0.92188 1.0625z"/>
  </symbol>
  <symbol id="v" overflow="visible">
   <path d="m1.1719-7.6562h2.4531v7.6562h-2.4531zm0-2.9844h2.4531v2h-2.4531z"/>
  </symbol>
  <symbol id="f" overflow="visible">
   <path d="m8.875-4.6562v4.6562h-2.4688v-3.5625c0-0.66406-0.015625-1.125-0.046875-1.375-0.023437-0.25-0.070313-0.42969-0.14062-0.54688-0.09375-0.16406-0.22656-0.28906-0.39062-0.375-0.16797-0.09375-0.35547-0.14062-0.5625-0.14062-0.51172 0-0.91406 0.19922-1.2031 0.59375-0.29297 0.39844-0.4375 0.94531-0.4375 1.6406v3.7656h-2.4531v-7.6562h2.4531v1.125c0.36328-0.44531 0.75391-0.77344 1.1719-0.98438 0.41406-0.21875 0.875-0.32812 1.375-0.32812 0.88281 0 1.5547 0.27344 2.0156 0.8125 0.45703 0.54297 0.6875 1.3359 0.6875 2.375z"/>
  </symbol>
  <symbol id="u" overflow="visible">
   <path d="m5.375-6.25c0.41406 0 0.72656-0.085938 0.9375-0.26562 0.21875-0.1875 0.32812-0.45703 0.32812-0.8125 0-0.35156-0.10938-0.625-0.32812-0.8125-0.21094-0.1875-0.52344-0.28125-0.9375-0.28125h-1.4531v2.1719zm0.09375 4.4531c0.51953 0 0.91406-0.10938 1.1875-0.32812 0.26953-0.22656 0.40625-0.56641 0.40625-1.0156 0-0.4375-0.13672-0.76562-0.40625-0.98438-0.26172-0.22656-0.65625-0.34375-1.1875-0.34375h-1.5469v2.6719zm2.4375-3.6719c0.5625 0.16797 1 0.47656 1.3125 0.92188 0.3125 0.4375 0.46875 0.98047 0.46875 1.625 0 0.98047-0.33594 1.7148-1 2.2031-0.66797 0.48047-1.6797 0.71875-3.0312 0.71875h-4.375v-10.203h3.9531c1.4141 0 2.4414 0.21484 3.0781 0.64062 0.63281 0.42969 0.95312 1.1172 0.95312 2.0625 0 0.49219-0.11719 0.91406-0.34375 1.2656-0.23047 0.34375-0.57031 0.60156-1.0156 0.76562z"/>
  </symbol>
  <symbol id="t" overflow="visible">
   <path d="m1.1719-10.641h2.4531v10.641h-2.4531z"/>
  </symbol>
  <symbol id="s" overflow="visible">
   <path d="m4.7656-6.0625c-0.51172 0-0.90625 0.19531-1.1875 0.57812-0.27344 0.375-0.40625 0.92969-0.40625 1.6562 0 0.73047 0.13281 1.2891 0.40625 1.6719 0.28125 0.38672 0.67578 0.57812 1.1875 0.57812 0.53125 0 0.92969-0.19141 1.2031-0.57812 0.28125-0.38281 0.42188-0.94141 0.42188-1.6719 0-0.72656-0.14062-1.2812-0.42188-1.6562-0.27344-0.38281-0.67188-0.57812-1.2031-0.57812zm1.625 4.9531c-0.34375 0.44922-0.71875 0.78125-1.125 1-0.40625 0.20703-0.875 0.3125-1.4062 0.3125-0.9375 0-1.7148-0.375-2.3281-1.125-0.60547-0.75-0.90625-1.7188-0.90625-2.9062 0-1.1758 0.30078-2.1328 0.90625-2.875 0.61328-0.75 1.3906-1.125 2.3281-1.125 0.53125 0 1 0.10547 1.4062 0.3125 0.40625 0.21094 0.78125 0.54297 1.125 1v-1.1406h2.4531v10.562h-2.4531z"/>
  </symbol>
  <symbol id="g" overflow="visible">
   <path d="m1.0938-2.9844v-4.6719h2.4688v0.76562c0 0.41797-0.007812 0.9375-0.015625 1.5625v1.25c0 0.61719 0.015625 1.0586 0.046875 1.3281 0.03125 0.27344 0.082031 0.46875 0.15625 0.59375 0.10156 0.15625 0.23438 0.28125 0.39062 0.375 0.16406 0.085938 0.35156 0.125 0.5625 0.125 0.50781 0 0.91016-0.19141 1.2031-0.57812 0.28906-0.39453 0.4375-0.94141 0.4375-1.6406v-3.7812h2.4531v7.6562h-2.4531v-1.1094c-0.36719 0.44922-0.75781 0.78125-1.1719 1-0.41797 0.20703-0.87109 0.3125-1.3594 0.3125-0.88672 0-1.5625-0.26953-2.0312-0.8125-0.46094-0.53906-0.6875-1.332-0.6875-2.375z"/>
  </symbol>
  <symbol id="r" overflow="visible">
   <path d="m6.2188-10.641v1.6094h-1.3594c-0.34375 0-0.58594 0.0625-0.71875 0.1875-0.13672 0.125-0.20312 0.34375-0.20312 0.65625v0.53125h2.0781v1.75h-2.0781v5.9062h-2.4531v-5.9062h-1.2188v-1.75h1.2188v-0.53125c0-0.83203 0.22656-1.4453 0.6875-1.8438 0.46875-0.40625 1.1914-0.60938 2.1719-0.60938z"/>
  </symbol>
  <symbol id="e" overflow="visible">
   <path d="m4.8125-6.0938c-0.54297 0-0.95312 0.19922-1.2344 0.59375-0.28125 0.38672-0.42188 0.94531-0.42188 1.6719 0 0.74219 0.14062 1.3086 0.42188 1.7031 0.28125 0.38672 0.69141 0.57812 1.2344 0.57812 0.53906 0 0.95312-0.19141 1.2344-0.57812 0.28125-0.39453 0.42188-0.96094 0.42188-1.7031 0-0.72656-0.14062-1.2852-0.42188-1.6719-0.28125-0.39453-0.69531-0.59375-1.2344-0.59375zm0-1.75c1.3203 0 2.3516 0.35938 3.0938 1.0781 0.73828 0.71094 1.1094 1.6875 1.1094 2.9375 0 1.2617-0.37109 2.25-1.1094 2.9688-0.74219 0.71094-1.7734 1.0625-3.0938 1.0625-1.3125 0-2.3438-0.35156-3.0938-1.0625-0.74219-0.71875-1.1094-1.707-1.1094-2.9688 0-1.25 0.36719-2.2266 1.1094-2.9375 0.75-0.71875 1.7812-1.0781 3.0938-1.0781z"/>
  </symbol>
  <symbol id="q" overflow="visible">
   <path d="m8.875-4.6562v4.6562h-2.4688v-3.5625c0-0.66406-0.015625-1.125-0.046875-1.375-0.023437-0.25-0.070313-0.42969-0.14062-0.54688-0.09375-0.16406-0.22656-0.28906-0.39062-0.375-0.16797-0.09375-0.35547-0.14062-0.5625-0.14062-0.51172 0-0.91406 0.19922-1.2031 0.59375-0.29297 0.39844-0.4375 0.94531-0.4375 1.6406v3.7656h-2.4531v-10.641h2.4531v4.1094c0.36328-0.44531 0.75391-0.77344 1.1719-0.98438 0.41406-0.21875 0.875-0.32812 1.375-0.32812 0.88281 0 1.5547 0.27344 2.0156 0.8125 0.45703 0.54297 0.6875 1.3359 0.6875 2.375z"/>
  </symbol>
  <symbol id="p" overflow="visible">
   <path d="m1.2812-10.203h2.9375l3.7188 7v-7h2.5v10.203h-2.9375l-3.7188-7v7h-2.5z"/>
  </symbol>
  <symbol id="o" overflow="visible">
   <path d="m1.2812-10.203h4.375c1.3008 0 2.2969 0.28906 2.9844 0.85938 0.69531 0.57422 1.0469 1.3984 1.0469 2.4688 0 1.0742-0.35156 1.8984-1.0469 2.4688-0.6875 0.57422-1.6836 0.85938-2.9844 0.85938h-1.7344v3.5469h-2.6406zm2.6406 1.9062v2.8438h1.4531c0.50781 0 0.89844-0.11719 1.1719-0.35938 0.28125-0.25 0.42188-0.60156 0.42188-1.0625 0-0.45703-0.14062-0.80469-0.42188-1.0469-0.27344-0.25-0.66406-0.375-1.1719-0.375z"/>
  </symbol>
  <symbol id="n" overflow="visible">
   <path d="m1.1719-7.6562h2.4531v7.5156c0 1.0312-0.25 1.8125-0.75 2.3438-0.49219 0.53906-1.1992 0.8125-2.125 0.8125h-1.2188v-1.5938h0.42188c0.46875 0 0.78516-0.10938 0.95312-0.32812 0.17578-0.21094 0.26562-0.62109 0.26562-1.2344zm0-2.9844h2.4531v2h-2.4531z"/>
  </symbol>
  <symbol id="m" overflow="visible">
   <path d="m7.3594-7.4219v2c-0.33594-0.22656-0.66797-0.39453-1-0.5-0.33594-0.11328-0.68359-0.17188-1.0469-0.17188-0.67969 0-1.2109 0.20312-1.5938 0.60938-0.375 0.39844-0.5625 0.94922-0.5625 1.6562 0 0.71875 0.1875 1.2812 0.5625 1.6875 0.38281 0.39844 0.91406 0.59375 1.5938 0.59375 0.38281 0 0.75-0.054687 1.0938-0.17188 0.34375-0.11328 0.66016-0.28516 0.95312-0.51562v2.0156c-0.38672 0.13672-0.77734 0.23828-1.1719 0.3125-0.38672 0.070312-0.77734 0.10938-1.1719 0.10938-1.3867 0-2.4688-0.35156-3.25-1.0625-0.77344-0.70703-1.1562-1.6953-1.1562-2.9688 0-1.2578 0.38281-2.2422 1.1562-2.9531 0.78125-0.70703 1.8633-1.0625 3.25-1.0625 0.39453 0 0.78516 0.039062 1.1719 0.10938 0.39453 0.074219 0.78516 0.17969 1.1719 0.3125z"/>
  </symbol>
 </defs>
 <g>
  <path d="m598.39 224c-1.5078 0.25781-2.5312 1.6797-2.293 3.1914 2.0703 12.719 3.1094 25.586 3.1055 38.473-0.011719 23.645-3.5703 47.156-10.555 69.746-0.29688-0.046875-0.60156-0.046875-0.89844 0-2.8398 0.68359-5.7539 1.0234-8.6797 1.0117-11.508 0-21.223-5.125-21.223-11.199v-0.003906c-0.027344-1.1133-0.71094-2.1055-1.7461-2.5273-1.0352-0.41797-2.2188-0.18359-3.0117 0.59766-0.86719 0.48438-1.4102 1.3906-1.4297 2.3789-0.25 2.5547-1.6523 4.8516-3.8086 6.2422-0.19531-0.33594-0.33594-0.67188-0.55859-0.98047-7.7852-11.984-27.523-10.891-60.367 3.3594l-6.7773 2.8008v0.003906c-0.33984-0.21094-0.72266-0.34375-1.1211-0.39453-9.9102-1.1758-17.977-6.0742-17.977-10.922v0.003906c0-0.74219-0.29297-1.457-0.82031-1.9805-0.52344-0.52734-1.2344-0.82031-1.9805-0.82031h-0.36328c-1.5469 0-2.7969 1.2539-2.7969 2.8008 0 6.0469-9.7148 11.199-21.223 11.199h-0.003906c-5.3945 0.097656-10.73-1.1641-15.512-3.668 60.703-14.336 80.863-44.801 80.305-50.203-0.13281-1.5859-1.4609-2.8086-3.0508-2.8008h-26.098l-18.426-33.91c-0.48438-0.89063-1.418-1.4453-2.4336-1.4531h-27.496v-51.969c0-0.74219-0.29688-1.457-0.82031-1.9805-0.52344-0.52344-1.2383-0.82031-1.9805-0.82031h-27.551c-1.5469 0-2.8008 1.2539-2.8008 2.8008v52.051h-22.398v-26.348c0-0.74219-0.29688-1.4531-0.82031-1.9805-0.52734-0.52344-1.2383-0.82031-1.9805-0.82031h-27.664c-1.5469 0-2.8008 1.2539-2.8008 2.8008v26.348h-28c-1.5469 0-2.8008 1.2539-2.8008 2.8008v32.676h-18.73c-0.84375-0.015625-1.6523 0.35156-2.1953 1-0.54297 0.64453-0.76562 1.5039-0.60547 2.332 4.6211 23.07 13.469 41.551 23.91 50.23-4.6836 2.332-9.8594 3.5039-15.09 3.418-11.508 0-21.223-5.125-21.223-11.199 0-0.74219-0.29688-1.457-0.82031-1.9805-0.52734-0.52734-1.2383-0.82031-1.9805-0.82031h-0.39453c-1.543 0-2.7969 1.2539-2.7969 2.8008 0 6.0469-9.7148 11.199-21.223 11.199h-0.003906c-6.5547 0.20703-13.012-1.6016-18.508-5.1797-4.0039-5.7109-7.0664-12.023-9.0703-18.703 14.422-4.7031 80.359-31.723 64.398-128.18v-0.003907c-0.19531-1.0625-0.99219-1.9219-2.0391-2.1953-1.0508-0.27734-2.1641 0.078125-2.8594 0.91016-15.793 19.602-40.18 31.809-57.766 36.734-14.141 3.9492-29.176 9.043-35.477 19.602-5.9062-11.199-21.422-16.465-36.035-20.551v-0.003906c-3.875-1.1289-7.6914-2.4648-11.422-4.0039 7.4844-34.652 22.652-67.184 44.379-95.199 0.75-1.2148 0.46094-2.8008-0.66797-3.6797-1.125-0.875-2.7344-0.76172-3.7266 0.26562-22.059 28.379-37.531 61.309-45.305 96.402-15.812-6.9258-29.836-17.375-40.992-30.547-0.69531-0.83203-1.8125-1.1875-2.8594-0.91016-1.0508 0.27344-1.8438 1.1328-2.043 2.1992-16.27 98.867 53.367 124.77 65.406 128.46 4.0586 40.711 20.746 109 84 154.39l0.58984 0.30859c4.4805 3.1914 9.1484 6.2617 14 9.2109 0.17188 0.09375 0.34766 0.16797 0.53125 0.22266 31.035 18.469 66.199 28.863 102.29 30.242-1.8555 15.336-2.3516 30.805-1.4844 46.227 0.058594 0.97656 0.62109 1.8516 1.4844 2.3086s1.9062 0.43359 2.7461-0.070312c14-8.7344 40.602-25.199 49.254-50.793l-0.003907 0.003906c57.219-8.7188 109.42-37.648 147.14-81.547 37.719-43.902 58.461-99.863 58.465-157.74 0-13.129-1.0586-26.238-3.1641-39.199-0.082031-0.76953-0.47656-1.4688-1.0938-1.9336-0.61328-0.46875-1.3945-0.66016-2.1562-0.53125zm-43.512 108.5c4.2852 5.6016 13.355 9.4375 24.164 9.4375 2.5859-0.019531 5.1641-0.27344 7.6992-0.75781-1.5664 4.6289-3.2773 9.2109-5.125 13.746l0.003907 0.003907c-0.47656-0.37109-1.0547-0.57422-1.6523-0.58984-11.508 0-21.223-5.125-21.223-11.199h-0.003907c0-0.74219-0.29297-1.457-0.82031-1.9805-0.52344-0.52344-1.2344-0.82031-1.9766-0.82031h-0.36719c-1.543 0-2.7969 1.2539-2.7969 2.8008-0.12109 1.9883-1.0391 3.8477-2.5508 5.1523 0.45313-3.6875 0.30078-7.4219-0.44531-11.062 1.9766-1.2109 3.7031-2.7891 5.0938-4.6445zm-161.28-136.84h22.008v49.281h-22.008l0.003906-49.199zm-55.66 25.816h22.008v23.574h-22.008zm-30.801 29.121h139.83l16.156 29.875h-155.96v-29.875zm-21.027 35.449h205.71c-5.1523 8.2031-26.77 31.555-78.398 42.867v-0.003907c-0.51172-0.89453-0.79297-1.9062-0.8125-2.9375 0-0.74219-0.29688-1.457-0.82031-1.9805-0.52734-0.52344-1.2383-0.82031-1.9805-0.82031-0.84766 0.019531-1.6406 0.42188-2.1562 1.0938-0.53516 0.52344-0.83594 1.2383-0.83984 1.9883 0 6.0469-9.7148 11.199-21.223 11.199-11.508 0-21.223-5.125-21.223-11.199h-0.003907c0-0.74609-0.29297-1.457-0.82031-1.9805-0.52344-0.52734-1.2383-0.82031-1.9805-0.82031h-0.36328c-1.5469 0-2.8008 1.2539-2.8008 2.8008 0 6.0469-9.7148 11.199-21.223 11.199-11.508 0-21.223-5.125-21.223-11.199 0-0.74609-0.29688-1.457-0.82031-1.9805-0.52734-0.52734-1.2383-0.82031-1.9805-0.82031h-0.36328c-1.5469 0-2.8008 1.2539-2.8008 2.8008-0.039062 1.5508-0.61328 3.0469-1.625 4.2266-9.2383-6.9727-17.609-23.688-22.258-44.438zm-21.531 47.602c4.2578 5.6016 13.355 9.4922 24.191 9.4922s19.938-3.8359 24.191-9.4648c4.2578 5.6016 13.355 9.4648 24.191 9.4648 10.836 0 19.938-3.8359 24.191-9.4648 4.2578 5.6016 13.355 9.4648 24.191 9.4648s19.992-3.8633 24.246-9.5195c4.3398 5.6016 13.328 9.2383 23.996 9.2383 10.668 0 20.133-3.9219 24.332-9.6602l0.003906-0.003906c3.4609 3.7773 7.9453 6.4727 12.906 7.7578-2.7266 1.0469-5.6016 2.1172-8.625 3.2188-0.82422-0.98438-1.2969-2.2148-1.3438-3.5 0-0.74219-0.29297-1.4531-0.82031-1.9805-0.52344-0.52344-1.2344-0.82031-1.9805-0.82031h-0.36328c-1.5469 0-2.7969 1.2539-2.7969 2.8008 0 3.5859-3.4141 6.832-8.5664 8.9023l-4.5352 1.3984-0.003906 0.003907c-2.6641 0.59766-5.3906 0.89844-8.1211 0.89453-11.508 0-21.223-5.125-21.223-11.199 0-0.74219-0.29688-1.4531-0.82031-1.9805-0.52734-0.52344-1.2383-0.82031-1.9805-0.82031-0.84766 0.019531-1.6406 0.42188-2.1562 1.0938-0.53516 0.52344-0.83594 1.2383-0.83984 1.9883 0 6.0469-9.7148 11.199-21.223 11.199-11.508 0-21.223-5.125-21.223-11.199h-0.003906c0-0.74219-0.29297-1.457-0.82031-1.9805-0.52344-0.52734-1.2344-0.82031-1.9766-0.82031h-0.39453c-1.5469 0-2.8008 1.2539-2.8008 2.8008 0 6.0469-9.7148 11.199-21.223 11.199-11.508 0-21.223-5.125-21.223-11.199 0-0.74219-0.29688-1.457-0.82031-1.9805-0.52734-0.52734-1.2383-0.82031-1.9805-0.82031h-0.28125c-1.5469 0-2.8008 1.2539-2.8008 2.8008 0 6.0469-9.7148 11.199-21.223 11.199-11.508 0-21.223-5.125-21.223-11.199 0-0.74219-0.29688-1.457-0.82031-1.9805-0.52734-0.52734-1.2383-0.82031-1.9805-0.82031h-0.33594c-1.5469 0-2.8008 1.2539-2.8008 2.8008 0 4.5938-6.0742 9.0156-14.477 10.586v-0.003907c-0.48047 0.10938-0.92578 0.33984-1.2852 0.67188-5.7383-2.5352-11.027-5.9844-15.652-10.219 3.3125 0.76172 6.7031 1.1445 10.105 1.1484 10.836-0.14062 20.02-3.9766 24.223-9.6328zm0 14.559c4.2578 5.6016 13.355 9.4922 24.191 9.4922s19.938-3.8359 24.191-9.4922c4.2578 5.6016 13.355 9.4922 24.191 9.4922 10.836 0 19.938-3.8359 24.191-9.4648 4.2578 5.6016 13.355 9.4648 24.191 9.4648s19.992-3.8633 24.246-9.5195l0.003906-0.003906c3.5781 4.0586 8.3711 6.8555 13.664 7.9805-47.348 12.18-109.51 19.266-169.2-0.8125h-0.003907c4.0977-1.3828 7.7109-3.9062 10.418-7.2812zm86.438 200.39c-2.2383-67.199 18.258-88.199 18.508-88.453h-0.003906c0.86328-1.0977 0.78516-2.6602-0.17969-3.668-0.96484-1.0078-2.5234-1.1523-3.6562-0.33594-0.67188 0.64453-12.375 12.293-17.723 45.723-43.371-2.2383-79.742-14.477-114.35-38.555-92.793-66.051-83.355-182.67-83.242-183.9l-0.003906-0.003906c0.14062-1.543-1-2.9102-2.5469-3.0508-1.5469-0.13672-2.9141 1.0039-3.0508 2.5469-0.56641 9.3867-0.44531 18.801 0.36328 28.168-15.035-5.0938-71.68-29.594-60.172-115.78 15.562 16.074 35.078 27.777 56.586 33.934 15.652 4.3945 32.535 10.137 34.301 22.961 0.11328 0.37109 0.30469 0.71484 0.55859 1.0078 0.20312 1.1875 1.1367 2.1094 2.3242 2.2969 1.4414 0.125 2.7422-0.87109 2.9961-2.2969 1.793-12.824 18.648-18.562 34.301-22.961 21.52-6.1445 41.043-17.836 56.617-33.906 12.965 97.16-60.703 115.98-63.895 116.73h-0.003907c-1.4414 0.36328-2.3516 1.7891-2.0703 3.25 5.1523 21.582 20.809 39.129 41.664 46.703 40.039 14.363 124.57 30.801 240.8-19.602 29.121-12.656 47.602-14.531 53.508-5.4336 5.6016 8.5664 1.2891 27.637-12.066 53.676-10.695 20.832-24.586 40.629-28.281 44.016-1.5977 1.457-2.9961 2.9688-4.4805 4.5625-7.8672 8.3984-20.973 22.625-96.656 61.293v0.003906c0.75-4.0039 1.043-8.082 0.86719-12.152-0.22266-5.125-0.44922-9.6055-0.64453-13.609v0.003907c15.055-6.1602 29.5-13.719 43.148-22.57 22.121-14.309 51.406-38.305 65.238-71.371h0.003906c0.39453-0.69531 0.47656-1.5273 0.21875-2.2891-0.25781-0.75781-0.82812-1.3711-1.5664-1.6797-0.73828-0.3125-1.5742-0.29297-2.2969 0.054688-0.72266 0.34766-1.2617 0.98828-1.4805 1.7578-22.398 53.594-87.668 83.578-103.6 90.188v-1.5664c-0.67188-12.824-1.0938-20.551 0-21.504 0.39062-0.28125 2.1836-1.0938 3.8906-1.875 12.711-5.8242 51.379-23.492 73.922-62.777 0.59375-1.3086 0.097656-2.8516-1.1445-3.5742-1.2422-0.72266-2.8281-0.38672-3.6719 0.77344-21.672 37.742-59.109 54.852-71.43 60.48h0.003906c-1.793 0.68359-3.5039 1.5664-5.0977 2.6328-3.3047 2.8008-3.0508 7.2812-2.0703 26.098 0.30859 5.6016 0.67188 12.488 1.0352 21.027 1.3164 31.555-27.105 51.434-45.387 62.914zm190.04-127.62h-0.003906c-32.688 37.57-76.398 63.871-124.91 75.152 65.465-34.215 77.504-47.18 85.625-56 1.457-1.5664 2.8008-2.9414 4.1445-4.2578 4.5625-4.1992 18.648-24.5 29.457-45.555h-0.003906c5.8711-10.84 10.41-22.348 13.523-34.273l0.55859-0.22266h0.003906c2.4258-1.2969 4.5547-3.0898 6.2422-5.2656 4.1992 5.6016 13.133 9.3789 23.773 9.4648-9.5938 22.121-22.523 42.641-38.332 60.844z"/>
  <path d="m281.62 43.457c39.711-14.449 82.57-18.004 124.12-10.297 41.551 7.707 80.281 26.395 112.17 54.125 31.891 27.727 55.781 63.484 69.188 103.56 0.61719 1.2617 2.0703 1.8711 3.4023 1.4258 1.332-0.44531 2.1289-1.8125 1.8594-3.1875-13.715-41.023-38.164-77.625-70.801-106-32.641-28.383-72.281-47.512-114.81-55.398-42.527-7.8906-86.391-4.25-127.04 10.535-1.293 0.625-1.9023 2.1289-1.4141 3.4805 0.49219 1.3516 1.9258 2.1094 3.3203 1.7578z"/>
  <path d="m412.64 391.47c0.89844 0.035156 1.7617-0.36328 2.3203-1.0742 0.55469-0.71094 0.73047-1.6445 0.48047-2.5117-0.57422-1.5977-0.46094-3.3633 0.30469-4.8789 0.76953-1.5156 2.125-2.6484 3.7539-3.1328s3.3828-0.27734 4.8555 0.57031c1.4727 0.84766 2.5312 2.2617 2.9297 3.9141 0.57031 1.2852 2.0117 1.9453 3.3594 1.543 1.3516-0.40625 2.1875-1.75 1.9609-3.1367-2.2383-5.668-8.4375-8.6797-14.273-6.9375-5.8359 1.7461-9.3672 7.6641-8.1289 13.629 0.32031 1.1094 1.2852 1.9102 2.4375 2.0156z"/>
  <path d="m344.79 260.4c-1.957 1.957-2.5391 4.8945-1.4844 7.4492 1.0586 2.5508 3.5508 4.2148 6.3125 4.2148 2.7656 0 5.2539-1.6641 6.3125-4.2148 1.0586-2.5547 0.47266-5.4922-1.4805-7.4492-2.668-2.6641-6.9922-2.6641-9.6602 0zm5.6016 5.6016h-0.003906c-0.42188 0.42578-1.0859 0.49609-1.5898 0.16797-0.5-0.33203-0.69922-0.97266-0.47266-1.5273 0.22656-0.55859 0.8125-0.87891 1.4062-0.76562 0.58984 0.11328 1.0156 0.62891 1.0234 1.2305 0.070313 0.36328-0.019531 0.74219-0.25391 1.0352z"/>
  <path d="m386.04 260.4c-1.9492-1.9336-4.8711-2.5039-7.4062-1.4492-2.5391 1.0547-4.1875 3.5352-4.1875 6.2812 0 2.7461 1.6484 5.2227 4.1875 6.2812 2.5352 1.0547 5.457 0.48438 7.4062-1.4531 2.668-2.668 2.668-6.9922 0-9.6602zm-3.9219 5.6016h0.003907c-0.36328 0.36328-0.90625 0.47266-1.3789 0.27734-0.47656-0.19531-0.78125-0.66016-0.77734-1.1719 0.050781-0.40234 0.29297-0.75391 0.64844-0.94922 0.35547-0.19141 0.78125-0.20312 1.1445-0.027344 0.36719 0.17578 0.625 0.51562 0.69531 0.91406 0.070312 0.39844-0.050781 0.80469-0.33203 1.0977z"/>
  <path d="m408.49 260.4c-1.9531 1.957-2.5391 4.8945-1.4805 7.4492 1.0547 2.5508 3.5469 4.2148 6.3086 4.2148 2.7656 0 5.2578-1.6641 6.3125-4.2148 1.0586-2.5547 0.47266-5.4922-1.4805-7.4492-2.668-2.6641-6.9922-2.6641-9.6602 0zm5.6016 5.6016c-0.42578 0.42578-1.0898 0.49609-1.5898 0.16797-0.50391-0.33203-0.70312-0.97266-0.47656-1.5273 0.22656-0.55859 0.81641-0.87891 1.4062-0.76562s1.0195 0.62891 1.0234 1.2305c0.082031 0.35938 0 0.73828-0.22656 1.0352z"/>
  <path d="m620.84 211.65c-10.137-8.1953-23.434-11.363-36.176-8.625-0.84766-0.98438-1.6406-2.0117-2.3789-3.0781-11.406-16.766-29.094-28.215-49.059-31.754-0.078125-0.41406-0.25-0.80859-0.50391-1.1484-24.23-31.375-57.219-54.867-94.797-67.504-37.574-12.641-78.055-13.859-116.32-3.5039-0.51562 0.16016-0.97266 0.46094-1.3164 0.86719-2.4141-3.9766-6.0625-7.0547-10.391-8.7617 3.8906-7.6172 1.0078-18.594-2.8008-24.668h0.003907c-1.8633-3.3516-4.5742-6.1484-7.8633-8.1172-3.2891-1.9648-7.0391-3.0273-10.871-3.082-8.793-0.27344-17.547 1.2539-25.73 4.4805l0.22266-1.5664v-0.003906c1.0547-4.8945 1.1016-9.9531 0.14062-14.867-3.5-12.488-12.098-18.594-26.32-18.621-9.1289 0-22.035 3.6133-28.449 13.832-2.3281 4.1836-3.8672 8.7578-4.5352 13.496l-0.33594 1.707c-0.75391-0.55469-1.5742-1.0273-2.4336-1.3984-9.8008-4.2578-29.262 0.67187-34.328 4.7891-3.6328 2.8672-6.2266 6.8438-7.3789 11.324-1.1523 4.4844-0.80469 9.2188 0.99219 13.484 3.7461 10.18 12.309 17.832 22.848 20.41-0.78516 14.168 2.8008 24.5 12.906 36.262h0.003906c8.1094 9.3945 19.902 14.801 32.312 14.809 1.5234 0.003907 3.0469-0.082031 4.5625-0.25 10.758-0.95703 20.43-6.9336 26.098-16.129 0.96484 0.68359 1.8086 1.5273 2.4922 2.4922 0.75391 0.98047 1.5703 1.9141 2.4336 2.8008 11.004 10.922 35.926 10.109 49.223 2.1562 10.586-6.3281 13.805-22.398 11.453-34.133-0.39844-2.0391-0.98828-4.0352-1.7617-5.9648 0.14844 0.015625 0.29688 0.015625 0.44531 0 36.465-9.8672 75.012-8.9336 110.96 2.6953 35.945 11.625 67.734 33.441 91.512 62.797l-1.5977-0.22266c-37.938-4.2578-61.234 26.348-66.945 34.945-10.359-4.0312-23.688 0.72656-24.305 0.92578v-0.003906c-1.293 0.625-1.9062 2.1289-1.4141 3.4805 0.49219 1.3477 1.9258 2.1094 3.3203 1.7578 0 0 13.746-4.8711 22.094-0.19531l-0.003906-0.003906c1.332 0.74219 3.0117 0.28125 3.7812-1.0352 0.22266-0.39062 22.598-38.668 62.691-34.273 34.664 3.8633 48.047 22.203 54.488 30.996l0.89453 1.1484c-9.5 3.0078-18.359 7.7539-26.125 14-0.96094 1.043-0.99219 2.6406-0.070313 3.7188 0.92188 1.0781 2.5039 1.2969 3.6836 0.51172 6.1992-5 13.156-8.9805 20.609-11.789 15.539-5.6016 29.203-3.9219 40.629 5.1523 0.55078 0.60937 1.3477 0.94531 2.168 0.91406 0.82422-0.03125 1.5938-0.41797 2.1016-1.0664 0.50781-0.64844 0.70703-1.4844 0.54297-2.293-0.16406-0.80469-0.67578-1.5-1.3984-1.8945zm-310.8-74.898c-11.199 6.7461-33.602 7.4766-42.477-1.3438v-0.003906c-0.71484-0.72266-1.3867-1.4922-2.0156-2.293-1.7305-2.4492-4.207-4.2734-7.0547-5.2109-1.3047-0.44922-2.7461 0.125-3.3867 1.3438-4.543 8.7734-13.262 14.605-23.102 15.457-12.09 1.2109-24.02-3.4922-32.031-12.629-9.0156-10.641-12.293-19.602-11.621-32.199 1.5469-0.15234 2.6758-1.5312 2.5195-3.0781-0.15234-1.5469-1.5312-2.6758-3.0781-2.5195h-0.19531c-9.0703 0-18.871-7.5586-22.398-17.277h-0.003906c-1.3672-3.1875-1.6523-6.7344-0.80859-10.102 0.84375-3.3633 2.7734-6.3555 5.4844-8.5195 3.8906-3.1914 21.195-7.1953 28.59-3.9766 1.5703 0.4375 2.6914 1.8203 2.8008 3.4453 0.11719 1.2695 1.0781 2.2969 2.3359 2.5 1.2578 0.20312 2.4961-0.46875 3.0117-1.6328 1.0391-2.8008 1.8086-5.6992 2.293-8.6523 0.59766-4.0352 1.9141-7.9336 3.8945-11.508 5.207-8.3984 16.016-11.199 23.742-11.199 11.871 0 18.145 4.3945 21 14.559 0.70312 4.1836 0.60156 8.4609-0.30859 12.602-0.39844 2.5039-0.66016 5.0273-0.78125 7.5586-0.003906 1.0898 0.625 2.0781 1.6094 2.5391 0.98438 0.46484 2.1445 0.31641 2.9805-0.38281 5.4609-4.7617 19.375-6.5234 26.992-6.3008v0.003906c2.9414 0.007812 5.8242 0.80469 8.3477 2.3086 2.5273 1.5 4.6055 3.6523 6.0156 6.2305 3.668 5.7695 5.8242 16.801 0.98047 21.309-0.75 0.73828-1.0234 1.8359-0.70312 2.8438 0.31641 1.0039 1.1758 1.7461 2.2148 1.9141 10.164 1.5391 13.215 11.648 14 15.934 2.3242 11.508-1.5664 23.938-8.8203 28.281z"/>
  <use x="70" y="602" xlink:href="#w"/>
  <use x="80.273438" y="602" xlink:href="#b"/>
  <use x="87.179688" y="602" xlink:href="#a"/>
  <use x="96.675781" y="602" xlink:href="#d"/>
  <use x="106.121094" y="602" xlink:href="#c"/>
  <use x="112.8125" y="602" xlink:href="#a"/>
  <use x="122.308594" y="602" xlink:href="#l"/>
  <use x="137.203125" y="602" xlink:href="#k"/>
  <use x="147.226562" y="602" xlink:href="#j"/>
  <use x="161.226562" y="602" xlink:href="#i"/>
  <use x="172.941406" y="602" xlink:href="#a"/>
  <use x="182.4375" y="602" xlink:href="#b"/>
  <use x="189.34375" y="602" xlink:href="#h"/>
  <use x="203.929687" y="602" xlink:href="#v"/>
  <use x="208.730469" y="602" xlink:href="#f"/>
  <use x="218.695312" y="602" xlink:href="#a"/>
  <use x="233.066406" y="602" xlink:href="#u"/>
  <use x="243.734375" y="602" xlink:href="#t"/>
  <use x="248.535156" y="602" xlink:href="#d"/>
  <use x="257.980469" y="602" xlink:href="#f"/>
  <use x="267.949219" y="602" xlink:href="#s"/>
  <use x="277.96875" y="602" xlink:href="#g"/>
  <use x="287.9375" y="602" xlink:href="#d"/>
  <use x="297.382812" y="602" xlink:href="#b"/>
  <use x="304.289062" y="602" xlink:href="#c"/>
  <use x="70" y="616" xlink:href="#r"/>
  <use x="76.089844" y="616" xlink:href="#b"/>
  <use x="82.996094" y="616" xlink:href="#e"/>
  <use x="92.613281" y="616" xlink:href="#h"/>
  <use x="112.074219" y="616" xlink:href="#c"/>
  <use x="118.769531" y="616" xlink:href="#q"/>
  <use x="128.734375" y="616" xlink:href="#a"/>
  <use x="143.105469" y="616" xlink:href="#p"/>
  <use x="154.820312" y="616" xlink:href="#e"/>
  <use x="164.4375" y="616" xlink:href="#g"/>
  <use x="174.40625" y="616" xlink:href="#f"/>
  <use x="189.246094" y="616" xlink:href="#o"/>
  <use x="199.507812" y="616" xlink:href="#b"/>
  <use x="206.410156" y="616" xlink:href="#e"/>
  <use x="216.03125" y="616" xlink:href="#n"/>
  <use x="220.828125" y="616" xlink:href="#a"/>
  <use x="230.324219" y="616" xlink:href="#m"/>
  <use x="238.621094" y="616" xlink:href="#c"/>
 </g>
</svg>
