<?xml version="1.0" encoding="UTF-8" standalone="no"?>
<svg
   xmlns:dc="http://purl.org/dc/elements/1.1/"
   xmlns:cc="http://creativecommons.org/ns#"
   xmlns:rdf="http://www.w3.org/1999/02/22-rdf-syntax-ns#"
   xmlns:svg="http://www.w3.org/2000/svg"
   xmlns="http://www.w3.org/2000/svg"
   xmlns:sodipodi="http://sodipodi.sourceforge.net/DTD/sodipodi-0.dtd"
   xmlns:inkscape="http://www.inkscape.org/namespaces/inkscape"
   fill="none"
   height="16"
   viewBox="0 0 20 16"
   width="20"
   version="1.1"
   id="svg4"
   sodipodi:docname="ticket-dark.svg"
   inkscape:version="1.0.1 (3bc2e813f5, 2020-09-07)">
  <metadata
     id="metadata10">
    <rdf:RDF>
      <cc:Work
         rdf:about="">
        <dc:format>image/svg+xml</dc:format>
        <dc:type
           rdf:resource="http://purl.org/dc/dcmitype/StillImage" />
        <dc:title></dc:title>
      </cc:Work>
    </rdf:RDF>
  </metadata>
  <defs
     id="defs8" />
  <sodipodi:namedview
     pagecolor="#ffffff"
     bordercolor="#666666"
     borderopacity="1"
     objecttolerance="10"
     gridtolerance="10"
     guidetolerance="10"
     inkscape:pageopacity="0"
     inkscape:pageshadow="2"
     inkscape:window-width="1920"
     inkscape:window-height="1017"
     id="namedview6"
     showgrid="false"
     inkscape:zoom="52.8125"
     inkscape:cx="10"
     inkscape:cy="8"
     inkscape:window-x="1358"
     inkscape:window-y="-8"
     inkscape:window-maximized="1"
     inkscape:current-layer="svg4"
     inkscape:document-rotation="0"
     fit-margin-top="0"
     fit-margin-left="0"
     fit-margin-right="0"
     fit-margin-bottom="0" />
  <path
     d="m 13,1 v 2 m 0,3.9999999 v 2 M 13,13 v 2 M 3,1 C 1.89543,1 1,1.89543 1,3 v 3 c 1.10457,0 2,0.8953999 2,1.9999999 0,1.1046 -0.89543,2 -2,2 V 13 c 0,1.1046 0.89543,2 2,2 h 14 c 1.1046,0 2,-0.8954 2,-2 V 9.9999999 c -1.1046,0 -2,-0.8954 -2,-2 C 17,6.8953999 17.8954,6 19,6 V 3 C 19,1.89543 18.1046,1 17,1 Z"
     stroke="#4a5568"
     stroke-linecap="round"
     stroke-linejoin="round"
     stroke-width="2"
     id="path2"
     style="fill:none;fill-opacity:1;stroke:#f59100;stroke-opacity:1" />
</svg>
