<?xml version="1.0" encoding="UTF-8" standalone="no"?>
<svg
   xmlns:dc="http://purl.org/dc/elements/1.1/"
   xmlns:cc="http://creativecommons.org/ns#"
   xmlns:rdf="http://www.w3.org/1999/02/22-rdf-syntax-ns#"
   xmlns:svg="http://www.w3.org/2000/svg"
   xmlns="http://www.w3.org/2000/svg"
   xmlns:sodipodi="http://sodipodi.sourceforge.net/DTD/sodipodi-0.dtd"
   xmlns:inkscape="http://www.inkscape.org/namespaces/inkscape"
   enable-background="new 0 0 64 64"
   height="25"
   version="1.1"
   viewBox="0 0 25 25"
   width="25"
   xml:space="preserve"
   id="svg1008"
   sodipodi:docname="calendar.svg"
   inkscape:version="1.0.2 (e86c870879, 2021-01-15)"><metadata
     id="metadata1014"><rdf:RDF><cc:Work
         rdf:about=""><dc:format>image/svg+xml</dc:format><dc:type
           rdf:resource="http://purl.org/dc/dcmitype/StillImage" /><dc:title></dc:title></cc:Work></rdf:RDF></metadata><defs
     id="defs1012" /><sodipodi:namedview
     pagecolor="#ffffff"
     bordercolor="#666666"
     borderopacity="1"
     objecttolerance="10"
     gridtolerance="10"
     guidetolerance="10"
     inkscape:pageopacity="0"
     inkscape:pageshadow="2"
     inkscape:window-width="1680"
     inkscape:window-height="987"
     id="namedview1010"
     showgrid="false"
     fit-margin-top="0"
     fit-margin-left="0"
     fit-margin-right="0"
     fit-margin-bottom="0"
     inkscape:zoom="8.40625"
     inkscape:cx="15.453531"
     inkscape:cy="25.802975"
     inkscape:window-x="-8"
     inkscape:window-y="-8"
     inkscape:window-maximized="1"
     inkscape:current-layer="svg1008" /><circle
     style="opacity:0.996;fill:#ffffff;stroke-width:0.820923;fill-opacity:1"
     id="path1581"
     cx="12.5"
     cy="12.5"
     r="12.5" /><g
     id="Layer_1"
     transform="matrix(0.359375,0,0,0.359375,0.99999927,1.0000009)"><g
       id="g966"><circle
         cx="32"
         cy="32"
         fill="#77b3d4"
         r="32"
         id="circle964" /></g><g
       id="g1004"><g
         opacity="0.2"
         id="g970"><path
           d="m 12,25 v 25 c 0,2.209 1.791,4 4,4 h 32 c 2.209,0 4,-1.791 4,-4 V 25 Z"
           fill="#231f20"
           id="path968" /></g><g
         id="g974"><path
           d="m 12,23 v 25 c 0,2.209 1.791,4 4,4 h 32 c 2.209,0 4,-1.791 4,-4 V 23 Z"
           fill="#ffffff"
           id="path972" /></g><g
         opacity="0.2"
         id="g978"><path
           d="M 48,14 H 16 c -2.209,0 -4,1.791 -4,4 v 7 h 40 v -7 c 0,-2.209 -1.791,-4 -4,-4 z"
           fill="#231f20"
           id="path976" /></g><g
         id="g982"><path
           d="M 48,12 H 16 c -2.209,0 -4,1.791 -4,4 v 7 h 40 v -7 c 0,-2.209 -1.791,-4 -4,-4 z"
           fill="#c75c5c"
           id="path980" /></g><g
         id="g986"><path
           d="m 32,48 c -1.104,0 -2,-0.896 -2,-2 0,-5.515 1.757,-9.455 3.491,-12 H 27 c -1.104,0 -2,-0.896 -2,-2 0,-1.104 0.896,-2 2,-2 h 11 c 0.871,0 1.642,0.563 1.906,1.394 0.264,0.831 -0.039,1.735 -0.75,2.238 C 38.957,33.778 34,37.493 34,46 c 0,1.104 -0.896,2 -2,2 z"
           fill="#4f5d73"
           id="path984" /></g><g
         opacity="0.2"
         id="g990"><path
           d="m 20,21 c -1.105,0 -2,-0.895 -2,-2 v -7 c 0,-1.105 0.895,-2 2,-2 v 0 c 1.105,0 2,0.895 2,2 v 7 c 0,1.105 -0.895,2 -2,2 z"
           fill="#231f20"
           id="path988" /></g><g
         opacity="0.2"
         id="g994"><path
           d="m 45,21 c -1.105,0 -2,-0.895 -2,-2 v -7 c 0,-1.105 0.895,-2 2,-2 v 0 c 1.105,0 2,0.895 2,2 v 7 c 0,1.105 -0.895,2 -2,2 z"
           fill="#231f20"
           id="path992" /></g><g
         id="g998"><path
           d="m 20,19 c -1.105,0 -2,-0.895 -2,-2 v -7 c 0,-1.105 0.895,-2 2,-2 v 0 c 1.105,0 2,0.895 2,2 v 7 c 0,1.105 -0.895,2 -2,2 z"
           fill="#e0e0d1"
           id="path996" /></g><g
         id="g1002"><path
           d="m 45,19 c -1.105,0 -2,-0.895 -2,-2 v -7 c 0,-1.105 0.895,-2 2,-2 v 0 c 1.105,0 2,0.895 2,2 v 7 c 0,1.105 -0.895,2 -2,2 z"
           fill="#e0e0d1"
           id="path1000" /></g></g></g><g
     id="Layer_2"
     transform="translate(-16.546469,-6.1970253)" /></svg>
