<?xml version="1.0" encoding="UTF-8" standalone="no"?>
<svg
   xmlns:dc="http://purl.org/dc/elements/1.1/"
   xmlns:cc="http://creativecommons.org/ns#"
   xmlns:rdf="http://www.w3.org/1999/02/22-rdf-syntax-ns#"
   xmlns:svg="http://www.w3.org/2000/svg"
   xmlns="http://www.w3.org/2000/svg"
   xmlns:sodipodi="http://sodipodi.sourceforge.net/DTD/sodipodi-0.dtd"
   xmlns:inkscape="http://www.inkscape.org/namespaces/inkscape"
   height="384"
   id="Layer_1"
   version="1.1"
   viewBox="0 0 384 384"
   width="384"
   xml:space="preserve"
   sodipodi:docname="customer-light.svg"
   inkscape:version="1.0.1 (3bc2e813f5, 2020-09-07)"><metadata
     id="metadata2564"><rdf:RDF><cc:Work
         rdf:about=""><dc:format>image/svg+xml</dc:format><dc:type
           rdf:resource="http://purl.org/dc/dcmitype/StillImage" /><dc:title></dc:title></cc:Work></rdf:RDF></metadata><defs
     id="defs2562" /><sodipodi:namedview
     pagecolor="#ffffff"
     bordercolor="#666666"
     borderopacity="1"
     objecttolerance="10"
     gridtolerance="10"
     guidetolerance="10"
     inkscape:pageopacity="0"
     inkscape:pageshadow="2"
     inkscape:window-width="1920"
     inkscape:window-height="1017"
     id="namedview2560"
     showgrid="false"
     fit-margin-top="0"
     fit-margin-left="0"
     fit-margin-right="0"
     fit-margin-bottom="0"
     inkscape:zoom="1.6953125"
     inkscape:cx="192"
     inkscape:cy="192"
     inkscape:window-x="1358"
     inkscape:window-y="-8"
     inkscape:window-maximized="1"
     inkscape:current-layer="Layer_1" /><path
     d="m 384,384 c 0,0 0,-26.4 -2.2,-40.2 -1.8,-10.9 -16.9,-25.3 -81.1,-48.9 -63.2,-23.2 -59.3,-11.9 -59.3,-54.6 0,-27.7 14.1,-11.6 23.1,-64.2 3.5,-20.7 6.3,-6.9 13.9,-40.1 4,-17.4 -2.7,-18.7 -1.9,-27 0.8,-8.3 1.6,-15.7 3.1,-32.7 C 281.4,55.3 261.9,0 192,0 c -69.9,0 -89.4,55.3 -87.5,76.4 1.5,16.9 2.3,24.4 3.1,32.7 0.8,8.3 -5.9,9.6 -1.9,27 7.6,33.1 10.4,19.3 13.9,40.1 9,52.6 23.1,36.5 23.1,64.2 0,42.8 3.9,31.5 -59.3,54.6 C 19.2,318.5 4,333 2.3,343.9 0,357.6 0,384 0,384 h 192 z"
     id="path2557"
     style="fill:#426f8a;fill-opacity:1" /></svg>
