<?xml version="1.0" encoding="UTF-8" standalone="no"?>
<svg
   xmlns:dc="http://purl.org/dc/elements/1.1/"
   xmlns:cc="http://creativecommons.org/ns#"
   xmlns:rdf="http://www.w3.org/1999/02/22-rdf-syntax-ns#"
   xmlns:svg="http://www.w3.org/2000/svg"
   xmlns="http://www.w3.org/2000/svg"
   xmlns:sodipodi="http://sodipodi.sourceforge.net/DTD/sodipodi-0.dtd"
   xmlns:inkscape="http://www.inkscape.org/namespaces/inkscape"
   data-name="Layer 2"
   id="f7cf8350-4ed8-479b-a688-7d9fd87804b9"
   viewBox="0 0 25 25"
   version="1.1"
   sodipodi:docname="danger.svg"
   width="25"
   height="25"
   inkscape:version="1.0.2 (e86c870879, 2021-01-15)">
  <metadata
     id="metadata13">
    <rdf:RDF>
      <cc:Work
         rdf:about="">
        <dc:format>image/svg+xml</dc:format>
        <dc:type
           rdf:resource="http://purl.org/dc/dcmitype/StillImage" />
        <dc:title></dc:title>
      </cc:Work>
    </rdf:RDF>
  </metadata>
  <defs
     id="defs11" />
  <sodipodi:namedview
     pagecolor="#ffffff"
     bordercolor="#666666"
     borderopacity="1"
     objecttolerance="10"
     gridtolerance="10"
     guidetolerance="10"
     inkscape:pageopacity="0"
     inkscape:pageshadow="2"
     inkscape:window-width="1366"
     inkscape:window-height="705"
     id="namedview9"
     showgrid="false"
     fit-margin-top="0"
     fit-margin-left="0"
     fit-margin-right="0"
     fit-margin-bottom="0"
     inkscape:zoom="20.6"
     inkscape:cx="12.5"
     inkscape:cy="12.5"
     inkscape:window-x="1672"
     inkscape:window-y="-8"
     inkscape:window-maximized="1"
     inkscape:current-layer="f7cf8350-4ed8-479b-a688-7d9fd87804b9" />
  <ellipse
     cx="12.5"
     cy="20.002874"
     id="circle2"
     style="fill:#ff8080;stroke-width:0.746968"
     rx="1.0647011"
     ry="1.2155603" />
  <path
     d="m 12.482523,16.977142 v 0 a 0.67740996,0.77339327 0 0 1 -0.67741,-0.741468 L 11.56393,10.483512 A 0.93676919,1.0695015 0 0 1 12.5,9.3693153 v 0 a 0.93746827,1.0702997 0 0 1 0.93607,1.1173887 l -0.279633,5.746576 a 0.67740996,0.77339327 0 0 1 -0.673914,0.743862 z"
     id="path4"
     style="fill:#ff8080;stroke-width:0.746968" />
  <path
     d="m 13.229841,1.5140656 v 0 M 12.5,2.9570946 17.56904,12.980878 22.636681,23.004661 H 2.3633184 L 7.4309601,12.980878 12.5,2.9570946 m 0,-2.95310129 a 0.89552338,1.0224115 0 0 0 -0.783671,0.5163937 L 5.9174487,11.983208 0.11856782,23.450021 A 0.90880593,1.0375761 0 0 0 0.90223812,25 H 24.097762 a 0.90880593,1.0375761 0 0 0 0.78367,-1.549979 L 19.082551,11.983208 13.280175,0.51639631 A 0.89552338,1.0224115 0 0 0 12.5,2.6058249e-6 Z"
     id="path6"
     style="fill:#ff8080;stroke-width:0.746968" />
</svg>
