<?xml version="1.0" encoding="UTF-8" standalone="no"?>
<svg
   xmlns:dc="http://purl.org/dc/elements/1.1/"
   xmlns:cc="http://creativecommons.org/ns#"
   xmlns:rdf="http://www.w3.org/1999/02/22-rdf-syntax-ns#"
   xmlns:svg="http://www.w3.org/2000/svg"
   xmlns="http://www.w3.org/2000/svg"
   xmlns:sodipodi="http://sodipodi.sourceforge.net/DTD/sodipodi-0.dtd"
   xmlns:inkscape="http://www.inkscape.org/namespaces/inkscape"
   viewBox="0 0 25 25"
   version="1.1"
   id="svg866"
   sodipodi:docname="in.svg"
   width="25"
   height="25"
   inkscape:version="1.0.1 (3bc2e813f5, 2020-09-07)">
  <metadata
     id="metadata872">
    <rdf:RDF>
      <cc:Work
         rdf:about="">
        <dc:format>image/svg+xml</dc:format>
        <dc:type
           rdf:resource="http://purl.org/dc/dcmitype/StillImage" />
        <dc:title></dc:title>
      </cc:Work>
    </rdf:RDF>
  </metadata>
  <defs
     id="defs870" />
  <sodipodi:namedview
     pagecolor="#ffffff"
     bordercolor="#666666"
     borderopacity="1"
     objecttolerance="10"
     gridtolerance="10"
     guidetolerance="10"
     inkscape:pageopacity="0"
     inkscape:pageshadow="2"
     inkscape:window-width="1920"
     inkscape:window-height="1017"
     id="namedview868"
     showgrid="false"
     fit-margin-top="0"
     fit-margin-left="0"
     fit-margin-right="0"
     fit-margin-bottom="0"
     showborder="false"
     inkscape:zoom="33.08"
     inkscape:cx="12.5"
     inkscape:cy="12.5"
     inkscape:window-x="1272"
     inkscape:window-y="-8"
     inkscape:window-maximized="1"
     inkscape:current-layer="svg866"
     inkscape:document-rotation="0" />
  <path
     d="M 6.9340136,0 H 18.063573 a 1.2071106,1.1109445 0 0 1 1.207112,1.1109442 V 11.249424 h 4.521836 a 1.2071106,1.1109445 0 0 1 0.89648,1.855278 L 13.396079,24.632601 a 1.2071106,1.1109445 0 0 1 -1.793766,0 L 0.31099937,13.104702 A 1.2071106,1.1109445 0 0 1 1.2074805,11.249424 H 5.7269026 V 1.1109442 A 1.2071106,1.1109445 0 0 1 6.9340136,0 Z M 16.856463,2.2218885 H 8.1411236 V 12.360369 a 1.2071106,1.1109445 0 0 1 -1.20711,1.110944 H 3.9210652 l 8.5793378,8.757946 8.578533,-8.757946 h -3.015363 a 1.2071106,1.1109445 0 0 1 -1.20711,-1.110944 z"
     id="path861"
     style="fill:#6dce7d;fill-opacity:1;stroke-width:0.077202" />
</svg>
