<?xml version="1.0" encoding="UTF-8" standalone="no"?>
<svg
   xmlns:dc="http://purl.org/dc/elements/1.1/"
   xmlns:cc="http://creativecommons.org/ns#"
   xmlns:rdf="http://www.w3.org/1999/02/22-rdf-syntax-ns#"
   xmlns:svg="http://www.w3.org/2000/svg"
   xmlns="http://www.w3.org/2000/svg"
   xmlns:sodipodi="http://sodipodi.sourceforge.net/DTD/sodipodi-0.dtd"
   xmlns:inkscape="http://www.inkscape.org/namespaces/inkscape"
   id="Layer_1"
   version="1.1"
   viewBox="0 0 24.994682 24.98024"
   xml:space="preserve"
   sodipodi:docname="isBoarded.svg"
   inkscape:version="1.0.2 (e86c870879, 2021-01-15)"
   width="24.994682"
   height="24.98024"><metadata
     id="metadata14"><rdf:RDF><cc:Work
         rdf:about=""><dc:format>image/svg+xml</dc:format><dc:type
           rdf:resource="http://purl.org/dc/dcmitype/StillImage" /><dc:title></dc:title></cc:Work></rdf:RDF></metadata><defs
     id="defs12" /><sodipodi:namedview
     pagecolor="#ffffff"
     bordercolor="#666666"
     borderopacity="1"
     objecttolerance="10"
     gridtolerance="10"
     guidetolerance="10"
     inkscape:pageopacity="0"
     inkscape:pageshadow="2"
     inkscape:window-width="1366"
     inkscape:window-height="705"
     id="namedview10"
     showgrid="false"
     inkscape:zoom="20.616296"
     inkscape:cx="12.497341"
     inkscape:cy="12.49012"
     inkscape:window-x="-8"
     inkscape:window-y="-8"
     inkscape:window-maximized="1"
     inkscape:current-layer="Layer_1"
     fit-margin-top="0"
     fit-margin-left="0"
     fit-margin-right="0"
     fit-margin-bottom="0" /><style
     type="text/css"
     id="style2">
	.st0{fill:#134563;}
</style><g
     id="g7"
     style="fill:#6dce7d;fill-opacity:1;stroke:#000000;stroke-width:0.1;stroke-miterlimit:4;stroke-dasharray:none;stroke-opacity:1"
     transform="matrix(0.53293565,0,0,0.5326277,-4.5565998,-4.5539668)"><g
       id="Icon-Check"
       transform="translate(328,278)"
       style="fill:#6dce7d;fill-opacity:1;stroke:#000000;stroke-width:0.1;stroke-miterlimit:4;stroke-dasharray:none;stroke-opacity:1"><path
         class="st0"
         d="m -296,-222.6 c -12.9,0 -23.4,-10.5 -23.4,-23.4 0,-12.9 10.5,-23.4 23.4,-23.4 12.9,0 23.4,10.5 23.4,23.4 0,12.9 -10.5,23.4 -23.4,23.4 z m 0,-44.3 c -11.5,0 -20.9,9.4 -20.9,20.9 0,11.5 9.4,20.9 20.9,20.9 11.5,0 20.9,-9.4 20.9,-20.9 0,-11.5 -9.4,-20.9 -20.9,-20.9 z"
         id="Fill-43"
         style="fill:#6dce7d;fill-opacity:1;stroke:#000000;stroke-width:0.1;stroke-miterlimit:4;stroke-dasharray:none;stroke-opacity:1" /><polyline
         class="st0"
         id="Fill-44"
         points="-298.8,-235.9 -310.7,-247.9 -308.9,-249.7 -298.8,-239.5 -283.1,-255.2      -281.3,-253.4 -298.8,-235.9    "
         style="fill:#6dce7d;fill-opacity:1;stroke:#000000;stroke-width:0.1;stroke-miterlimit:4;stroke-dasharray:none;stroke-opacity:1" /></g></g></svg>
