<?xml version="1.0" encoding="UTF-8" standalone="no"?>
<svg
   xmlns:dc="http://purl.org/dc/elements/1.1/"
   xmlns:cc="http://creativecommons.org/ns#"
   xmlns:rdf="http://www.w3.org/1999/02/22-rdf-syntax-ns#"
   xmlns:svg="http://www.w3.org/2000/svg"
   xmlns="http://www.w3.org/2000/svg"
   xmlns:sodipodi="http://sodipodi.sourceforge.net/DTD/sodipodi-0.dtd"
   xmlns:inkscape="http://www.inkscape.org/namespaces/inkscape"
   data-name="Layer 1"
   id="Layer_1"
   viewBox="0 0 25 25"
   version="1.1"
   sodipodi:docname="isBoarded.svg"
   width="25"
   height="25"
   inkscape:version="1.0.1 (3bc2e813f5, 2020-09-07)">
  <metadata
     id="metadata13">
    <rdf:RDF>
      <cc:Work
         rdf:about="">
        <dc:format>image/svg+xml</dc:format>
        <dc:type
           rdf:resource="http://purl.org/dc/dcmitype/StillImage" />
        <dc:title></dc:title>
      </cc:Work>
    </rdf:RDF>
  </metadata>
  <defs
     id="defs11" />
  <sodipodi:namedview
     pagecolor="#ffffff"
     bordercolor="#666666"
     borderopacity="1"
     objecttolerance="10"
     gridtolerance="10"
     guidetolerance="10"
     inkscape:pageopacity="0"
     inkscape:pageshadow="2"
     inkscape:window-width="1920"
     inkscape:window-height="1017"
     id="namedview9"
     showgrid="false"
     fit-margin-top="0"
     fit-margin-left="0"
     fit-margin-right="0"
     fit-margin-bottom="0"
     showborder="false"
     inkscape:zoom="11.803244"
     inkscape:cx="26"
     inkscape:cy="26"
     inkscape:window-x="1912"
     inkscape:window-y="-8"
     inkscape:window-maximized="1"
     inkscape:current-layer="Layer_1" />
  <path
     d="M 12.5,25 A 12.5,12.5 0 1 1 25,12.5 12.5,12.5 0 0 1 12.5,25 Z m 0,-23.0769231 A 10.576923,10.576923 0 1 0 23.076923,12.5 10.576923,10.576923 0 0 0 12.5,1.9230769 Z"
     id="path2"
     style="fill:#6dce7d;fill-opacity:1;stroke-width:0.480769" />
  <path
     d="M 11.057692,18.076923 A 0.96153846,0.96153846 0 0 1 10.379808,17.788462 L 5.9567308,13.370192 A 0.96153846,0.96153846 0 0 1 7.3173077,12.019231 L 11.735577,16.4375 a 0.96153846,0.96153846 0 0 1 -0.677885,1.639423 z"
     id="path4"
     style="fill:#6dce7d;fill-opacity:1;stroke-width:0.480769" />
  <path
     d="m 11.057692,18.076923 a 0.96153846,0.96153846 0 0 1 -0.677884,-1.644231 l 7.302884,-7.2980766 a 0.96207317,0.96207317 0 0 1 1.360577,1.3605766 l -7.307692,7.29327 a 0.96153846,0.96153846 0 0 1 -0.677885,0.288461 z"
     id="path6"
     style="fill:#6dce7d;fill-opacity:1;stroke-width:0.480769" />
</svg>
