<?xml version="1.0" encoding="UTF-8" standalone="no"?>
<svg
   xmlns:dc="http://purl.org/dc/elements/1.1/"
   xmlns:cc="http://creativecommons.org/ns#"
   xmlns:rdf="http://www.w3.org/1999/02/22-rdf-syntax-ns#"
   xmlns:svg="http://www.w3.org/2000/svg"
   xmlns="http://www.w3.org/2000/svg"
   xmlns:sodipodi="http://sodipodi.sourceforge.net/DTD/sodipodi-0.dtd"
   xmlns:inkscape="http://www.inkscape.org/namespaces/inkscape"
   data-name="Layer 1"
   id="Layer_1"
   viewBox="0 0 25 24.999959"
   version="1.1"
   sodipodi:docname="isNotBoarded.svg"
   width="25"
   height="24.99996"
   inkscape:version="1.0.1 (3bc2e813f5, 2020-09-07)">
  <metadata
     id="metadata862">
    <rdf:RDF>
      <cc:Work
         rdf:about="">
        <dc:format>image/svg+xml</dc:format>
        <dc:type
           rdf:resource="http://purl.org/dc/dcmitype/StillImage" />
        <dc:title></dc:title>
      </cc:Work>
    </rdf:RDF>
  </metadata>
  <defs
     id="defs860" />
  <sodipodi:namedview
     pagecolor="#ffffff"
     bordercolor="#666666"
     borderopacity="1"
     objecttolerance="10"
     gridtolerance="10"
     guidetolerance="10"
     inkscape:pageopacity="0"
     inkscape:pageshadow="2"
     inkscape:window-width="1920"
     inkscape:window-height="1017"
     id="namedview858"
     showgrid="false"
     fit-margin-top="0"
     fit-margin-left="0"
     fit-margin-right="0"
     fit-margin-bottom="0"
     showborder="false"
     inkscape:zoom="8.3477589"
     inkscape:cx="26.001114"
     inkscape:cy="25.997133"
     inkscape:window-x="1912"
     inkscape:window-y="-8"
     inkscape:window-maximized="1"
     inkscape:current-layer="Layer_1" />
  <path
     d="M 23.023587,24.999953 H 1.9764124 A 1.9710694,1.9710694 0 0 1 0.21206493,22.139499 L 10.735652,1.0923246 a 1.9710694,1.9710694 0 0 1 3.528695,0 L 24.787935,22.139499 a 1.9710694,1.9710694 0 0 1 -1.764348,2.860454 z M 12.5,1.9240198 a 0.04807486,0.04807486 0 0 0 -0.04808,0.028845 L 1.9235301,23.000039 c 0,0 0,0 0,0.04807 a 0.04326738,0.04326738 0 0 0 0.043267,0.02404 H 23.023587 a 0.04326738,0.04326738 0 0 0 0.04327,-0.02404 c 0,0 0,-0.03846 0,-0.04807 L 12.548075,1.9528647 a 0.04807486,0.04807486 0 0 0 -0.04807,-0.028845 z"
     id="path851"
     style="fill:#ff9090;fill-opacity:1;stroke-width:0.480749" />
  <polygon
     points="29.16,21.29 28.85,33.55 23.16,33.55 22.84,21.29 "
     id="polygon853"
     style="fill:#ff9090;fill-opacity:1"
     transform="matrix(0.48074863,0,0,0.48074863,5.355348e-4,0.00102522)" />
  <rect
     height="3.0383315"
     rx="1.4422458"
     width="3.0383315"
     x="10.980834"
     y="17.447393"
     id="rect855"
     style="fill:#ff9090;fill-opacity:1;stroke-width:0.480749" />
</svg>
