<?xml version="1.0" encoding="UTF-8" standalone="no"?>
<svg
   xmlns:dc="http://purl.org/dc/elements/1.1/"
   xmlns:cc="http://creativecommons.org/ns#"
   xmlns:rdf="http://www.w3.org/1999/02/22-rdf-syntax-ns#"
   xmlns:svg="http://www.w3.org/2000/svg"
   xmlns="http://www.w3.org/2000/svg"
   xmlns:sodipodi="http://sodipodi.sourceforge.net/DTD/sodipodi-0.dtd"
   xmlns:inkscape="http://www.inkscape.org/namespaces/inkscape"
   id="Layer_1"
   version="1.1"
   viewBox="0 0 25.052999 25.053001"
   xml:space="preserve"
   sodipodi:docname="isNotBoarded.svg"
   width="25.052999"
   height="25.053001"
   inkscape:version="1.0.2 (e86c870879, 2021-01-15)"><metadata
     id="metadata851"><rdf:RDF><cc:Work
         rdf:about=""><dc:format>image/svg+xml</dc:format><dc:type
           rdf:resource="http://purl.org/dc/dcmitype/StillImage" /><dc:title /></cc:Work></rdf:RDF></metadata><defs
     id="defs849" /><sodipodi:namedview
     pagecolor="#ffffff"
     bordercolor="#666666"
     borderopacity="1"
     objecttolerance="10"
     gridtolerance="10"
     guidetolerance="10"
     inkscape:pageopacity="0"
     inkscape:pageshadow="2"
     inkscape:window-width="1366"
     inkscape:window-height="705"
     id="namedview847"
     showgrid="false"
     fit-margin-top="0"
     fit-margin-left="0"
     fit-margin-right="0"
     fit-margin-bottom="0"
     inkscape:zoom="20.6"
     inkscape:cx="11.458539"
     inkscape:cy="12.5265"
     inkscape:window-x="1672"
     inkscape:window-y="-8"
     inkscape:window-maximized="1"
     inkscape:current-layer="Layer_1"
     inkscape:document-rotation="0" /><style
     type="text/css"
     id="style839">
	.st0{fill:#134563;}
</style><g
     id="g844"
     transform="matrix(0.54584292,0,0,0.54585153,-4.8860865,-4.9407487)"
     style="fill:#ff8080;stroke:#000000;stroke-width:0.0970968;stroke-miterlimit:4;stroke-dasharray:none;stroke-opacity:1;fill-opacity:1"><g
       id="Icon-Clock"
       transform="translate(378,428)"
       style="fill:#ff8080;stroke:#000000;stroke-width:0.0970968;stroke-miterlimit:4;stroke-dasharray:none;stroke-opacity:1;fill-opacity:1"><path
         class="st0"
         d="m -346.1,-373.1 c -12.6,0 -22.9,-10.3 -22.9,-22.9 0,-12.6 10.3,-22.9 22.9,-22.9 12.6,0 22.9,10.3 22.9,22.9 0.1,12.6 -10.2,22.9 -22.9,22.9 z m 0,-43.4 c -11.3,0 -20.4,9.2 -20.4,20.4 0,11.2 9.2,20.4 20.4,20.4 11.2,0 20.4,-9.2 20.4,-20.4 0,-11.2 -9.1,-20.4 -20.4,-20.4 z"
         id="Fill-131"
         style="fill:#ff8080;stroke:#000000;stroke-width:0.0970968;stroke-miterlimit:4;stroke-dasharray:none;stroke-opacity:1;fill-opacity:1" /><polyline
         class="st0"
         id="Fill-132"
         points="-338.9,-384.3 -347.4,-392.8 -347.4,-408.3 -344.7,-408.3 -344.7,-393.9      -337,-386.2 -338.9,-384.3    "
         style="fill:#ff8080;stroke:#000000;stroke-width:0.0970968;stroke-miterlimit:4;stroke-dasharray:none;stroke-opacity:1;fill-opacity:1" /></g></g></svg>
