<?xml version="1.0" encoding="UTF-8" standalone="no"?>
<svg
   xmlns:dc="http://purl.org/dc/elements/1.1/"
   xmlns:cc="http://creativecommons.org/ns#"
   xmlns:rdf="http://www.w3.org/1999/02/22-rdf-syntax-ns#"
   xmlns:svg="http://www.w3.org/2000/svg"
   xmlns="http://www.w3.org/2000/svg"
   xmlns:sodipodi="http://sodipodi.sourceforge.net/DTD/sodipodi-0.dtd"
   xmlns:inkscape="http://www.inkscape.org/namespaces/inkscape"
   viewBox="0 0 24.999998 25"
   version="1.1"
   id="svg866"
   sodipodi:docname="out.svg"
   width="24.999998"
   height="25"
   inkscape:version="1.0.1 (3bc2e813f5, 2020-09-07)">
  <metadata
     id="metadata872">
    <rdf:RDF>
      <cc:Work
         rdf:about="">
        <dc:format>image/svg+xml</dc:format>
        <dc:type
           rdf:resource="http://purl.org/dc/dcmitype/StillImage" />
        <dc:title></dc:title>
      </cc:Work>
    </rdf:RDF>
  </metadata>
  <defs
     id="defs870" />
  <sodipodi:namedview
     pagecolor="#ffffff"
     bordercolor="#666666"
     borderopacity="1"
     objecttolerance="10"
     gridtolerance="10"
     guidetolerance="10"
     inkscape:pageopacity="0"
     inkscape:pageshadow="2"
     inkscape:window-width="1920"
     inkscape:window-height="1017"
     id="namedview868"
     showgrid="false"
     fit-margin-top="0"
     fit-margin-left="0"
     fit-margin-right="0"
     fit-margin-bottom="0"
     showborder="false"
     inkscape:zoom="33.08"
     inkscape:cx="12.499999"
     inkscape:cy="12.5"
     inkscape:window-x="1272"
     inkscape:window-y="-8"
     inkscape:window-maximized="1"
     inkscape:current-layer="g895" />
  <g
     id="g895"
     transform="translate(-4.5448165)">
    <path
       d="m 22.610803,25 h -11.12956 a 1.2071105,1.1109445 0 0 1 -1.20711,-1.110944 V 13.750576 H 5.752296 A 1.2071105,1.1109445 0 0 1 4.8558158,11.895298 L 16.148737,0.36739863 a 1.2071105,1.1109445 0 0 1 1.793766,0 L 29.233816,11.895298 a 1.2071105,1.1109445 0 0 1 -0.896481,1.855278 h -4.519422 v 10.13848 A 1.2071105,1.1109445 0 0 1 22.610803,25 Z m -9.922449,-2.221889 h 8.715338 V 12.639632 a 1.2071105,1.1109445 0 0 1 1.207111,-1.110945 h 3.012948 L 17.044413,2.7707405 8.4658806,11.528687 h 3.0153624 a 1.2071105,1.1109445 0 0 1 1.207111,1.110945 z"
       id="path861"
       style="fill:#ff8080;fill-opacity:1;stroke-width:0.0772019" />
  </g>
</svg>
