<?xml version="1.0" encoding="UTF-8" standalone="no"?>
<svg
   xmlns:dc="http://purl.org/dc/elements/1.1/"
   xmlns:cc="http://creativecommons.org/ns#"
   xmlns:rdf="http://www.w3.org/1999/02/22-rdf-syntax-ns#"
   xmlns:svg="http://www.w3.org/2000/svg"
   xmlns="http://www.w3.org/2000/svg"
   xmlns:sodipodi="http://sodipodi.sourceforge.net/DTD/sodipodi-0.dtd"
   xmlns:inkscape="http://www.inkscape.org/namespaces/inkscape"
   height="17.147322"
   id="Layer_1"
   version="1.1"
   viewBox="0 0 20.000002 17.147322"
   width="20.000002"
   xml:space="preserve"
   sodipodi:docname="persons-dark.svg"
   inkscape:version="1.0.1 (3bc2e813f5, 2020-09-07)"><metadata
     id="metadata13"><rdf:RDF><cc:Work
         rdf:about=""><dc:format>image/svg+xml</dc:format><dc:type
           rdf:resource="http://purl.org/dc/dcmitype/StillImage" /><dc:title></dc:title></cc:Work></rdf:RDF></metadata><defs
     id="defs11" /><sodipodi:namedview
     pagecolor="#ffffff"
     bordercolor="#666666"
     borderopacity="1"
     objecttolerance="10"
     gridtolerance="10"
     guidetolerance="10"
     inkscape:pageopacity="0"
     inkscape:pageshadow="2"
     inkscape:window-width="1920"
     inkscape:window-height="1017"
     id="namedview9"
     showgrid="false"
     fit-margin-top="0"
     fit-margin-left="0"
     fit-margin-right="0"
     fit-margin-bottom="0"
     inkscape:zoom="49.27883"
     inkscape:cx="10.000001"
     inkscape:cy="8.5736613"
     inkscape:window-x="1358"
     inkscape:window-y="-8"
     inkscape:window-maximized="1"
     inkscape:current-layer="Layer_1"
     inkscape:document-rotation="0" /><g
     id="g6"
     transform="matrix(0.04464286,0,0,0.04464286,-1.4285715,-2.8526788)"
     style="fill:#f59100;fill-opacity:1"><path
       d="m 425.3,324.8 c -41.4,-15.7 -38.9,-9.4 -38.9,-38.5 0,-18.8 9.3,-11.9 15.2,-47.7 2.3,-14.1 4.2,-4.7 9.1,-27.3 2.6,-11.8 -1.8,-12.7 -1.2,-18.3 0.5,-5.6 1,-10.7 2,-22.2 1.2,-14.4 -11.6,-52 -57.4,-52 -45.8,0 -58.6,37.6 -57.4,52 0.9,11.6 1.5,16.6 2,22.2 0.5,5.6 -3.8,6.5 -1.2,18.3 4.9,22.6 6.8,13.1 9.1,27.3 5.9,35.8 15.1,29 15.1,47.7 0,13.4 3.1,19 -14.9,27.5 5.4,1.9 11.7,4.2 19.3,7.1 54.4,20.7 53.1,40.8 54.5,50.3 1,6.5 1.5,58.3 1.7,76.8 H 480 c 0,0 0,-80.5 -1.5,-89.9 -1.1,-7.4 -11,-17.2 -53.2,-33.3 z"
       id="path2"
       style="fill:#f59100;fill-opacity:1" /><path
       d="m 357,448 c 0,0 0,-14.1 -0.2,-30.4 -0.2,-18.6 -0.7,-40 -1.7,-46.4 -1.5,-9.5 -14.3,-22.2 -68.6,-42.9 -7.5,-2.8 -13.8,-5.1 -19.3,-7.1 -33.3,-11.8 -30.9,-15.7 -30.9,-48 0,-24.3 12,-8.5 19.6,-54.6 3,-18.2 5.4,-6.1 11.7,-35.2 3.4,-15.2 -2.3,-16.4 -1.6,-23.7 0.7,-7.3 1.4,-13.8 2.6,-28.7 1.6,-18.5 -14.9,-67.1 -74.1,-67.1 -59.2,0 -75.6,48.5 -74.1,67.1 1.2,14.9 1.9,21.4 2.7,28.7 0.7,7.3 -5,8.4 -1.6,23.7 6.4,29.1 8.8,17 11.8,35.2 7.6,46.1 19.5,30.3 19.5,54.6 0,37.6 3.3,34.8 -50.2,55.1 C 48.3,349 35.5,361.7 34,371.2 32,383.3 32,448 32,448 h 162.5 z"
       id="path4"
       style="fill:#f59100;fill-opacity:1" /></g></svg>
