<?xml version="1.0" encoding="UTF-8" standalone="no"?>
<!-- Generator: Adobe Illustrator 19.0.0, SVG Export Plug-In . SVG Version: 6.00 Build 0)  -->

<svg
   version="1.1"
   id="Layer_1"
   x="0px"
   y="0px"
   viewBox="0 0 24 24"
   xml:space="preserve"
   sodipodi:docname="availabilities.svg"
   width="24"
   height="24"
   inkscape:version="1.2.1 (9c6d41e410, 2022-07-14)"
   xmlns:inkscape="http://www.inkscape.org/namespaces/inkscape"
   xmlns:sodipodi="http://sodipodi.sourceforge.net/DTD/sodipodi-0.dtd"
   xmlns="http://www.w3.org/2000/svg"
   xmlns:svg="http://www.w3.org/2000/svg"><defs
   id="defs153" /><sodipodi:namedview
   id="namedview151"
   pagecolor="#ffffff"
   bordercolor="#000000"
   borderopacity="0.25"
   inkscape:showpageshadow="2"
   inkscape:pageopacity="0.0"
   inkscape:pagecheckerboard="true"
   inkscape:deskcolor="#d1d1d1"
   showgrid="false"
   inkscape:zoom="33.916667"
   inkscape:cx="11.985258"
   inkscape:cy="12"
   inkscape:window-width="1920"
   inkscape:window-height="1017"
   inkscape:window-x="-8"
   inkscape:window-y="-8"
   inkscape:window-maximized="1"
   inkscape:current-layer="Layer_1" />
<path
   style="fill:#eff2fa;stroke-width:0.0509984"
   d="M 22.758565,24 H 1.2413882 C 0.78431097,24 0.41381169,23.561449 0.41381169,23.020418 V 4.4081451 H 23.586188 V 23.020363 C 23.586141,23.561449 23.215642,24 22.758565,24 Z"
   id="path2" />
<rect
   x="0.41381168"
   y="4.408145"
   style="fill:#d7deed;stroke-width:0.0509984"
   width="23.172377"
   height="1.9591633"
   id="rect4" />
<path
   style="fill:#ff6464;stroke-width:0.0509984"
   d="M 23.586141,5.3877823 H 0.41381169 C 0.18529651,5.3877823 0,5.1684514 0,4.8979637 V 1.9591633 C 0,1.6886756 0.18529651,1.4693447 0.41381169,1.4693447 H 23.586188 C 23.814703,1.4693447 24,1.6886756 24,1.9591633 v 2.9388004 c -4.7e-5,0.2704877 -0.185343,0.4898186 -0.413859,0.4898186 z"
   id="path6" />
<path
   style="fill:#d2555a;stroke-width:0.0509984"
   d="M 23.586141,5.3877823 H 0.41381169 C 0.18529651,5.3877823 0,5.1684514 0,4.8979637 v 0 C 0,4.627476 0.18529651,4.4081451 0.41381169,4.4081451 H 23.586188 C 23.814703,4.4081451 24,4.627476 24,4.8979637 v 0 c -4.7e-5,0.2704877 -0.185343,0.4898186 -0.413859,0.4898186 z"
   id="path8" />
<g
   id="g32"
   transform="matrix(0.04687491,0,0,0.05548466,0,-2.2040726)">
	<path
   style="fill:#c7cfe2"
   d="m 432.552,92.69 c -4.875,0 -8.828,-3.948 -8.828,-8.828 v -35.31 c 0,-4.879 3.953,-8.828 8.828,-8.828 4.875,0 8.828,3.948 8.828,8.828 v 35.31 c -10e-4,4.88 -3.953,8.828 -8.828,8.828 z"
   id="path10" />
	<path
   style="fill:#c7cfe2"
   d="m 476.69,92.69 c -4.875,0 -8.828,-3.948 -8.828,-8.828 v -35.31 c 0,-4.879 3.953,-8.828 8.828,-8.828 4.875,0 8.828,3.948 8.828,8.828 v 35.31 c -10e-4,4.88 -3.953,8.828 -8.828,8.828 z"
   id="path12" />
	<path
   style="fill:#c7cfe2"
   d="m 35.31,92.69 c -4.875,0 -8.828,-3.948 -8.828,-8.828 v -35.31 c 0,-4.879 3.953,-8.828 8.828,-8.828 4.875,0 8.828,3.948 8.828,8.828 v 35.31 c 0,4.88 -3.953,8.828 -8.828,8.828 z"
   id="path14" />
	<path
   style="fill:#c7cfe2"
   d="m 388.414,92.69 c -4.875,0 -8.828,-3.948 -8.828,-8.828 v -35.31 c 0,-4.879 3.953,-8.828 8.828,-8.828 4.875,0 8.828,3.948 8.828,8.828 v 35.31 c -0.001,4.88 -3.953,8.828 -8.828,8.828 z"
   id="path16" />
	<path
   style="fill:#c7cfe2"
   d="m 344.276,92.69 c -4.875,0 -8.828,-3.948 -8.828,-8.828 v -35.31 c 0,-4.879 3.953,-8.828 8.828,-8.828 4.875,0 8.828,3.948 8.828,8.828 v 35.31 c -10e-4,4.88 -3.953,8.828 -8.828,8.828 z"
   id="path18" />
	<path
   style="fill:#c7cfe2"
   d="m 300.138,92.69 c -4.875,0 -8.828,-3.948 -8.828,-8.828 v -35.31 c 0,-4.879 3.953,-8.828 8.828,-8.828 4.875,0 8.828,3.948 8.828,8.828 v 35.31 c 0,4.88 -3.953,8.828 -8.828,8.828 z"
   id="path20" />
	<path
   style="fill:#c7cfe2"
   d="m 256,92.69 c -4.875,0 -8.828,-3.948 -8.828,-8.828 v -35.31 c 0,-4.879 3.953,-8.828 8.828,-8.828 4.875,0 8.828,3.948 8.828,8.828 v 35.31 c 0,4.88 -3.953,8.828 -8.828,8.828 z"
   id="path22" />
	<path
   style="fill:#c7cfe2"
   d="m 211.862,92.69 c -4.875,0 -8.828,-3.948 -8.828,-8.828 v -35.31 c 0,-4.879 3.953,-8.828 8.828,-8.828 4.875,0 8.828,3.948 8.828,8.828 v 35.31 c 0,4.88 -3.953,8.828 -8.828,8.828 z"
   id="path24" />
	<path
   style="fill:#c7cfe2"
   d="m 167.724,92.69 c -4.875,0 -8.828,-3.948 -8.828,-8.828 v -35.31 c 0,-4.879 3.953,-8.828 8.828,-8.828 4.875,0 8.828,3.948 8.828,8.828 v 35.31 c 0,4.88 -3.953,8.828 -8.828,8.828 z"
   id="path26" />
	<path
   style="fill:#c7cfe2"
   d="m 123.586,92.69 c -4.875,0 -8.828,-3.948 -8.828,-8.828 v -35.31 c 0,-4.879 3.953,-8.828 8.828,-8.828 4.875,0 8.828,3.948 8.828,8.828 v 35.31 c 0,4.88 -3.953,8.828 -8.828,8.828 z"
   id="path28" />
	<path
   style="fill:#c7cfe2"
   d="m 79.448,92.69 c -4.875,0 -8.828,-3.948 -8.828,-8.828 v -35.31 c 0,-4.879 3.953,-8.828 8.828,-8.828 4.875,0 8.828,3.948 8.828,8.828 v 35.31 c 0,4.88 -3.953,8.828 -8.828,8.828 z"
   id="path30" />
</g>
<g
   id="g82"
   transform="matrix(0.04687491,0,0,0.05548466,0,-2.2040726)">
	<path
   style="fill:#d7deed"
   d="m 97.103,260.414 h -35.31 c -4.875,0 -8.828,-3.953 -8.828,-8.828 v -17.655 c 0,-4.875 3.953,-8.828 8.828,-8.828 h 35.31 c 4.875,0 8.828,3.953 8.828,8.828 v 17.655 c 0,4.875 -3.953,8.828 -8.828,8.828 z"
   id="path34" />
	<path
   style="fill:#d7deed"
   d="m 97.103,366.345 h -35.31 c -4.875,0 -8.828,-3.953 -8.828,-8.828 v -17.655 c 0,-4.875 3.953,-8.828 8.828,-8.828 h 35.31 c 4.875,0 8.828,3.953 8.828,8.828 v 17.655 c 0,4.875 -3.953,8.828 -8.828,8.828 z"
   id="path36" />
	<path
   style="fill:#d7deed"
   d="m 97.103,313.379 h -35.31 c -4.875,0 -8.828,-3.953 -8.828,-8.828 v -17.655 c 0,-4.875 3.953,-8.828 8.828,-8.828 h 35.31 c 4.875,0 8.828,3.953 8.828,8.828 v 17.655 c 0,4.876 -3.953,8.828 -8.828,8.828 z"
   id="path38" />
	<path
   style="fill:#d7deed"
   d="m 97.103,419.31 h -35.31 c -4.875,0 -8.828,-3.953 -8.828,-8.828 v -17.655 c 0,-4.875 3.953,-8.828 8.828,-8.828 h 35.31 c 4.875,0 8.828,3.953 8.828,8.828 v 17.655 c 0,4.876 -3.953,8.828 -8.828,8.828 z"
   id="path40" />
	<path
   style="fill:#d7deed"
   d="m 167.724,260.414 h -35.31 c -4.875,0 -8.828,-3.953 -8.828,-8.828 v -17.655 c 0,-4.875 3.953,-8.828 8.828,-8.828 h 35.31 c 4.875,0 8.828,3.953 8.828,8.828 v 17.655 c 0,4.875 -3.953,8.828 -8.828,8.828 z"
   id="path42" />
	<path
   style="fill:#d7deed"
   d="m 167.724,366.345 h -35.31 c -4.875,0 -8.828,-3.953 -8.828,-8.828 v -17.655 c 0,-4.875 3.953,-8.828 8.828,-8.828 h 35.31 c 4.875,0 8.828,3.953 8.828,8.828 v 17.655 c 0,4.875 -3.953,8.828 -8.828,8.828 z"
   id="path44" />
	<path
   style="fill:#d7deed"
   d="m 167.724,419.31 h -35.31 c -4.875,0 -8.828,-3.953 -8.828,-8.828 v -17.655 c 0,-4.875 3.953,-8.828 8.828,-8.828 h 35.31 c 4.875,0 8.828,3.953 8.828,8.828 v 17.655 c 0,4.876 -3.953,8.828 -8.828,8.828 z"
   id="path46" />
	<path
   style="fill:#d7deed"
   d="m 167.724,313.379 h -35.31 c -4.875,0 -8.828,-3.953 -8.828,-8.828 v -17.655 c 0,-4.875 3.953,-8.828 8.828,-8.828 h 35.31 c 4.875,0 8.828,3.953 8.828,8.828 v 17.655 c 0,4.876 -3.953,8.828 -8.828,8.828 z"
   id="path48" />
	<path
   style="fill:#d7deed"
   d="m 238.345,260.414 h -35.31 c -4.875,0 -8.828,-3.953 -8.828,-8.828 v -17.655 c 0,-4.875 3.953,-8.828 8.828,-8.828 h 35.31 c 4.875,0 8.828,3.953 8.828,8.828 v 17.655 c -0.001,4.875 -3.953,8.828 -8.828,8.828 z"
   id="path50" />
	<path
   style="fill:#d7deed"
   d="m 238.345,313.379 h -35.31 c -4.875,0 -8.828,-3.953 -8.828,-8.828 v -17.655 c 0,-4.875 3.953,-8.828 8.828,-8.828 h 35.31 c 4.875,0 8.828,3.953 8.828,8.828 v 17.655 c -0.001,4.876 -3.953,8.828 -8.828,8.828 z"
   id="path52" />
	<path
   style="fill:#d7deed"
   d="m 308.966,260.414 h -35.31 c -4.875,0 -8.828,-3.953 -8.828,-8.828 v -17.655 c 0,-4.875 3.953,-8.828 8.828,-8.828 h 35.31 c 4.875,0 8.828,3.953 8.828,8.828 v 17.655 c -10e-4,4.875 -3.953,8.828 -8.828,8.828 z"
   id="path54" />
	<path
   style="fill:#d7deed"
   d="m 308.966,313.379 h -35.31 c -4.875,0 -8.828,-3.953 -8.828,-8.828 v -17.655 c 0,-4.875 3.953,-8.828 8.828,-8.828 h 35.31 c 4.875,0 8.828,3.953 8.828,8.828 v 17.655 c -10e-4,4.876 -3.953,8.828 -8.828,8.828 z"
   id="path56" />
	<path
   style="fill:#d7deed"
   d="m 238.345,366.345 h -35.31 c -4.875,0 -8.828,-3.953 -8.828,-8.828 v -17.655 c 0,-4.875 3.953,-8.828 8.828,-8.828 h 35.31 c 4.875,0 8.828,3.953 8.828,8.828 v 17.655 c -0.001,4.875 -3.953,8.828 -8.828,8.828 z"
   id="path58" />
	<path
   style="fill:#d7deed"
   d="m 308.966,366.345 h -35.31 c -4.875,0 -8.828,-3.953 -8.828,-8.828 v -17.655 c 0,-4.875 3.953,-8.828 8.828,-8.828 h 35.31 c 4.875,0 8.828,3.953 8.828,8.828 v 17.655 c -10e-4,4.875 -3.953,8.828 -8.828,8.828 z"
   id="path60" />
	<path
   style="fill:#d7deed"
   d="m 238.345,419.31 h -35.31 c -4.875,0 -8.828,-3.953 -8.828,-8.828 v -17.655 c 0,-4.875 3.953,-8.828 8.828,-8.828 h 35.31 c 4.875,0 8.828,3.953 8.828,8.828 v 17.655 c -0.001,4.876 -3.953,8.828 -8.828,8.828 z"
   id="path62" />
	<path
   style="fill:#d7deed"
   d="m 308.966,419.31 h -35.31 c -4.875,0 -8.828,-3.953 -8.828,-8.828 v -17.655 c 0,-4.875 3.953,-8.828 8.828,-8.828 h 35.31 c 4.875,0 8.828,3.953 8.828,8.828 v 17.655 c -10e-4,4.876 -3.953,8.828 -8.828,8.828 z"
   id="path64" />
	<path
   style="fill:#d7deed"
   d="m 379.586,260.414 h -35.31 c -4.875,0 -8.828,-3.953 -8.828,-8.828 v -17.655 c 0,-4.875 3.953,-8.828 8.828,-8.828 h 35.31 c 4.875,0 8.828,3.953 8.828,8.828 v 17.655 c 0,4.875 -3.953,8.828 -8.828,8.828 z"
   id="path66" />
	<path
   style="fill:#d7deed"
   d="m 379.586,366.345 h -35.31 c -4.875,0 -8.828,-3.953 -8.828,-8.828 v -17.655 c 0,-4.875 3.953,-8.828 8.828,-8.828 h 35.31 c 4.875,0 8.828,3.953 8.828,8.828 v 17.655 c 0,4.875 -3.953,8.828 -8.828,8.828 z"
   id="path68" />
	<path
   style="fill:#d7deed"
   d="m 379.586,419.31 h -35.31 c -4.875,0 -8.828,-3.953 -8.828,-8.828 v -17.655 c 0,-4.875 3.953,-8.828 8.828,-8.828 h 35.31 c 4.875,0 8.828,3.953 8.828,8.828 v 17.655 c 0,4.876 -3.953,8.828 -8.828,8.828 z"
   id="path70" />
	<path
   style="fill:#d7deed"
   d="m 379.586,313.379 h -35.31 c -4.875,0 -8.828,-3.953 -8.828,-8.828 v -17.655 c 0,-4.875 3.953,-8.828 8.828,-8.828 h 35.31 c 4.875,0 8.828,3.953 8.828,8.828 v 17.655 c 0,4.876 -3.953,8.828 -8.828,8.828 z"
   id="path72" />
	<path
   style="fill:#d7deed"
   d="m 450.207,260.414 h -35.31 c -4.875,0 -8.828,-3.953 -8.828,-8.828 v -17.655 c 0,-4.875 3.953,-8.828 8.828,-8.828 h 35.31 c 4.875,0 8.828,3.953 8.828,8.828 v 17.655 c -0.001,4.875 -3.953,8.828 -8.828,8.828 z"
   id="path74" />
	<path
   style="fill:#d7deed"
   d="m 450.207,366.345 h -35.31 c -4.875,0 -8.828,-3.953 -8.828,-8.828 v -17.655 c 0,-4.875 3.953,-8.828 8.828,-8.828 h 35.31 c 4.875,0 8.828,3.953 8.828,8.828 v 17.655 c -0.001,4.875 -3.953,8.828 -8.828,8.828 z"
   id="path76" />
	<path
   style="fill:#d7deed"
   d="m 450.207,313.379 h -35.31 c -4.875,0 -8.828,-3.953 -8.828,-8.828 v -17.655 c 0,-4.875 3.953,-8.828 8.828,-8.828 h 35.31 c 4.875,0 8.828,3.953 8.828,8.828 v 17.655 c -0.001,4.876 -3.953,8.828 -8.828,8.828 z"
   id="path78" />
	<path
   style="fill:#d7deed"
   d="m 450.207,419.31 h -35.31 c -4.875,0 -8.828,-3.953 -8.828,-8.828 v -17.655 c 0,-4.875 3.953,-8.828 8.828,-8.828 h 35.31 c 4.875,0 8.828,3.953 8.828,8.828 v 17.655 c -0.001,4.876 -3.953,8.828 -8.828,8.828 z"
   id="path80" />
</g>
<g
   id="g96"
   transform="matrix(0.04687491,0,0,0.05548466,0,-2.2040726)">
	<path
   style="fill:#c7cfe2"
   d="m 97.103,207.448 h -35.31 c -4.875,0 -8.828,-3.953 -8.828,-8.828 v 0 c 0,-4.875 3.953,-8.828 8.828,-8.828 h 35.31 c 4.875,0 8.828,3.953 8.828,8.828 v 0 c 0,4.876 -3.953,8.828 -8.828,8.828 z"
   id="path84" />
	<path
   style="fill:#c7cfe2"
   d="m 167.724,207.448 h -35.31 c -4.875,0 -8.828,-3.953 -8.828,-8.828 v 0 c 0,-4.875 3.953,-8.828 8.828,-8.828 h 35.31 c 4.875,0 8.828,3.953 8.828,8.828 v 0 c 0,4.876 -3.953,8.828 -8.828,8.828 z"
   id="path86" />
	<path
   style="fill:#c7cfe2"
   d="m 238.345,207.448 h -35.31 c -4.875,0 -8.828,-3.953 -8.828,-8.828 v 0 c 0,-4.875 3.953,-8.828 8.828,-8.828 h 35.31 c 4.875,0 8.828,3.953 8.828,8.828 v 0 c -0.001,4.876 -3.953,8.828 -8.828,8.828 z"
   id="path88" />
	<path
   style="fill:#c7cfe2"
   d="m 308.966,207.448 h -35.31 c -4.875,0 -8.828,-3.953 -8.828,-8.828 v 0 c 0,-4.875 3.953,-8.828 8.828,-8.828 h 35.31 c 4.875,0 8.828,3.953 8.828,8.828 v 0 c -10e-4,4.876 -3.953,8.828 -8.828,8.828 z"
   id="path90" />
	<path
   style="fill:#c7cfe2"
   d="m 379.586,207.448 h -35.31 c -4.875,0 -8.828,-3.953 -8.828,-8.828 v 0 c 0,-4.875 3.953,-8.828 8.828,-8.828 h 35.31 c 4.875,0 8.828,3.953 8.828,8.828 v 0 c 0,4.876 -3.953,8.828 -8.828,8.828 z"
   id="path92" />
	<path
   style="fill:#c7cfe2"
   d="m 450.207,207.448 h -35.31 c -4.875,0 -8.828,-3.953 -8.828,-8.828 v 0 c 0,-4.875 3.953,-8.828 8.828,-8.828 h 35.31 c 4.875,0 8.828,3.953 8.828,8.828 v 0 c -0.001,4.876 -3.953,8.828 -8.828,8.828 z"
   id="path94" />
</g>
<g
   id="g104"
   transform="matrix(0.04687491,0,0,0.05548466,0,-2.2040726)">
	<path
   style="fill:#ff6464"
   d="m 211.862,251.586 c -2.259,0 -4.518,-0.862 -6.241,-2.586 l -17.655,-17.655 c -3.448,-3.448 -3.448,-9.035 0,-12.483 3.448,-3.448 9.035,-3.448 12.483,0 l 11.413,11.415 29.069,-29.069 c 3.448,-3.448 9.035,-3.448 12.483,0 3.448,3.448 3.448,9.035 0,12.483 l -35.31,35.31 c -1.724,1.723 -3.983,2.585 -6.242,2.585 z"
   id="path98" />
	<path
   style="fill:#ff6464"
   d="m 353.103,304.552 c -2.259,0 -4.518,-0.862 -6.241,-2.586 l -17.655,-17.655 c -3.448,-3.448 -3.448,-9.035 0,-12.483 3.448,-3.448 9.035,-3.448 12.483,0 l 11.413,11.415 29.069,-29.069 c 3.448,-3.448 9.035,-3.448 12.483,0 3.448,3.448 3.448,9.035 0,12.483 l -35.31,35.31 c -1.724,1.723 -3.983,2.585 -6.242,2.585 z"
   id="path100" />
	<path
   style="fill:#ff6464"
   d="m 141.241,410.483 c -2.259,0 -4.518,-0.862 -6.241,-2.586 l -17.655,-17.655 c -3.448,-3.448 -3.448,-9.035 0,-12.483 3.448,-3.448 9.035,-3.448 12.483,0 l 11.413,11.415 29.069,-29.069 c 3.448,-3.448 9.035,-3.448 12.483,0 3.448,3.448 3.448,9.035 0,12.483 l -35.31,35.31 c -1.724,1.723 -3.983,2.585 -6.242,2.585 z"
   id="path102" />
</g>
<g
   id="g112"
   transform="matrix(0.04687491,0,0,0.05548466,0,-2.2040726)">
	<path
   style="fill:#18bdf6"
   d="M 88.276,251.586 H 70.621 c -4.875,0 -8.828,-3.953 -8.828,-8.828 v 0 c 0,-4.875 3.953,-8.828 8.828,-8.828 h 17.655 c 4.875,0 8.828,3.953 8.828,8.828 v 0 c -0.001,4.876 -3.953,8.828 -8.828,8.828 z"
   id="path106" />
	<path
   style="fill:#18bdf6"
   d="m 441.379,357.517 h -17.655 c -4.875,0 -8.828,-3.953 -8.828,-8.828 v 0 c 0,-4.875 3.953,-8.828 8.828,-8.828 h 17.655 c 4.875,0 8.828,3.953 8.828,8.828 v 0 c 0,4.876 -3.953,8.828 -8.828,8.828 z"
   id="path108" />
	<path
   style="fill:#18bdf6"
   d="m 229.517,304.552 h -17.655 c -4.875,0 -8.828,-3.953 -8.828,-8.828 v 0 c 0,-4.875 3.953,-8.828 8.828,-8.828 h 17.655 c 4.875,0 8.828,3.953 8.828,8.828 v 0 c 0,4.875 -3.953,8.828 -8.828,8.828 z"
   id="path110" />
</g>
<g
   id="g118"
   transform="matrix(0.04687491,0,0,0.05548466,0,-2.2040726)">
	<path
   style="fill:#ffd782"
   d="m 300.138,410.483 h -17.655 c -4.875,0 -8.828,-3.953 -8.828,-8.828 v 0 c 0,-4.875 3.953,-8.828 8.828,-8.828 h 17.655 c 4.875,0 8.828,3.953 8.828,8.828 v 0 c 0,4.875 -3.953,8.828 -8.828,8.828 z"
   id="path114" />
	<path
   style="fill:#ffd782"
   d="m 158.897,304.552 h -17.655 c -4.875,0 -8.828,-3.953 -8.828,-8.828 v 0 c 0,-4.875 3.953,-8.828 8.828,-8.828 h 17.655 c 4.875,0 8.828,3.953 8.828,8.828 v 0 c -0.001,4.875 -3.953,8.828 -8.828,8.828 z"
   id="path116" />
</g>
<g
   id="g120"
   transform="matrix(0.04687491,0,0,0.05548466,0,-2.2040726)">
</g>
<g
   id="g122"
   transform="matrix(0.04687491,0,0,0.05548466,0,-2.2040726)">
</g>
<g
   id="g124"
   transform="matrix(0.04687491,0,0,0.05548466,0,-2.2040726)">
</g>
<g
   id="g126"
   transform="matrix(0.04687491,0,0,0.05548466,0,-2.2040726)">
</g>
<g
   id="g128"
   transform="matrix(0.04687491,0,0,0.05548466,0,-2.2040726)">
</g>
<g
   id="g130"
   transform="matrix(0.04687491,0,0,0.05548466,0,-2.2040726)">
</g>
<g
   id="g132"
   transform="matrix(0.04687491,0,0,0.05548466,0,-2.2040726)">
</g>
<g
   id="g134"
   transform="matrix(0.04687491,0,0,0.05548466,0,-2.2040726)">
</g>
<g
   id="g136"
   transform="matrix(0.04687491,0,0,0.05548466,0,-2.2040726)">
</g>
<g
   id="g138"
   transform="matrix(0.04687491,0,0,0.05548466,0,-2.2040726)">
</g>
<g
   id="g140"
   transform="matrix(0.04687491,0,0,0.05548466,0,-2.2040726)">
</g>
<g
   id="g142"
   transform="matrix(0.04687491,0,0,0.05548466,0,-2.2040726)">
</g>
<g
   id="g144"
   transform="matrix(0.04687491,0,0,0.05548466,0,-2.2040726)">
</g>
<g
   id="g146"
   transform="matrix(0.04687491,0,0,0.05548466,0,-2.2040726)">
</g>
<g
   id="g148"
   transform="matrix(0.04687491,0,0,0.05548466,0,-2.2040726)">
</g>
</svg>
