<?xml version="1.0" encoding="UTF-8" standalone="no"?>
<!-- Generator: Adobe Illustrator 19.0.0, SVG Export Plug-In . SVG Version: 6.00 Build 0)  -->

<svg
   version="1.1"
   id="Layer_1"
   x="0px"
   y="0px"
   viewBox="0 0 24 24"
   xml:space="preserve"
   sodipodi:docname="availability.svg"
   width="24"
   height="24"
   inkscape:version="1.2.1 (9c6d41e410, 2022-07-14)"
   xmlns:inkscape="http://www.inkscape.org/namespaces/inkscape"
   xmlns:sodipodi="http://sodipodi.sourceforge.net/DTD/sodipodi-0.dtd"
   xmlns="http://www.w3.org/2000/svg"
   xmlns:svg="http://www.w3.org/2000/svg"><defs
   id="defs95" /><sodipodi:namedview
   id="namedview93"
   pagecolor="#ffffff"
   bordercolor="#000000"
   borderopacity="0.25"
   inkscape:showpageshadow="2"
   inkscape:pageopacity="0.0"
   inkscape:pagecheckerboard="true"
   inkscape:deskcolor="#d1d1d1"
   showgrid="false"
   inkscape:zoom="33.916667"
   inkscape:cx="11.601966"
   inkscape:cy="12"
   inkscape:window-width="1920"
   inkscape:window-height="1017"
   inkscape:window-x="-8"
   inkscape:window-y="-8"
   inkscape:window-maximized="1"
   inkscape:current-layer="g48" />
<path
   style="fill:#f4cf31;stroke-width:0.0493865"
   d="M 24,21.346341 C 24,22.712195 22.8,24 21.4,24 H 2.6 C 1.2,24 0,22.712195 0,21.346341 V 4.1365854 C 0,2.7707317 1.2,1.7560976 2.6,1.7560976 h 18.8 c 1.4,0 2.6,1.0146341 2.6,2.3804878 z"
   id="path2" />
<path
   style="fill:#f2b233;stroke-width:0.0493865"
   d="M 0.08,4.1756098 C 0.08,2.8097561 1.2,1.7560976 2.6,1.7560976 h 18.8 c 1.4,0 2.6,1.0146341 2.6,2.3804878 V 21.346341 C 24,22.712195 22.8,24 21.4,24"
   id="path4" />
<path
   style="fill:#00233f;stroke-width:0.0493865"
   d="M 21.4,1.7560976 H 2.6 c -1.4,0 -2.6,1.0146341 -2.6,2.3804878 v 2.302439 H 24 V 4.1365854 C 24,2.7707317 22.8,1.7560976 21.4,1.7560976 Z"
   id="path6" />
<path
   style="fill:#104c75;stroke-width:0.0493865"
   d="M 24,6.4390244 V 4.1365854 C 24,2.7707317 22.8,1.7560976 21.4,1.7560976 H 2.8"
   id="path8" />
<g
   id="g48"
   transform="matrix(0.05,0,0,0.04878049,-0.3,0)">
	<circle
   style="fill:#024651"
   cx="90"
   cy="210.39999"
   r="12.8"
   id="circle10" />
	<circle
   style="fill:#024651"
   cx="168.39999"
   cy="210.39999"
   r="12.8"
   id="circle12" />
	<circle
   style="fill:#024651"
   cx="246"
   cy="210.39999"
   r="12.8"
   id="circle14" />
	<circle
   style="fill:#024651;fill-opacity:1"
   cx="323.60001"
   cy="210.39999"
   r="12.8"
   id="circle16" />
	<circle
   style="fill:#024651"
   cx="90"
   cy="277.60001"
   r="12.8"
   id="circle18" />
	<circle
   style="fill:#024651"
   cx="168.39999"
   cy="277.60001"
   r="12.8"
   id="circle20" />
	<circle
   style="fill:#024651"
   cx="246"
   cy="277.60001"
   r="12.8"
   id="circle22" />
	<circle
   style="fill:#024651;fill-opacity:1"
   cx="323.60001"
   cy="277.60001"
   r="12.8"
   id="circle24" />
	<circle
   style="fill:#024651;fill-opacity:1"
   cx="402"
   cy="277.60001"
   r="12.8"
   id="circle26" />
	<circle
   style="fill:#024651"
   cx="90"
   cy="344.79999"
   r="12.8"
   id="circle28" />
	<circle
   style="fill:#024651;fill-opacity:1"
   cx="168.39999"
   cy="344.79999"
   r="12.8"
   id="circle30" />
	<circle
   style="fill:#024651"
   cx="246"
   cy="344.79999"
   r="12.8"
   id="circle32" />
	<circle
   style="fill:#024651;fill-opacity:1"
   cx="323.60001"
   cy="344.79999"
   r="12.8"
   id="circle34" />
	<circle
   style="fill:#024651;fill-opacity:1"
   cx="402"
   cy="344.79999"
   r="12.8"
   id="circle36" />
	<circle
   style="fill:#024651"
   cx="90"
   cy="412"
   r="12.8"
   id="circle38" />
	<circle
   style="fill:#024651"
   cx="168.39999"
   cy="412"
   r="12.8"
   id="circle40" />
	<circle
   style="fill:#024651"
   cx="246"
   cy="412"
   r="12.8"
   id="circle42" />
	<circle
   style="fill:#024651;fill-opacity:1"
   cx="323.60001"
   cy="412"
   r="12.8"
   id="circle44" />
	<circle
   style="fill:#024651;fill-opacity:1"
   cx="402"
   cy="412"
   r="12.8"
   id="circle46" />
<circle
   style="fill:#024651;fill-opacity:1"
   cx="402"
   cy="210.39949"
   r="12.8"
   id="circle472" /></g>


<path
   style="fill:#f4cf31;stroke-width:0.0493865"
   d="M 6.8,2.2634146 C 6.8,2.7317073 6.48,3.0829268 6,3.0829268 v 0 c -0.48,0 -0.8,-0.3902439 -0.8,-0.8195122 V 0.8195122 C 5.2,0.35121951 5.52,0 6,0 v 0 c 0.48,0 0.8,0.3902439 0.8,0.8195122 z"
   id="path54" />
<path
   style="fill:#f2b233;stroke-width:0.0493865"
   d="M 6.04,0 V 0 C 6.52,0 6.8,0.3902439 6.8,0.8195122 V 2.2634146 C 6.8,2.7317073 6.48,3.0829268 6,3.0829268 v 0"
   id="path56" />
<path
   style="fill:#f4cf31;stroke-width:0.0493865"
   d="m 18.8,2.2634146 c 0,0.4682927 -0.32,0.8195122 -0.8,0.8195122 v 0 c -0.48,0 -0.8,-0.3902439 -0.8,-0.8195122 V 0.8195122 C 17.2,0.35121951 17.52,0 18,0 v 0 c 0.48,0 0.8,0.3902439 0.8,0.8195122 z"
   id="path58" />
<path
   style="fill:#f2b233;stroke-width:0.0493865"
   d="m 17.92,0 v 0 c 0.48,0 0.88,0.3902439 0.88,0.8195122 v 1.4439024 c 0,0.4682927 -0.4,0.8195122 -0.88,0.8195122 v 0"
   id="path60" />
<g
   id="g62"
   transform="matrix(0.05,0,0,0.04878049,-0.3,0)">
</g>
<g
   id="g64"
   transform="matrix(0.05,0,0,0.04878049,-0.3,0)">
</g>
<g
   id="g66"
   transform="matrix(0.05,0,0,0.04878049,-0.3,0)">
</g>
<g
   id="g68"
   transform="matrix(0.05,0,0,0.04878049,-0.3,0)">
</g>
<g
   id="g70"
   transform="matrix(0.05,0,0,0.04878049,-0.3,0)">
</g>
<g
   id="g72"
   transform="matrix(0.05,0,0,0.04878049,-0.3,0)">
</g>
<g
   id="g74"
   transform="matrix(0.05,0,0,0.04878049,-0.3,0)">
</g>
<g
   id="g76"
   transform="matrix(0.05,0,0,0.04878049,-0.3,0)">
</g>
<g
   id="g78"
   transform="matrix(0.05,0,0,0.04878049,-0.3,0)">
</g>
<g
   id="g80"
   transform="matrix(0.05,0,0,0.04878049,-0.3,0)">
</g>
<g
   id="g82"
   transform="matrix(0.05,0,0,0.04878049,-0.3,0)">
</g>
<g
   id="g84"
   transform="matrix(0.05,0,0,0.04878049,-0.3,0)">
</g>
<g
   id="g86"
   transform="matrix(0.05,0,0,0.04878049,-0.3,0)">
</g>
<g
   id="g88"
   transform="matrix(0.05,0,0,0.04878049,-0.3,0)">
</g>
<g
   id="g90"
   transform="matrix(0.05,0,0,0.04878049,-0.3,0)">
</g>
</svg>
