<?xml version="1.0" encoding="UTF-8" standalone="no"?> <svg width="64" height="64" viewBox="0 0 64 64" fill="none" xmlns="http://www.w3.org/2000/svg">
<path d="M55.07 3H8C5.23858 3 3 5.23858 3 8V45.04C3 47.8014 5.23858 50.04 8 50.04H55.07C57.8314 50.04 60.07 47.8014 60.07 45.04V8C60.07 5.23858 57.8314 3 55.07 3Z" fill="#EEEFEE"/>
<path d="M60.07 13.57V8C60.07 6.67392 59.5432 5.40215 58.6055 4.46447C57.6679 3.52678 56.3961 3 55.07 3H8C6.67392 3 5.40215 3.52678 4.46447 4.46447C3.52678 5.40215 3 6.67392 3 8V13.57C3 13.8352 3.10536 14.0896 3.29289 14.2771C3.48043 14.4646 3.73478 14.57 4 14.57H59.07C59.3352 14.57 59.5896 14.4646 59.7771 14.2771C59.9646 14.0896 60.07 13.8352 60.07 13.57Z" fill="#1976D2"/>
<path d="M12.15 7.79001H11C10.7348 7.79001 10.4804 7.89537 10.2929 8.0829C10.1054 8.27044 10 8.52479 10 8.79001C10 9.05523 10.1054 9.30958 10.2929 9.49712C10.4804 9.68465 10.7348 9.79001 11 9.79001H12.12C12.3852 9.79001 12.6396 9.68465 12.8271 9.49712C13.0146 9.30958 13.12 9.05523 13.12 8.79001C13.12 8.52479 13.0146 8.27044 12.8271 8.0829C12.6396 7.89537 12.3852 7.79001 12.12 7.79001H12.15Z" fill="#64B5F6"/>
<path d="M16.46 7.79001H15.34C15.0747 7.79001 14.8204 7.89537 14.6329 8.0829C14.4453 8.27044 14.34 8.52479 14.34 8.79001C14.34 9.05523 14.4453 9.30958 14.6329 9.49712C14.8204 9.68465 15.0747 9.79001 15.34 9.79001H16.46C16.7252 9.79001 16.9795 9.68465 17.1671 9.49712C17.3546 9.30958 17.46 9.05523 17.46 8.79001C17.46 8.52479 17.3546 8.27044 17.1671 8.0829C16.9795 7.89537 16.7252 7.79001 16.46 7.79001V7.79001Z" fill="#64B5F6"/>
<path d="M20.78 7.79001H19.65C19.3848 7.79001 19.1305 7.89537 18.9429 8.0829C18.7554 8.27044 18.65 8.52479 18.65 8.79001C18.65 9.05523 18.7554 9.30958 18.9429 9.49712C19.1305 9.68465 19.3848 9.79001 19.65 9.79001H20.78C21.0452 9.79001 21.2996 9.68465 21.4871 9.49712C21.6747 9.30958 21.78 9.05523 21.78 8.79001C21.78 8.52479 21.6747 8.27044 21.4871 8.0829C21.2996 7.89537 21.0452 7.79001 20.78 7.79001V7.79001Z" fill="#64B5F6"/>
<path d="M52.9999 7.79001H44.1899C43.9247 7.79001 43.6704 7.89537 43.4828 8.0829C43.2953 8.27044 43.1899 8.52479 43.1899 8.79001C43.1899 9.05523 43.2953 9.30958 43.4828 9.49712C43.6704 9.68465 43.9247 9.79001 44.1899 9.79001H52.9999C53.2652 9.79001 53.5195 9.68465 53.7071 9.49712C53.8946 9.30958 53.9999 9.05523 53.9999 8.79001C53.9999 8.52479 53.8946 8.27044 53.7071 8.0829C53.5195 7.89537 53.2652 7.79001 52.9999 7.79001V7.79001Z" fill="#64B5F6"/>
<path d="M52 59H13.15V20.15C13.15 19.8848 13.0447 19.6304 12.8571 19.4429C12.6696 19.2554 12.4152 19.15 12.15 19.15C11.8848 19.15 11.6305 19.2554 11.4429 19.4429C11.2554 19.6304 11.15 19.8848 11.15 20.15V60C11.15 60.2652 11.2554 60.5196 11.4429 60.7071C11.6305 60.8946 11.8848 61 12.15 61H52C52.2652 61 52.5196 60.8946 52.7071 60.7071C52.8947 60.5196 53 60.2652 53 60C53 59.7348 52.8947 59.4804 52.7071 59.2929C52.5196 59.1053 52.2652 59 52 59Z" fill="#575B6D"/>
<path d="M21.63 28.25H17.34C16.7877 28.25 16.34 28.6977 16.34 29.25V56.29C16.34 56.8423 16.7877 57.29 17.34 57.29H21.63C22.1822 57.29 22.63 56.8423 22.63 56.29V29.25C22.63 28.6977 22.1822 28.25 21.63 28.25Z" fill="#EF5261"/>
<path d="M30.31 38.26H26.02C25.4677 38.26 25.02 38.7077 25.02 39.26V56.29C25.02 56.8423 25.4677 57.29 26.02 57.29H30.31C30.8623 57.29 31.31 56.8423 31.31 56.29V39.26C31.31 38.7077 30.8623 38.26 30.31 38.26Z" fill="#F6C863"/>
<path d="M39 31.66H34.71C34.1577 31.66 33.71 32.1077 33.71 32.66V56.29C33.71 56.8423 34.1577 57.29 34.71 57.29H39C39.5522 57.29 40 56.8423 40 56.29V32.66C40 32.1077 39.5522 31.66 39 31.66Z" fill="#64B5F6"/>
<path d="M47.68 24.84H43.39C42.8377 24.84 42.39 25.2877 42.39 25.84V56.29C42.39 56.8423 42.8377 57.29 43.39 57.29H47.68C48.2323 57.29 48.68 56.8423 48.68 56.29V25.84C48.68 25.2877 48.2323 24.84 47.68 24.84Z" fill="#F7931E"/>
</svg>
