<?xml version="1.0" encoding="UTF-8" standalone="no"?>
<!-- Generator: Adobe Illustrator 16.0.0, SVG Export Plug-In . SVG Version: 6.00 Build 0)  -->

<svg
   version="1.1"
   x="0px"
   y="0px"
   width="24"
   height="24"
   viewBox="0 0 24 23.999999"
   xml:space="preserve"
   id="svg32"
   sodipodi:docname="coachRoutes.svg"
   inkscape:version="1.2.1 (9c6d41e410, 2022-07-14)"
   xmlns:inkscape="http://www.inkscape.org/namespaces/inkscape"
   xmlns:sodipodi="http://sodipodi.sourceforge.net/DTD/sodipodi-0.dtd"
   xmlns="http://www.w3.org/2000/svg"
   xmlns:svg="http://www.w3.org/2000/svg"><defs
   id="defs36">
			
			
			
			
			
			
			
			
			
			
			
			
		</defs><sodipodi:namedview
   id="namedview34"
   pagecolor="#ffffff"
   bordercolor="#000000"
   borderopacity="0.25"
   inkscape:showpageshadow="2"
   inkscape:pageopacity="0.0"
   inkscape:pagecheckerboard="true"
   inkscape:deskcolor="#d1d1d1"
   showgrid="false"
   inkscape:zoom="33.916667"
   inkscape:cx="12.117936"
   inkscape:cy="12.088452"
   inkscape:window-width="1920"
   inkscape:window-height="1014"
   inkscape:window-x="-8"
   inkscape:window-y="-8"
   inkscape:window-maximized="1"
   inkscape:current-layer="g2440" />
<g
   id="_x32_16_x2C__map_x2C__route_x2C__target_x2C__destination_x2C__position"
   transform="translate(-36.667,-21)">
	<g
   id="g28">
		
	<g
   id="g2440"
   transform="matrix(0.79999997,0,0,0.84837213,7.333401,3.184185)"><path
     style="fill:#ef727a;stroke-width:0.0662758"
     d="m 61.385613,21 c 2.186574,0 3.960537,1.744079 3.960537,3.898684 0,2.522368 -2.385536,3.378289 -3.960537,5.507894 C 59.811279,28.276973 57.429082,27.421052 57.429082,24.898684 57.429082,22.744079 59.199038,21 61.385613,21 Z m 1.173072,3.9 c 0,-0.636185 -0.526113,-1.15329 -1.171737,-1.15329 -0.645624,0 -1.170401,0.517105 -1.170401,1.15329 0,0.636184 0.524777,1.154605 1.170401,1.154605 0.645624,0 1.171737,-0.518421 1.171737,-1.154605 z"
     id="path2" /><g
     id="_x31_612_x2C__Automobile_x2C__bus_x2C__transport_x2C__vehicle"
     transform="matrix(0.04921376,0,0,0.04640771,36.101152,25.592579)">
	<g
   id="g44">
		<path
   style="fill:#ffd24d"
   d="M 260,330 H 70 v 100 c 0,11.05 8.95,20 20,20 h 70 200 70 c 11.05,0 20,-8.95 20,-20 V 330 Z"
   id="path2-9" />
		<path
   style="fill:#3c3b3d"
   d="m 140,370 c 11.05,0 20,8.95 20,20 0,11.05 -8.95,20 -20,20 -11.05,0 -20,-8.95 -20,-20 0,-11.05 8.95,-20 20,-20 z"
   id="path4" />
		<path
   style="fill:#3c3b3d"
   d="m 380,370 c 11.05,0 20,8.95 20,20 0,11.05 -8.95,20 -20,20 -11.05,0 -20,-8.95 -20,-20 0,-11.05 8.95,-20 20,-20 z"
   id="path6" />
		<rect
   x="20"
   y="120"
   style="fill:#3c3b3d"
   width="50"
   height="90"
   id="rect8" />
		<rect
   x="450"
   y="120"
   style="fill:#3c3b3d"
   width="50"
   height="90"
   id="rect10" />
		<path
   style="fill:#3c3b3d"
   d="m 160,450 v 40 c 0,5.52 -4.48,10 -10,10 h -50 c -5.52,0 -10,-4.48 -10,-10 v -40 z"
   id="path12" />
		<path
   style="fill:#3c3b3d"
   d="m 430,450 v 40 c 0,5.52 -4.48,10 -10,10 h -50 c -5.52,0 -10,-4.48 -10,-10 v -40 z"
   id="path14" />
		<path
   style="fill:#ffd24d"
   d="M 450,40 V 90 H 260 70 V 40 C 70,28.95 78.95,20 90,20 h 340 c 11.05,0 20,8.95 20,20 z"
   id="path16-9" />
		<polygon
   style="fill:#b2dbd8"
   points="450,90 450,120 450,210 450,330 260,330 260,90 "
   id="polygon18" />
		<polygon
   style="fill:#d8f2f1"
   points="70,120 70,90 260,90 260,330 70,330 70,210 "
   id="polygon20" />
		<path
   d="m 150,510 h -50 c -11.028,0 -20,-8.972 -20,-20 v -40 c 0,-5.522 4.477,-10 10,-10 5.523,0 10,4.478 10,10 v 40 h 50 v -40 c 0,-5.522 4.477,-10 10,-10 5.523,0 10,4.478 10,10 v 40 c 0,11.028 -8.972,20 -20,20 z"
   id="path22" />
		<path
   d="m 420,510 h -50 c -11.028,0 -20,-8.972 -20,-20 v -40 c 0,-5.522 4.477,-10 10,-10 5.522,0 10,4.478 10,10 v 40 h 50 v -40 c 0,-5.522 4.477,-10 10,-10 5.522,0 10,4.478 10,10 v 40 c 0,11.028 -8.972,20 -20,20 z"
   id="path24" />
		<path
   d="M 430,460 H 90 C 73.458,460 60,446.542 60,430 V 330 c 0,-5.522 4.477,-10 10,-10 5.523,0 10,4.478 10,10 v 100 c 0,5.514 4.486,10 10,10 h 340 c 5.514,0 10,-4.486 10,-10 V 330 c 0,-5.522 4.477,-10 10,-10 5.522,0 10,4.478 10,10 v 100 c 0,16.542 -13.458,30 -30,30 z"
   id="path26" />
		<path
   d="m 450,100 c -5.523,0 -10,-4.477 -10,-10 V 40 c 0,-5.514 -4.486,-10 -10,-10 H 90 c -5.514,0 -10,4.486 -10,10 v 50 c 0,5.523 -4.477,10 -10,10 -5.523,0 -10,-4.477 -10,-10 V 40 C 60,23.458 73.458,10 90,10 h 340 c 16.542,0 30,13.458 30,30 v 50 c 0,5.523 -4.478,10 -10,10 z"
   id="path28" />
		<path
   d="m 70,130 c -5.523,0 -10,-4.477 -10,-10 V 90 c 0,-5.523 4.477,-10 10,-10 h 190 c 5.522,0 10,4.477 10,10 0,5.523 -4.478,10 -10,10 H 80 v 20 c 0,5.523 -4.477,10 -10,10 z"
   id="path30" />
		<path
   d="M 260,340 H 70 c -5.523,0 -10,-4.478 -10,-10 V 210 c 0,-5.523 4.477,-10 10,-10 5.523,0 10,4.477 10,10 v 110 h 180 c 5.522,0 10,4.478 10,10 0,5.522 -4.478,10 -10,10 z"
   id="path32" />
		<path
   d="M 450,340 H 260 c -5.523,0 -10,-4.478 -10,-10 V 90 c 0,-5.523 4.477,-10 10,-10 h 190 c 5.522,0 10,4.477 10,10 v 30 c 0,5.523 -4.478,10 -10,10 -5.523,0 -10,-4.477 -10,-10 V 100 H 270 V 320 H 440 V 210 c 0,-5.523 4.477,-10 10,-10 5.522,0 10,4.477 10,10 v 120 c 0,5.522 -4.478,10 -10,10 z"
   id="path34" />
		<path
   d="m 140,420 c -16.542,0 -30,-13.458 -30,-30 0,-16.542 13.458,-30 30,-30 16.542,0 30,13.458 30,30 0,16.542 -13.458,30 -30,30 z m 0,-40 c -5.514,0 -10,4.486 -10,10 0,5.514 4.486,10 10,10 5.514,0 10,-4.486 10,-10 0,-5.514 -4.486,-10 -10,-10 z"
   id="path36" />
		<path
   d="m 380,420 c -16.542,0 -30,-13.458 -30,-30 0,-16.542 13.458,-30 30,-30 16.542,0 30,13.458 30,30 0,16.542 -13.458,30 -30,30 z m 0,-40 c -5.514,0 -10,4.486 -10,10 0,5.514 4.486,10 10,10 5.514,0 10,-4.486 10,-10 0,-5.514 -4.486,-10 -10,-10 z"
   id="path38" />
		<path
   d="m 500,220 h -50 c -5.523,0 -10,-4.477 -10,-10 v -90 c 0,-5.523 4.477,-10 10,-10 h 50 c 5.522,0 10,4.477 10,10 v 90 c 0,5.523 -4.478,10 -10,10 z m -40,-20 h 30 v -70 h -30 z"
   id="path40" />
		<path
   d="M 70,220 H 20 c -5.523,0 -10,-4.477 -10,-10 v -90 c 0,-5.523 4.477,-10 10,-10 h 50 c 5.523,0 10,4.477 10,10 v 90 c 0,5.523 -4.477,10 -10,10 z M 30,200 H 60 V 130 H 30 Z"
   id="path42" />
	</g>
</g><g
     id="Layer_1-3"
     transform="matrix(0.84863572,0,0,0.80024855,28.180643,20.111038)">
</g><path
     style="fill:#787878;stroke-width:0.0799553;fill-opacity:1"
     d="M 60.770155,49.289472 H 45.801239 c -0.501051,0 -0.907207,-0.315552 -0.907207,-0.704673 0,-0.389119 0.406156,-0.704671 0.907207,-0.704671 h 14.968916 c 1.090463,0 2.115517,-0.329858 2.886552,-0.928829 0.771217,-0.598971 1.195881,-1.39518 1.195881,-2.242197 0,-1.748503 -1.83138,-3.171025 -4.082433,-3.171025 h -4.536034 c -1.332688,0 -2.585722,-0.403142 -3.528219,-1.135086 -0.942408,-0.732154 -1.461421,-1.705447 -1.461421,-2.740612 0,-2.137059 2.238352,-3.875696 4.98964,-3.875696 h 1.360809 c 1.500702,0 2.721622,-0.948348 2.721622,-2.114018 0,-0.38919 0.406248,-0.704671 0.907206,-0.704671 0.500961,0 0.907209,0.315481 0.907209,0.704671 0,1.942782 -2.034866,3.523362 -4.536037,3.523362 h -1.360809 c -1.75082,0 -3.175225,1.106406 -3.175225,2.466352 0,0.658799 0.330313,1.278206 0.929977,1.744065 0.599664,0.465717 1.3971,0.722289 2.245248,0.722289 h 4.536034 c 3.251521,0 5.896846,2.054754 5.896846,4.580369 0,1.223381 -0.613453,2.373689 -1.727321,3.238744 -1.113598,0.865127 -2.594523,1.341626 -4.169525,1.341626 z"
     id="path16" /></g></g>
</g>
<g
   id="Layer_1"
   transform="translate(-36.667,-21)">
</g>
</svg>
