<?xml version="1.0" encoding="UTF-8" standalone="no"?>
<!-- Generator: Adobe Illustrator 24.0.0, SVG Export Plug-In . SVG Version: 6.00 Build 0)  -->

<svg
   version="1.1"
   x="0px"
   y="0px"
   viewBox="0 0 24 24"
   enable-background="new 0 0 64 64"
   xml:space="preserve"
   id="svg18346"
   sodipodi:docname="customers.svg"
   width="24"
   height="24"
   inkscape:version="1.2.1 (9c6d41e410, 2022-07-14)"
   xmlns:inkscape="http://www.inkscape.org/namespaces/inkscape"
   xmlns:sodipodi="http://sodipodi.sourceforge.net/DTD/sodipodi-0.dtd"
   xmlns="http://www.w3.org/2000/svg"
   xmlns:svg="http://www.w3.org/2000/svg"><defs
   id="defs18350" /><sodipodi:namedview
   id="namedview18348"
   pagecolor="#ffffff"
   bordercolor="#000000"
   borderopacity="0.25"
   inkscape:showpageshadow="2"
   inkscape:pageopacity="0.0"
   inkscape:pagecheckerboard="true"
   inkscape:deskcolor="#d1d1d1"
   showgrid="false"
   inkscape:zoom="33.916667"
   inkscape:cx="11.985258"
   inkscape:cy="12"
   inkscape:window-width="1920"
   inkscape:window-height="1017"
   inkscape:window-x="-8"
   inkscape:window-y="-8"
   inkscape:window-maximized="1"
   inkscape:current-layer="svg18346" />
<g
   id="Captions"
   transform="matrix(0.42857143,0,0,0.42857143,-1.7142857,-1.7142857)">
</g>
<g
   id="Icons"
   transform="matrix(0.42857143,0,0,0.42857143,-1.7142857,-1.7142857)">
	<g
   id="g18343">
		<g
   id="g18195">
			<path
   fill="#c80a50"
   d="m 30,4 h 4 c 4.418,0 8,3.582 8,8 v 12 c 0,1.105 -0.895,2 -2,2 H 24 c -1.105,0 -2,-0.895 -2,-2 V 12 c 0,-4.418 3.582,-8 8,-8 z"
   id="path18193" />
		</g>
		<g
   id="g18225">
			<g
   id="g18199">
				<rect
   x="22"
   y="26"
   fill="#0a5078"
   width="20"
   height="22"
   id="rect18197" />
			</g>
			<g
   id="g18203">
				<rect
   x="31"
   y="26"
   fill="#00a0c8"
   width="2"
   height="22"
   id="rect18201" />
			</g>
			<path
   fill="#00325a"
   d="m 25,46 v -2.34 c 2.33,-0.83 4,-3.05 4,-5.66 1.1,0 2,-0.9 2,-2 0,-1.1 -0.9,-2 -2,-2 v -4 c 0,-1.54 -0.58,-2.94 -1.54,-4 H 22 v 20 z"
   id="path18205" />
			<path
   fill="#00325a"
   d="m 35,38 c 0,2.61 1.67,4.83 4,5.66 V 46 h 3 V 26 H 36.54 C 35.58,27.06 35,28.46 35,30 v 4 c -1.1,0 -2,0.9 -2,2 0,1.1 0.9,2 2,2 z"
   id="path18207" />
			<g
   id="g18211">
				<path
   fill="#d2aa82"
   d="m 32,30 v 0 c -2.209,0 -4,-1.791 -4,-4 v -4 h 8 v 4 c 0,2.209 -1.791,4 -4,4 z"
   id="path18209" />
			</g>
			<g
   id="g18215">
				<path
   fill="#f0c8a0"
   d="m 30,10 h -2 c -2.209,0 -4,1.791 -4,4 v 0 0 4 c 0,3.314 2.686,6 6,6 h 4 c 3.314,0 6,-2.686 6,-6 v -4 0 h -6 c -2.209,0 -4,-1.791 -4,-4 z"
   id="path18213" />
			</g>
			<g
   id="g18219">
				<path
   fill="#d2aa82"
   d="m 24,18 v 0 -4 0 c -1.105,0 -2,0.895 -2,2 v 0 c 0,1.105 0.895,2 2,2 z"
   id="path18217" />
			</g>
			<g
   id="g18223">
				<path
   fill="#d2aa82"
   d="m 40,18 v 0 -4 0 c 1.105,0 2,0.895 2,2 v 0 c 0,1.105 -0.895,2 -2,2 z"
   id="path18221" />
			</g>
		</g>
		<g
   id="g18287">
			<g
   id="g18229">
				<path
   fill="#dc9600"
   d="m 42,24 h 4 c 3.314,0 6,2.686 6,6 v 4 H 36 v -4 c 0,-3.314 2.686,-6 6,-6 z"
   id="path18227" />
			</g>
			<g
   id="g18233">
				<path
   fill="#00a0c8"
   d="m 34,46 v 14 h -6 v -8 c 0,-3.314 2.686,-6 6,-6 z"
   id="path18231" />
			</g>
			<g
   id="g18237">
				<rect
   x="34"
   y="46"
   transform="rotate(180,44,53)"
   fill="#00a0c8"
   width="20"
   height="14"
   id="rect18235" />
			</g>
			<g
   id="g18241">
				<path
   fill="#0082aa"
   d="M 35,60 V 52.5 C 35,52.224 34.776,52 34.5,52 34.224,52 34,52.224 34,52.5 V 60 Z"
   id="path18239" />
			</g>
			<g
   id="g18245">
				<path
   fill="#0082aa"
   d="M 54,60 V 52.5 C 54,52.224 53.776,52 53.5,52 53.224,52 53,52.224 53,52.5 V 60 Z"
   id="path18243" />
			</g>
			<g
   id="g18249">
				<path
   fill="#0082aa"
   d="m 32.5,46.189 c -0.532,0.137 -1.036,0.345 -1.5,0.614 V 60 h 6 v -8 c 0,-2.796 -1.912,-5.145 -4.5,-5.811 z"
   id="path18247" />
			</g>
			<g
   id="g18253">
				<polygon
   fill="#0a5078"
   points="42,60 46,60 45,50 43,50 "
   id="polygon18251" />
			</g>
			<g
   id="g18257">
				<path
   fill="#0082aa"
   d="m 44,50 -2.293,2.293 C 41.077,52.923 40,52.477 40,51.586 V 46 h 4 z"
   id="path18255" />
			</g>
			<g
   id="g18261">
				<path
   fill="#0082aa"
   d="m 44,50 2.293,2.293 C 46.923,52.923 48,52.477 48,51.586 V 46 h -4 z"
   id="path18259" />
			</g>
			<g
   id="g18265">
				<path
   fill="#d2aa82"
   d="m 44,50 v 0 c 2.209,0 4,-1.791 4,-4 v -4 h -8 v 4 c 0,2.209 1.791,4 4,4 z"
   id="path18263" />
			</g>
			<g
   id="g18269">
				<path
   fill="#f0c8a0"
   d="m 40,28 h 8 c 1.105,0 2,0.895 2,2 v 2 c 0,1.105 0.895,2 2,2 v 0 0 4 c 0,3.314 -2.686,6 -6,6 h -4 c -3.314,0 -6,-2.686 -6,-6 v -4 0 0 c 1.105,0 2,-0.895 2,-2 v -2 c 0,-1.105 0.895,-2 2,-2 z"
   id="path18267" />
			</g>
			<g
   id="g18273">
				<path
   fill="#d2aa82"
   d="m 52,38 v 0 -4 0 c 1.105,0 2,0.895 2,2 v 0 c 0,1.105 -0.895,2 -2,2 z"
   id="path18271" />
			</g>
			<g
   id="g18277">
				<path
   fill="#d2aa82"
   d="m 36,38 v 0 -4 0 c -1.105,0 -2,0.895 -2,2 v 0 c 0,1.105 0.895,2 2,2 z"
   id="path18275" />
			</g>
			<g
   id="g18281">
				<path
   fill="#00a0c8"
   d="m 60,52 v 8 H 54 V 46 c 3.314,0 6,2.686 6,6 z"
   id="path18279" />
			</g>
			<g
   id="g18285">
				<path
   fill="#dc9600"
   d="m 49,22 h -7 c -2.209,0 -4,1.791 -4,4 v 2 h 8 c 2.209,0 4,-1.791 4,-4 v -1 c 0,-0.552 -0.448,-1 -1,-1 z"
   id="path18283" />
			</g>
		</g>
		<g
   id="g18333">
			<g
   id="g18291">
				<path
   fill="#0a5078"
   d="m 18,24 h 4 c 3.314,0 6,2.686 6,6 v 4 H 12 v -4 c 0,-3.314 2.686,-6 6,-6 z"
   id="path18289" />
			</g>
			<g
   id="g18295">
				<rect
   x="10"
   y="46"
   transform="rotate(180,20,53)"
   fill="#fab400"
   width="20"
   height="14"
   id="rect18293" />
			</g>
			<g
   id="g18299">
				<polygon
   fill="#00a0c8"
   points="18,60 22,60 21,50 19,50 "
   id="polygon18297" />
			</g>
			<g
   id="g18303">
				<path
   fill="#dc9600"
   d="m 20,50 -2.293,2.293 C 17.077,52.923 16,52.477 16,51.586 V 46 h 4 z"
   id="path18301" />
			</g>
			<g
   id="g18307">
				<path
   fill="#dc9600"
   d="m 20,50 2.293,2.293 C 22.923,52.923 24,52.477 24,51.586 V 46 h -4 z"
   id="path18305" />
			</g>
			<g
   id="g18311">
				<path
   fill="#d2aa82"
   d="m 20,50 v 0 c 2.209,0 4,-1.791 4,-4 v -4 h -8 v 4 c 0,2.209 1.791,4 4,4 z"
   id="path18309" />
			</g>
			<g
   id="g18315">
				<path
   fill="#fab400"
   d="m 36,52 v 8 H 30 V 46 c 3.314,0 6,2.686 6,6 z"
   id="path18313" />
			</g>
			<g
   id="g18319">
				<path
   fill="#fab400"
   d="M 10,46 V 60 H 4 v -8 c 0,-3.314 2.686,-6 6,-6 z"
   id="path18317" />
			</g>
			<g
   id="g18323">
				<path
   fill="#f0c8a0"
   d="m 16,28 h 8 c 1.105,0 2,0.895 2,2 v 2 c 0,1.105 0.895,2 2,2 v 0 0 4 c 0,3.314 -2.686,6 -6,6 h -4 c -3.314,0 -6,-2.686 -6,-6 v -4 0 0 c 1.105,0 2,-0.895 2,-2 v -2 c 0,-1.105 0.895,-2 2,-2 z"
   id="path18321" />
			</g>
			<g
   id="g18327">
				<path
   fill="#d2aa82"
   d="m 28,38 v 0 -4 0 c 1.105,0 2,0.895 2,2 v 0 c 0,1.105 -0.895,2 -2,2 z"
   id="path18325" />
			</g>
			<g
   id="g18331">
				<path
   fill="#d2aa82"
   d="m 12,38 v 0 -4 0 c -1.105,0 -2,0.895 -2,2 v 0 c 0,1.105 0.895,2 2,2 z"
   id="path18329" />
			</g>
		</g>
		<g
   id="g18337">
			<path
   fill="#dc9600"
   d="M 11,60 V 52.5 C 11,52.224 10.776,52 10.5,52 10.224,52 10,52.224 10,52.5 V 60 Z"
   id="path18335" />
		</g>
		<g
   id="g18341">
			<path
   fill="#dc9600"
   d="M 30,60 V 52.5 C 30,52.224 29.776,52 29.5,52 29.224,52 29,52.224 29,52.5 V 60 Z"
   id="path18339" />
		</g>
	</g>
</g>
</svg>
