<?xml version="1.0" encoding="UTF-8" standalone="no"?>
<!-- Generator: Adobe Illustrator 18.0.0, SVG Export Plug-In . SVG Version: 6.00 Build 0)  -->

<svg
   version="1.1"
   id="ecommerce_1_"
   x="0px"
   y="0px"
   viewBox="0 0 23.999999 24"
   xml:space="preserve"
   sodipodi:docname="destinations.svg"
   width="24"
   height="24"
   inkscape:version="1.2.1 (9c6d41e410, 2022-07-14)"
   xmlns:inkscape="http://www.inkscape.org/namespaces/inkscape"
   xmlns:sodipodi="http://sodipodi.sourceforge.net/DTD/sodipodi-0.dtd"
   xmlns="http://www.w3.org/2000/svg"
   xmlns:svg="http://www.w3.org/2000/svg"><defs
   id="defs14413" /><sodipodi:namedview
   id="namedview14411"
   pagecolor="#ffffff"
   bordercolor="#000000"
   borderopacity="0.25"
   inkscape:showpageshadow="2"
   inkscape:pageopacity="0.0"
   inkscape:pagecheckerboard="true"
   inkscape:deskcolor="#d1d1d1"
   showgrid="false"
   inkscape:zoom="33.916667"
   inkscape:cx="11.985258"
   inkscape:cy="12"
   inkscape:window-width="1920"
   inkscape:window-height="1017"
   inkscape:window-x="-8"
   inkscape:window-y="-8"
   inkscape:window-maximized="1"
   inkscape:current-layer="ecommerce_1_" />
<style
   type="text/css"
   id="style14357">
	.st0{fill:#FFEEAD;}
	.st1{fill:#C9B77D;}
	.st2{fill:#99734A;}
	.st3{fill:#FF6F69;}
	.st4{fill:#96CEB4;}
	.st5{fill:none;}
	.st6{fill:#AA9865;}
	.st7{fill:#71A58A;}
	.st8{fill:#FFCC5C;}
	.st9{fill:#825E3B;}
	.st10{fill:#639376;}
	.st11{fill:#E05858;}
	.st12{fill:#C1821E;}
	.st13{fill:#D6A041;}
	.st14{fill:#B28559;}
	.st15{fill:#BF4343;}
	.st16{fill:#D3C089;}
	.st17{fill:#7C5C3C;}
	.st18{fill:#FDCC5C;}
	.st19{fill:#FFFFFF;}
</style>
<g
   id="location_1_"
   transform="matrix(0.21668291,0,0,0.2086872,-0.45944723,2.2905827e-5)">
	<g
   id="g14363">
		<g
   id="g14361">
			
				<ellipse
   transform="matrix(-0.0139,-0.9999,0.9999,-0.0139,-75.7158,135.8223)"
   class="st4"
   cx="29.113001"
   cy="105.245"
   rx="9.7489996"
   ry="26.996"
   id="ellipse14359" />
		</g>
	</g>
	<g
   id="g14369">
		<g
   id="g14367">
			
				<ellipse
   transform="matrix(-0.014,-0.9999,0.9999,-0.014,-73.406,133.4144)"
   class="st7"
   cx="29.08"
   cy="102.902"
   rx="5.2490001"
   ry="14.998"
   id="ellipse14365" />
		</g>
	</g>
	<g
   id="g14397">
		<g
   id="g14375">
			<g
   id="g14373">
				
					<ellipse
   transform="matrix(-0.0139,-0.9999,0.9999,-0.0139,2.7817,125.6561)"
   class="st4"
   cx="63.348999"
   cy="61.456001"
   rx="11.061"
   ry="39.931999"
   id="ellipse14371" />
			</g>
		</g>
		<g
   id="g14381">
			<g
   id="g14379">
				
					<ellipse
   transform="matrix(-0.0139,-0.9999,0.9999,-0.0139,6.6464,120.8548)"
   class="st7"
   cx="62.914001"
   cy="57.150002"
   rx="4.1240001"
   ry="20.059999"
   id="ellipse14377" />
			</g>
		</g>
		<g
   id="g14395">
			<g
   id="g14387">
				<g
   id="g14385">
					<path
   class="st3"
   d="M 62.116,0.002 C 50.252,0.168 40.768,9.97 40.935,21.897 41.101,33.824 56.088,55.667 62.892,55.571 69.228,55.483 84.067,33.224 83.901,21.297 83.734,9.371 73.981,-0.163 62.116,0.002 Z"
   id="path14383" />
				</g>
			</g>
			<g
   id="g14393">
				<g
   id="g14391">
					
						<ellipse
   transform="matrix(-0.0139,-0.9999,0.9999,-0.0139,41.3431,84.675)"
   class="st0"
   cx="62.423"
   cy="21.952"
   rx="11.236"
   ry="11.177"
   id="ellipse14389" />
				</g>
			</g>
		</g>
	</g>
	<g
   id="g14407">
		<g
   id="g14405">
			<g
   id="g14403">
				<g
   id="g14401">
					<path
   class="st7"
   d="m 42.032,68.013 c 0.308,-0.004 0.614,-0.115 0.861,-0.336 0.188,-0.168 0.385,-0.331 0.582,-0.488 1.681,-1.341 3.616,-2.547 5.752,-3.581 0.655,-0.318 0.929,-1.107 0.612,-1.762 -0.318,-0.655 -1.103,-0.93 -1.763,-0.612 -2.31,1.12 -4.412,2.43 -6.247,3.894 -0.236,0.189 -0.47,0.383 -0.694,0.584 -0.543,0.486 -0.59,1.32 -0.103,1.863 0.264,0.295 0.632,0.443 1,0.438 z m 14.063,-6.976 c 0.103,-10e-4 0.207,-0.014 0.311,-0.042 2.469,-0.635 5.014,-1.047 7.568,-1.224 0.726,-0.051 1.275,-0.681 1.224,-1.407 -0.051,-0.727 -0.645,-1.273 -1.407,-1.225 -2.712,0.189 -5.418,0.626 -8.041,1.301 -0.706,0.181 -1.13,0.9 -0.949,1.606 0.153,0.602 0.7,0.999 1.294,0.991 z m -27.929,37.46 c -1.916,0.472 -3.829,1.003 -5.687,1.58 -0.695,0.216 -1.084,0.954 -0.869,1.65 0.177,0.572 0.708,0.937 1.278,0.929 0.122,-0.002 0.248,-0.022 0.373,-0.06 1.808,-0.561 3.67,-1.078 5.535,-1.538 0.708,-0.174 1.139,-0.889 0.966,-1.596 -0.174,-0.708 -0.887,-1.135 -1.596,-0.965 z m 78.203,-17.582 c -0.669,-0.29 -1.444,0.018 -1.735,0.684 -0.291,0.668 0.015,1.445 0.684,1.736 3.062,1.331 4.725,2.686 4.942,4.028 0.106,0.654 0.675,1.117 1.319,1.108 0.064,-0.001 0.129,-0.006 0.194,-0.017 0.719,-0.116 1.208,-0.794 1.091,-1.513 -0.5,-3.088 -3.947,-4.918 -6.495,-6.026 z M 57.81,74.992 c -0.056,0.726 0.489,1.359 1.215,1.415 2.634,0.2 5.278,0.35 7.926,0.5 0.032,0.002 0.063,0.002 0.094,0.002 0.687,-0.01 1.258,-0.549 1.297,-1.245 0.041,-0.728 -0.515,-1.351 -1.242,-1.392 -2.629,-0.148 -5.258,-0.298 -7.874,-0.496 -0.749,-0.048 -1.361,0.489 -1.416,1.216 z m 17.02,2.399 c 0.582,0.043 1.162,0.088 1.743,0.135 2.164,0.177 4.179,0.35 6.103,0.546 0.052,0.006 0.103,0.008 0.153,0.007 0.661,-0.009 1.225,-0.513 1.292,-1.185 0.074,-0.725 -0.453,-1.372 -1.178,-1.446 -1.939,-0.198 -3.972,-0.372 -6.155,-0.551 -0.588,-0.048 -1.176,-0.094 -1.766,-0.136 -0.704,-0.061 -1.36,0.493 -1.412,1.219 -0.053,0.726 0.493,1.358 1.22,1.411 z m -30.9,18.395 c -2.73,0.291 -5.394,0.656 -7.923,1.086 -0.717,0.122 -1.201,0.804 -1.079,1.522 0.111,0.65 0.679,1.107 1.318,1.098 0.067,-0.001 0.135,-0.007 0.205,-0.018 2.473,-0.421 5.084,-0.779 7.758,-1.064 0.724,-0.077 1.25,-0.727 1.173,-1.452 -0.08,-0.724 -0.72,-1.259 -1.452,-1.172 z m 47.58,-0.968 c -2.655,0.032 -5.286,0.036 -7.895,0.027 -0.701,-0.005 -1.321,0.586 -1.324,1.315 -0.003,0.729 0.587,1.321 1.315,1.324 2.625,0.008 5.268,0.005 7.936,-0.028 0.001,0 0.003,0 0.003,0 0.728,-0.01 1.31,-0.607 1.301,-1.335 -0.01,-0.728 -0.607,-1.312 -1.336,-1.303 z m 8.119,-14.899 c 0.199,-0.701 -0.209,-1.431 -0.91,-1.629 -2.59,-0.732 -5.155,-1.316 -7.843,-1.784 -0.713,-0.124 -1.402,0.356 -1.526,1.073 -0.125,0.718 0.355,1.401 1.073,1.526 2.599,0.453 5.078,1.017 7.579,1.725 0.125,0.036 0.253,0.052 0.377,0.05 0.569,-0.008 1.088,-0.386 1.25,-0.961 z m 6.638,11.617 c -0.443,0.206 -0.891,0.405 -1.335,0.602 -0.517,0.23 -1.027,0.456 -1.511,0.686 -1.064,0.503 -2.542,0.949 -4.274,1.288 -0.716,0.139 -1.181,0.833 -1.043,1.548 0.125,0.636 0.686,1.075 1.312,1.066 0.077,-0.001 0.157,-0.009 0.235,-0.024 1.974,-0.386 3.621,-0.887 4.897,-1.492 0.466,-0.22 0.956,-0.438 1.454,-0.659 0.457,-0.204 0.921,-0.41 1.376,-0.622 0.661,-0.307 0.947,-1.092 0.639,-1.753 -0.305,-0.662 -1.091,-0.95 -1.75,-0.64 z m -46.419,3.303 c -0.004,0 -0.006,0 -0.01,0 -2.849,0.063 -5.452,0.162 -7.956,0.305 -0.727,0.041 -1.283,0.665 -1.242,1.392 0.041,0.708 0.632,1.254 1.334,1.244 0.019,0 0.039,-0.001 0.058,-0.002 2.473,-0.141 5.045,-0.239 7.863,-0.301 0.729,-0.016 1.307,-0.619 1.29,-1.348 -0.016,-0.724 -0.613,-1.3 -1.337,-1.29 z M 51.272,75.612 c 0.644,-0.009 1.2,-0.488 1.288,-1.145 0.096,-0.722 -0.411,-1.386 -1.134,-1.481 -1.172,-0.156 -2.338,-0.333 -3.5,-0.533 -1.43,-0.248 -2.798,-0.634 -3.855,-1.089 -0.674,-0.29 -1.445,0.022 -1.734,0.69 -0.288,0.669 0.021,1.445 0.69,1.733 1.59,0.685 3.298,1.067 4.448,1.266 1.195,0.207 2.397,0.388 3.602,0.549 0.066,0.007 0.132,0.01 0.195,0.01 z m 24.434,19.183 c -2.661,-0.02 -5.301,-0.037 -7.926,-0.036 -0.006,0 -0.013,0 -0.018,0 -0.72,0.01 -1.301,0.597 -1.301,1.32 0,0.729 0.592,1.32 1.32,1.319 2.617,-10e-4 5.252,0.016 7.905,0.037 0.009,0 0.019,0 0.028,0 0.716,-0.01 1.296,-0.59 1.301,-1.309 0.006,-0.731 -0.581,-1.325 -1.309,-1.331 z"
   id="path14399" />
				</g>
			</g>
		</g>
	</g>
</g>
</svg>
