<?xml version="1.0" encoding="UTF-8" standalone="no"?>
<!-- Generator: Adobe Illustrator 19.0.0, SVG Export Plug-In . SVG Version: 6.00 Build 0)  -->

<svg
   version="1.1"
   id="Capa_1"
   x="0px"
   y="0px"
   viewBox="0 0 24 23.999998"
   xml:space="preserve"
   sodipodi:docname="destinations.svg"
   width="24"
   height="23.999998"
   inkscape:version="1.2.1 (9c6d41e410, 2022-07-14)"
   xmlns:inkscape="http://www.inkscape.org/namespaces/inkscape"
   xmlns:sodipodi="http://sodipodi.sourceforge.net/DTD/sodipodi-0.dtd"
   xmlns="http://www.w3.org/2000/svg"
   xmlns:svg="http://www.w3.org/2000/svg"><defs
   id="defs47" /><sodipodi:namedview
   id="namedview45"
   pagecolor="#ffffff"
   bordercolor="#111111"
   borderopacity="1"
   inkscape:showpageshadow="0"
   inkscape:pageopacity="0"
   inkscape:pagecheckerboard="1"
   inkscape:deskcolor="#d1d1d1"
   showgrid="false"
   inkscape:zoom="33.916669"
   inkscape:cx="11.999999"
   inkscape:cy="11.999999"
   inkscape:window-width="1920"
   inkscape:window-height="1017"
   inkscape:window-x="-8"
   inkscape:window-y="-8"
   inkscape:window-maximized="1"
   inkscape:current-layer="Capa_1" />


















<g
   id="g297"
   transform="scale(0.046875,0.04918496)"><polygon
     style="fill:#dcf4ff"
     points="255.499,499.977 405.793,439.859 512,499.977 512,179.35 405.793,119.233 255.499,179.35 105.205,119.233 0,179.35 0,499.977 105.205,439.859 "
     id="polygon2"
     transform="translate(0,-12.023)" /><g
     id="g8"
     transform="translate(0,-12.023)">
	<polygon
   style="fill:#ace3fc"
   points="105.205,439.859 105.205,119.233 0,179.35 0,499.977 "
   id="polygon4" />
	<polygon
   style="fill:#ace3fc"
   points="405.793,439.859 405.793,119.233 255.499,179.35 255.499,499.977 "
   id="polygon6" />
</g><path
     style="fill:#ffab15"
     d="m 255.499,0 c -66.404,0 -120.235,53.831 -120.235,120.235 0,44.908 17.84,87.977 49.595,119.732 l 70.64,70.64 70.64,-70.64 C 357.894,208.212 375.734,165.143 375.734,120.235 375.734,53.832 321.903,0 255.499,0 Z m 0,150.294 c -16.601,0 -30.059,-13.457 -30.059,-30.059 0,-16.602 13.457,-30.059 30.059,-30.059 16.602,0 30.059,13.457 30.059,30.059 0,16.602 -13.458,30.059 -30.059,30.059 z"
     id="path10" /><path
     style="fill:#ff9400"
     d="m 255.499,0 v 90.177 c 16.601,0 30.059,13.457 30.059,30.059 0,16.602 -13.457,30.059 -30.059,30.059 v 160.312 l 70.64,-70.64 C 357.894,208.212 375.734,165.143 375.734,120.235 375.734,53.832 321.903,0 255.499,0 Z"
     id="path12" /><g
     id="g14"
     transform="translate(0,-12.023)">
</g><g
     id="g16"
     transform="translate(0,-12.023)">
</g><g
     id="g18"
     transform="translate(0,-12.023)">
</g><g
     id="g20"
     transform="translate(0,-12.023)">
</g><g
     id="g22"
     transform="translate(0,-12.023)">
</g><g
     id="g24"
     transform="translate(0,-12.023)">
</g><g
     id="g26"
     transform="translate(0,-12.023)">
</g><g
     id="g28"
     transform="translate(0,-12.023)">
</g><g
     id="g30"
     transform="translate(0,-12.023)">
</g><g
     id="g32"
     transform="translate(0,-12.023)">
</g><g
     id="g34"
     transform="translate(0,-12.023)">
</g><g
     id="g36"
     transform="translate(0,-12.023)">
</g><g
     id="g38"
     transform="translate(0,-12.023)">
</g><g
     id="g40"
     transform="translate(0,-12.023)">
</g><g
     id="g42"
     transform="translate(0,-12.023)">
</g></g>
</svg>
