<?xml version="1.0" encoding="UTF-8" standalone="no"?>
<svg
   viewBox="0 0 23.999998 24"
   version="1.1"
   id="svg68"
   sodipodi:docname="drivers.svg"
   width="23.999998"
   height="24"
   inkscape:version="1.2.1 (9c6d41e410, 2022-07-14)"
   xmlns:inkscape="http://www.inkscape.org/namespaces/inkscape"
   xmlns:sodipodi="http://sodipodi.sourceforge.net/DTD/sodipodi-0.dtd"
   xmlns="http://www.w3.org/2000/svg"
   xmlns:svg="http://www.w3.org/2000/svg"
   xmlns:rdf="http://www.w3.org/1999/02/22-rdf-syntax-ns#"
   xmlns:cc="http://creativecommons.org/ns#"
   xmlns:dc="http://purl.org/dc/elements/1.1/">
  <sodipodi:namedview
     id="namedview70"
     pagecolor="#ffffff"
     bordercolor="#000000"
     borderopacity="0.25"
     inkscape:showpageshadow="2"
     inkscape:pageopacity="0.0"
     inkscape:pagecheckerboard="true"
     inkscape:deskcolor="#d1d1d1"
     showgrid="false"
     inkscape:zoom="34.875"
     inkscape:cx="12"
     inkscape:cy="12.014337"
     inkscape:window-width="1920"
     inkscape:window-height="1017"
     inkscape:window-x="-8"
     inkscape:window-y="-8"
     inkscape:window-maximized="1"
     inkscape:current-layer="svg68" />
  <defs
     id="defs4">
    <style
       id="style2">.cls-1{fill:#f7bb38;}.cls-2{fill:#9e4830;}.cls-3{fill:#fcc8bc;}.cls-4{fill:#fab3a7;}.cls-5{fill:#e88032;}.cls-6{fill:#27273d;}.cls-7{fill:#f58d89;}.cls-8{fill:#fff;}.cls-9{fill:#c5e8fc;}.cls-10{fill:#accedd;}.cls-11{fill:#7cc8fb;}.cls-12{fill:#3e436d;}.cls-13{fill:#f6c752;}</style>
  </defs>
  <title
     id="title6">Public Transport</title>
  <g
     id="g8601">
    <rect
       class="cls-2"
       x="3.3258557"
       y="4.7092209"
       width="2.401042"
       height="3.5632434"
       id="rect11"
       style="stroke-width:0.0644461" />
    <rect
       class="cls-2"
       x="18.857515"
       y="4.7092209"
       width="2.401042"
       height="3.5632434"
       id="rect13"
       style="stroke-width:0.0644461" />
    <path
       class="cls-3"
       d="M 23.997394,21.988799 C 16.845502,24.680602 7.0754752,24.641382 -2.688e-7,21.893141 0.78153237,19.208512 1.9434109,16.526275 6.7628622,15.232028 7.2639114,15.097151 7.9203989,15.123935 8.3875817,14.9661 c 2.4956943,-0.842743 0.3473478,-1.500388 1.8166293,-2.380437 0.844924,-0.506985 4.048339,-0.225752 4.507706,0.1564 0.419423,0.349628 -0.48455,1.119193 -0.125913,1.53052 0.547941,0.627514 1.509226,0.56438 2.474853,0.888659 4.882843,1.638613 6.199291,3.781342 6.936537,6.828513 -0.265721,0.09757 -0.653883,-2.703282 0,-9.56e-4 z"
       id="path15"
       style="stroke-width:0.0644461" />
    <path
       class="cls-3"
       d="m 20.057601,6.2976141 v 2.914207 c 0,2.1738179 -3.140893,2.8697259 -5.430784,3.9755269 a 3.5238438,1.9408915 0 0 1 -4.6944058,0 C 7.6425206,12.081547 4.5016277,11.385639 4.5016277,9.2118211 v -2.914207 c 0,-2.1374677 2.8908024,-3.8808263 6.5127723,-3.9664398 0.09378,-0.00287 2.251682,-0.00383 2.251682,-0.00383 3.74962,0 6.791519,1.7763605 6.791519,3.9702661 z"
       id="path17"
       style="stroke-width:0.0644461" />
    <path
       class="cls-4"
       d="m 7.6060491,9.2118211 v -2.914207 c 0,-2.0805514 2.7379689,-3.7880385 6.2253419,-3.9563958 -0.187568,-0.00957 -2.536508,-0.01387 -2.536508,-0.01387 -3.7522249,0 -6.7932553,1.7777953 -6.7932553,3.9697879 V 7.738695 a 1.5569867,0.85756985 0 0 0 0,1.7146614 h 0.015631 C 4.7421661,11.437772 7.7302259,12.123158 9.9315428,13.184 a 3.5151601,1.9361086 0 0 0 3.8998482,0.294147 3.6289166,1.9987643 0 0 1 -0.795427,-0.29319 C 10.746074,12.082026 7.6060491,11.38516 7.6060491,9.2118211 Z"
       id="path19"
       style="stroke-width:0.0644461" />
    <ellipse
       class="cls-3"
       cx="20.056732"
       cy="8.5977001"
       id="circle21"
       rx="1.5561184"
       ry="0.85709155"
       style="stroke-width:0.0644461" />
    <path
       class="cls-5"
       d="M 10.249366,7.5875561 A 0.30132425,0.16596583 0 0 1 10.085244,7.560772 c -1.5161731,-0.5390303 -3.3258553,0 -3.3440911,0.00574 A 0.3039745,0.16742556 0 0 1 6.4459073,7.2737993 c 0.086837,-0.026784 2.1422678,-0.6432969 3.9684487,0.00574 a 0.30392936,0.16740069 0 0 1 -0.16499,0.3080168 z"
       id="path23"
       style="stroke-width:0.0644461" />
    <ellipse
       class="cls-6"
       cx="8.3953962"
       cy="8.4939108"
       rx="0.6504088"
       ry="0.51559412"
       id="ellipse25"
       style="stroke-width:0.0644461" />
    <path
       class="cls-5"
       d="m 17.809392,7.5875561 a 0.30132425,0.16596583 0 0 1 -0.16499,-0.026784 c -1.516174,-0.5390303 -3.325856,0 -3.344092,0.00574 A 0.30397444,0.16742552 0 0 1 14.005065,7.2737993 c 0.08684,-0.026784 2.142267,-0.6432969 3.969317,0.00574 a 0.30392936,0.16740069 0 0 1 -0.16499,0.3080168 z"
       id="path27"
       style="stroke-width:0.0644461" />
    <ellipse
       class="cls-6"
       cx="15.955422"
       cy="8.4939108"
       rx="0.6504088"
       ry="0.51559412"
       id="ellipse29"
       style="stroke-width:0.0644461" />
    <rect
       class="cls-4"
       x="11.12034"
       y="9.4547911"
       width="2.2612345"
       height="0.47206995"
       rx="0.39337143"
       id="rect31"
       style="stroke-width:0.0644461" />
    <path
       class="cls-6"
       d="M 9.5781164,8.2815515 A 0.30740284,0.16931385 0 0 1 9.4270201,8.2595503 2.0936391,1.1531516 0 0 0 7.3759311,8.255724 0.30403479,0.16745876 0 0 1 7.0511609,7.9725777 c 0.052102,-0.018175 1.2938707,-0.4395464 2.6780518,-0.00383 A 0.30392936,0.16740069 0 0 1 9.5781164,8.2815515 Z"
       id="path33"
       style="stroke-width:0.0644461" />
    <path
       class="cls-6"
       d="m 17.137274,8.2815515 a 0.30219262,0.16644412 0 0 1 -0.150228,-0.022001 2.0945075,1.1536299 0 0 0 -2.051958,-0.00383 0.30403479,0.16745876 0 0 1 -0.32477,-0.2831463 c 0.0521,-0.018175 1.293003,-0.4395464 2.678052,-0.00383 a 0.30392936,0.16740069 0 0 1 -0.151096,0.3128001 z"
       id="path35"
       style="stroke-width:0.0644461" />
    <path
       class="cls-7"
       d="m 4.5459146,8.2566806 a 0.61914752,0.34101913 0 0 0 0,0.6820382 z"
       id="path37"
       style="stroke-width:0.0644461" />
    <path
       class="cls-4"
       d="m 20.057601,8.9387188 a 0.61914752,0.34101913 0 0 0 0,-0.6820382 z"
       id="path39"
       style="stroke-width:0.0644461" />
    <path
       class="cls-8"
       d="m 10.445618,10.799736 a 0.15370142,0.08465692 0 0 0 -0.152833,0.09088 c 0.08684,0.564379 0.928287,1.087148 1.958173,1.087148 v 0 c 1.029886,0 1.87481,-0.522769 1.958173,-1.087148 a 0.15370142,0.08465692 0 0 0 -0.152833,-0.09088 z"
       id="path41"
       style="stroke-width:0.0644461" />
    <path
       class="cls-9"
       d="M 23.997394,21.988799 C 16.836818,24.683472 7.0798171,24.642817 -2.688e-7,21.893141 0.88747346,18.841666 2.5477961,15.630442 8.3884501,14.865182 c 0,0 3.5429479,1.445863 3.9484769,1.368381 v 0 c 0,0 4.07439,-1.302378 4.689195,-1.1565 5.21456,1.243548 6.326941,4.236673 6.973877,6.910301 -0.268326,0.09996 -0.656488,-2.700891 -0.0026,0.0014 z"
       id="path43"
       style="stroke-width:0.0644461" />
    <path
       class="cls-10"
       d="m 12.337795,16.5808 -2.5825312,1.928934 a 0.46978795,0.25875365 0 0 1 -0.8206093,-0.06457 c 0,0 -2.170924,-3.19544 -2.170924,-3.213615 0.1172299,-0.02535 1.3537883,-0.439068 1.7627903,-0.506507 z"
       id="path45"
       style="stroke-width:0.0644461" />
    <path
       class="cls-6"
       d="m 14.266444,23.941169 a 21.528619,11.857709 0 0 1 -4.4668933,-0.01052 l 1.8088143,-6.090037 -0.652146,-0.228144 -0.347348,-0.121485 1.471887,-1.068495 0.26051,-0.187488 1.702005,1.255983 -1.128881,0.374021 z"
       id="path47"
       style="stroke-width:0.0644461" />
    <rect
       class="cls-11"
       x="14.680656"
       y="18.915321"
       width="4.8168464"
       height="0.7576077"
       rx="0.31261304"
       id="rect49"
       style="stroke-width:0.0644461" />
    <path
       class="cls-8"
       d="M 9.0510161,14.564339 7.7432515,14.907271 A 0.36297849,0.19992426 0 0 0 7.5591571,15.15885 l 1.804472,2.623887 a 0.39684491,0.21857748 0 0 0 0.6894859,0.05309 l 2.170924,-1.600829 c 0,0 -2.092771,-1.266506 -2.7588106,-1.63144 a 0.36297849,0.19992426 0 0 0 -0.4142123,-0.03922 z"
       id="path51"
       style="stroke-width:0.0644461" />
    <path
       class="cls-8"
       d="m 15.009768,14.60308 c -0.666039,0.364934 -2.75881,1.631439 -2.75881,1.631439 l 2.170924,1.600829 a 0.39684491,0.21857748 0 0 0 0.689486,-0.05309 l 1.803603,-2.623408 a 0.36384686,0.20040255 0 0 0 -0.183226,-0.251579 l -1.308633,-0.342932 a 0.36124175,0.19896768 0 0 0 -0.413344,0.03874 z"
       id="path53"
       style="stroke-width:0.0644461" />
    <path
       class="cls-10"
       d="M 11.608365,17.84061 9.7995507,23.930647 Q 9.2264267,23.89621 8.6645916,23.844555 L 10.956219,17.612466 Z"
       id="path55"
       style="stroke-width:0.0644461" />
    <ellipse
       class="cls-2"
       cx="5.3934436"
       cy="5.4711328"
       id="circle57"
       rx="2.0684564"
       ry="1.1392813"
       style="stroke-width:0.0644461" />
    <ellipse
       class="cls-2"
       cx="18.857515"
       cy="5.4711328"
       id="circle59"
       rx="2.0684564"
       ry="1.1392813"
       style="stroke-width:0.0644461" />
    <path
       class="cls-12"
       d="m 23.462478,3.2695747 c 0,0.4075011 -0.254432,0.7982622 -0.71901,1.1584128 -0.715537,0.5548138 -1.932122,1.0383626 -3.487372,1.401383 -1.899125,0.4443293 -4.30364,0.7097789 -6.918301,0.7097789 -2.6146609,0 -5.0191763,-0.2654496 -6.919169,-0.7097789 C 3.8642445,5.4663501 2.6467903,4.9828013 1.9321221,4.4279875 1.4675444,4.0678369 1.2131121,3.6770758 1.2131121,3.2695747 1.2131121,1.4635604 6.1940801,0 12.337795,0 18.48151,0 23.462478,1.4635604 23.462478,3.2695747 Z"
       id="path61"
       style="stroke-width:0.164;opacity:0.84513274;fill:#27273d;fill-opacity:1;stroke:#ffffff;stroke-opacity:1;stroke-dasharray:none" />
    <path
       class="cls-6"
       d="M 22.743468,4.4279875 H 1.9321221 c 0.6269628,0.4868969 1.6412185,0.9187907 2.929879,1.2626796 a 2.9941384,1.649136 0 0 0 2.9871914,1.5439127 h 8.8573695 a 2.9941384,1.649136 0 0 0 2.98285,-1.5118675 c 1.346841,-0.3486717 2.406252,-0.7925227 3.054056,-1.2947248 z"
       id="path63"
       style="stroke-width:0.0644461" />
    <polygon
       class="cls-13"
       points="324.39,63.7 324.39,36.83 297.52,36.83 297.52,62.77 270.65,62.77 270.65,36.83 243.78,36.83 243.78,62.77 216.91,62.77 216.91,36.83 190.04,36.83 190.04,63.7 216.91,63.7 216.91,89.64 243.78,89.64 243.78,63.7 270.65,63.7 270.65,89.64 297.52,89.64 297.52,63.7 "
       id="polygon65"
       transform="matrix(0.08683696,0,0,0.04782877,-10.113901,-0.58351099)" />
  </g>
  <metadata
     id="metadata966">
    <rdf:RDF>
      <cc:Work
         rdf:about="">
        <dc:title>Public Transport</dc:title>
      </cc:Work>
    </rdf:RDF>
  </metadata>
</svg>
