<?xml version="1.0" encoding="UTF-8" standalone="no"?>
<!-- Generator: Adobe Illustrator 22.1.0, SVG Export Plug-In . SVG Version: 6.00 Build 0)  -->

<svg
   version="1.1"
   id="Layer_1"
   x="0px"
   y="0px"
   viewBox="0 0 24 23.999998"
   xml:space="preserve"
   sodipodi:docname="login.svg"
   width="24"
   height="23.999998"
   inkscape:version="1.2.1 (9c6d41e410, 2022-07-14)"
   xmlns:inkscape="http://www.inkscape.org/namespaces/inkscape"
   xmlns:sodipodi="http://sodipodi.sourceforge.net/DTD/sodipodi-0.dtd"
   xmlns="http://www.w3.org/2000/svg"
   xmlns:svg="http://www.w3.org/2000/svg"><defs
   id="defs45" /><sodipodi:namedview
   id="namedview43"
   pagecolor="#ffffff"
   bordercolor="#000000"
   borderopacity="0.25"
   inkscape:showpageshadow="2"
   inkscape:pageopacity="0.0"
   inkscape:pagecheckerboard="true"
   inkscape:deskcolor="#d1d1d1"
   showgrid="false"
   inkscape:zoom="33.916669"
   inkscape:cx="12.014741"
   inkscape:cy="11.999999"
   inkscape:window-width="1920"
   inkscape:window-height="1017"
   inkscape:window-x="-8"
   inkscape:window-y="-8"
   inkscape:window-maximized="1"
   inkscape:current-layer="Layer_1" />
<style
   type="text/css"
   id="style2">
	.st0{fill:#D8D6D7;}
	.st1{fill:#56C1B3;}
	.st2{fill:#7BEFE4;}
	.st3{fill:#FFFFFF;}
	.st4{fill:#F85252;}
	.st5{fill:#491352;}
</style>
<g
   id="g40"
   transform="matrix(0.09649405,0,0,0.09430292,-0.35123834,-0.07072719)">
	<path
   class="st0"
   d="M 245.36,2.75 H 10.64 c -2.761,0 -5,2.239 -5,5 v 152.897 c 0,2.761 2.239,5 5,5 h 234.72 c 2.761,0 5,-2.239 5,-5 V 7.75 c 0,-2.761 -2.239,-5 -5,-5 z"
   id="path4" />
	<path
   class="st1"
   d="M 232.36,16 H 23.64 c -2.76,0 -5,2.24 -5,5 v 126.9 c 0,2.76 2.24,5 5,5 h 208.72 c 2.76,0 5,-2.24 5,-5 V 21 c 0,-2.76 -2.24,-5 -5,-5 z"
   id="path6" />
	<path
   class="st2"
   d="M 232.36,15.75 H 45.39 c -2.761,0 -5,2.239 -5,5 v 126.9 c 0,2.761 2.239,5 5,5 h 186.97 c 2.761,0 5,-2.239 5,-5 V 20.75 c 0,-2.761 -2.239,-5 -5,-5 z"
   id="path8" />
	<rect
   x="114.17"
   y="165.64999"
   class="st0"
   width="27.66"
   height="65.93"
   id="rect10" />
	<rect
   x="131.09"
   y="165.64999"
   class="st3"
   width="10.74"
   height="65.93"
   id="rect12" />
	<path
   class="st0"
   d="m 191.67,236.58 v 11.67 c 0,2.76 -2.24,5 -5,5 H 69.33 c -2.76,0 -5,-2.24 -5,-5 v -11.67 c 0,-2.76 2.24,-5 5,-5 h 117.34 c 2.76,0 5,2.24 5,5 z"
   id="path14" />
	<path
   class="st3"
   d="m 191.67,236.58 v 11.67 c 0,2.76 -2.24,5 -5,5 H 85.33 c -2.76,0 -5,-2.24 -5,-5 v -11.67 c 0,-2.76 2.24,-5 5,-5 h 101.34 c 2.76,0 5,2.24 5,5 z"
   id="path16" />
	<path
   class="st3"
   d="m 167,65.5 c 0,12.79 -6.157,24.144 -15.672,31.252 -6.498,4.866 -14.577,7.748 -23.328,7.748 -8.751,0 -16.829,-2.882 -23.328,-7.748 C 95.157,89.644 89,78.29 89,65.5 c 0,-21.54 17.46,-39 39,-39 21.54,0 39,17.46 39,39 z"
   id="path18" />
	<path
   class="st4"
   d="m 151.328,86.307 v 10.445 c -6.498,4.866 -14.577,7.748 -23.328,7.748 -8.751,0 -16.829,-2.882 -23.328,-7.748 V 86.307 c 0,-4.174 1.116,-8.193 3.13,-11.674 2.015,-3.492 4.938,-6.457 8.554,-8.544 1.219,-0.703 2.479,-1.271 3.771,-1.736 -3.285,-2.417 -5.434,-6.302 -5.434,-10.703 0,-7.346 5.961,-13.296 13.306,-13.296 7.345,0 13.306,5.951 13.306,13.296 0,4.401 -2.149,8.286 -5.434,10.703 1.291,0.465 2.552,1.033 3.771,1.736 7.233,4.163 11.686,11.87 11.686,20.218 z"
   id="path20" />
	<path
   class="st3"
   d="M 176.937,141.25 H 79.062 c -5.523,0 -10,-4.477 -10,-10 v -6.5 c 0,-5.523 4.477,-10 10,-10 h 97.875 c 5.523,0 10,4.477 10,10 v 6.5 c 0,5.523 -4.477,10 -10,10 z"
   id="path22" />
	<g
   id="g38">
		<path
   class="st5"
   d="M 245.36,0.75 H 10.64 c -3.859,0 -7,3.14 -7,7 v 152.896 c 0,3.86 3.141,7 7,7 h 101.53 v 61.932 H 69.333 c -3.859,0 -7,3.14 -7,7 v 11.671 c 0,3.86 3.141,7 7,7 h 117.334 c 3.859,0 7,-3.14 7,-7 v -11.671 c 0,-3.86 -3.141,-7 -7,-7 H 143.83 v -61.932 h 101.53 c 3.859,0 7,-3.14 7,-7 V 7.75 c 0,-3.86 -3.14,-7 -7,-7 z m -58.693,232.829 c 1.654,0 3,1.345 3,3 v 11.671 c 0,1.654 -1.346,3 -3,3 H 69.333 c -1.654,0 -3,-1.346 -3,-3 v -11.671 c 0,-1.654 1.346,-3 3,-3 h 44.822 c 0.005,0 0.01,0.001 0.015,0.001 h 27.66 c 0.005,0 0.01,-0.001 0.015,-0.001 z m -70.497,-4 v -61.932 h 23.66 v 61.932 z m 132.19,-68.933 c 0,1.654 -1.346,3 -3,3 H 10.64 c -1.654,0 -3,-1.346 -3,-3 V 7.75 c 0,-1.654 1.346,-3 3,-3 h 234.72 c 1.654,0 3,1.346 3,3 z"
   id="path24" />
		<path
   class="st5"
   d="M 232.36,13.75 H 23.641 c -3.859,0 -7,3.14 -7,7 v 126.896 c 0,3.86 3.141,7 7,7 h 208.72 c 3.859,0 7,-3.14 7,-7 V 20.75 c -10e-4,-3.86 -3.141,-7 -7.001,-7 z m 3.001,133.896 h -10e-4 c 0,1.654 -1.346,3 -3,3 H 23.641 c -1.654,0 -3,-1.346 -3,-3 V 20.75 c 0,-1.654 1.346,-3 3,-3 h 208.72 c 1.654,0 3,1.346 3,3 z"
   id="path26" />
		<path
   class="st5"
   d="m 128,106.5 c 22.251,0 41,-17.899 41,-41 0,-22.607 -18.393,-41 -41,-41 -22.607,0 -41,18.393 -41,41 0,23.098 18.746,41 41,41 z m 21.33,-10.773 c -12.771,9.056 -29.938,9.026 -42.658,-0.001 v -9.418 c 0,-3.747 0.989,-7.437 2.863,-10.675 2.417,-4.19 6.297,-7.607 11.27,-9.397 1.503,-0.54 1.797,-2.545 0.509,-3.493 -2.937,-2.16 -4.62,-5.474 -4.62,-9.092 0,-6.229 5.072,-11.296 11.307,-11.296 6.235,0 11.307,5.067 11.307,11.296 0,3.618 -1.684,6.932 -4.62,9.092 -1.286,0.946 -0.996,2.952 0.509,3.493 8.796,3.168 14.133,11.41 14.133,20.072 z M 128,28.5 c 20.402,0 37,16.598 37,37 0,10.38 -4.21,19.999 -11.672,26.97 v -6.163 c 0,-9.73 -5.59,-18.398 -13.84,-22.574 2.43,-2.768 3.818,-6.357 3.818,-10.083 0,-8.435 -6.866,-15.296 -15.307,-15.296 -8.441,0 -15.307,6.862 -15.307,15.296 0,3.725 1.389,7.314 3.818,10.083 -4.234,2.138 -7.952,5.585 -10.44,9.898 -2.224,3.844 -3.399,8.227 -3.399,12.676 v 6.162 C 95.21,85.5 91,75.881 91,65.5 c 0,-20.402 16.598,-37 37,-37 z"
   id="path28" />
		<path
   class="st5"
   d="M 176.937,112.75 H 79.062 c -6.617,0 -12,5.383 -12,12 v 6.5 c 0,6.617 5.383,12 12,12 h 97.875 c 6.617,0 12,-5.383 12,-12 v -6.5 c 0,-6.617 -5.382,-12 -12,-12 z m 8,18.5 c 0,4.411 -3.589,8 -8,8 H 79.062 c -4.411,0 -8,-3.589 -8,-8 v -6.5 c 0,-4.411 3.589,-8 8,-8 h 97.875 c 4.411,0 8,3.589 8,8 z"
   id="path30" />
		<path
   class="st5"
   d="m 112.789,123.792 c -0.554,-0.957 -1.777,-1.287 -2.732,-0.732 l -2.557,1.476 v -2.952 c 0,-1.104 -0.896,-2 -2,-2 -1.104,0 -2,0.896 -2,2 v 2.952 l -2.557,-1.476 c -0.96,-0.555 -2.18,-0.225 -2.732,0.732 -0.552,0.957 -0.225,2.18 0.732,2.732 l 2.557,1.476 -2.557,1.477 c -0.957,0.552 -1.284,1.775 -0.732,2.732 0.555,0.959 1.781,1.283 2.732,0.732 l 2.557,-1.476 v 2.952 c 0,1.104 0.896,2 2,2 1.104,0 2,-0.896 2,-2 v -2.952 l 2.557,1.476 c 0.958,0.553 2.179,0.225 2.732,-0.732 0.552,-0.957 0.225,-2.18 -0.732,-2.732 L 109.5,128 l 2.557,-1.477 c 0.957,-0.552 1.284,-1.775 0.732,-2.731 z"
   id="path32" />
		<path
   class="st5"
   d="m 135.289,123.792 c -0.554,-0.957 -1.777,-1.287 -2.732,-0.732 L 130,124.536 v -2.952 c 0,-1.104 -0.896,-2 -2,-2 -1.104,0 -2,0.896 -2,2 v 2.952 l -2.557,-1.476 c -0.96,-0.555 -2.18,-0.225 -2.732,0.732 -0.552,0.957 -0.225,2.18 0.732,2.732 L 124,128 l -2.557,1.477 c -0.957,0.552 -1.284,1.775 -0.732,2.732 0.555,0.959 1.781,1.283 2.732,0.732 L 126,131.465 v 2.952 c 0,1.104 0.896,2 2,2 1.104,0 2,-0.896 2,-2 v -2.952 l 2.557,1.476 c 0.958,0.553 2.179,0.225 2.732,-0.732 0.552,-0.957 0.225,-2.18 -0.732,-2.732 L 132,128 l 2.557,-1.477 c 0.957,-0.552 1.284,-1.775 0.732,-2.731 z"
   id="path34" />
		<path
   class="st5"
   d="m 157.789,123.792 c -0.553,-0.957 -1.777,-1.287 -2.732,-0.732 l -2.557,1.476 v -2.952 c 0,-1.104 -0.896,-2 -2,-2 -1.104,0 -2,0.896 -2,2 v 2.952 l -2.557,-1.476 c -0.961,-0.555 -2.18,-0.225 -2.732,0.732 -0.552,0.957 -0.225,2.18 0.732,2.732 l 2.557,1.476 -2.557,1.477 c -0.957,0.552 -1.284,1.775 -0.732,2.732 0.555,0.959 1.781,1.283 2.732,0.732 l 2.557,-1.476 v 2.952 c 0,1.104 0.896,2 2,2 1.104,0 2,-0.896 2,-2 v -2.952 l 2.557,1.476 c 0.958,0.553 2.179,0.225 2.732,-0.732 0.552,-0.957 0.225,-2.18 -0.732,-2.732 L 154.5,128 l 2.557,-1.477 c 0.957,-0.552 1.284,-1.775 0.732,-2.731 z"
   id="path36" />
	</g>
</g>
</svg>
