<?xml version="1.0" encoding="UTF-8" standalone="no"?>
<svg
   viewBox="0 0 24 24"
   version="1.1"
   id="svg12008"
   sodipodi:docname="pickupPoints.svg"
   width="24"
   height="24"
   inkscape:version="1.2.1 (9c6d41e410, 2022-07-14)"
   xmlns:inkscape="http://www.inkscape.org/namespaces/inkscape"
   xmlns:sodipodi="http://sodipodi.sourceforge.net/DTD/sodipodi-0.dtd"
   xmlns="http://www.w3.org/2000/svg"
   xmlns:svg="http://www.w3.org/2000/svg"
   xmlns:rdf="http://www.w3.org/1999/02/22-rdf-syntax-ns#"
   xmlns:cc="http://creativecommons.org/ns#"
   xmlns:dc="http://purl.org/dc/elements/1.1/">
  <sodipodi:namedview
     id="namedview12010"
     pagecolor="#ffffff"
     bordercolor="#000000"
     borderopacity="0.25"
     inkscape:showpageshadow="2"
     inkscape:pageopacity="0.0"
     inkscape:pagecheckerboard="true"
     inkscape:deskcolor="#d1d1d1"
     showgrid="false"
     inkscape:zoom="33.916667"
     inkscape:cx="11.985258"
     inkscape:cy="12"
     inkscape:window-width="1920"
     inkscape:window-height="1017"
     inkscape:window-x="-8"
     inkscape:window-y="-8"
     inkscape:window-maximized="1"
     inkscape:current-layer="svg12008" />
  <defs
     id="defs11969">
    <style
       id="style11967">.cls-1{fill:#db5669;}.cls-2{fill:#f26674;}.cls-3{fill:#edebf2;}.cls-4{fill:#dad7e5;}.cls-5{fill:#9dcc6b;}.cls-6{fill:#7c7d7d;}.cls-7{fill:#a87e6b;}.cls-8{fill:#be927c;}.cls-9{fill:#f6ccaf;}.cls-10{fill:#b5e08c;}.cls-11{fill:#919191;}</style>
  </defs>
  <title
     id="title11971">Map Delivery</title>
  <g
     id="Map_Delivery"
     data-name="Map Delivery"
     transform="matrix(0.60929789,0,0,0.52152369,-2.6254591,-0.52152369)">
    <path
       class="cls-1"
       d="m 36,13 c 0,5.15 -7.58,16.65 -10.36,20.67 a 2,2 0 0 1 -3.28,0 C 19.39,29.39 12,18.2 12,13 a 12,12 0 0 1 24,0 z"
       id="path11973" />
    <path
       class="cls-2"
       d="m 36,13 c 0,4.94 -7,15.73 -9.77,19.82 A 2,2 0 0 1 24.36,32 C 21.39,27.68 14,16.49 14,11.29 A 12,12 0 0 1 17.24,3.09 12,12 0 0 1 36,13 Z"
       id="path11975" />
    <circle
       class="cls-3"
       cx="24"
       cy="13"
       r="8"
       id="circle11977" />
    <path
       class="cls-4"
       d="M 24,5 A 8,8 0 0 0 17.44,8.44 7.87,7.87 0 0 1 22,7 8,8 0 0 1 28.56,19.56 8,8 0 0 0 24,5 Z"
       id="path11979" />
    <path
       class="cls-5"
       d="m 43.69,45 a 2,2 0 0 1 -2,2 C 2.93,47 5.92,47.14 5.18,46.66 42.29,35.5 42.25,35.49 42.36,35.49 c 1.53,10.79 1.33,9.29 1.33,9.51 z"
       id="path11981" />
    <path
       class="cls-5"
       d="m 41.18,27.21 -13.54,3.5 A 89.82,89.82 0 0 0 34.3,19 h 4 a 2,2 0 0 1 2,1.72 z"
       id="path11983" />
    <path
       class="cls-6"
       d="m 9.2,22.6 -1,-2.91 A 2,2 0 0 1 9.71,19 Z"
       id="path11985" />
    <path
       class="cls-6"
       d="M 10.7,45 5.18,46.66 A 2,2 0 0 1 4.33,44.72 l 1.12,-7.84 1.81,-0.69 -0.93,6.53 a 2,2 0 0 0 2,2.28 z"
       id="path11987" />
    <path
       class="cls-5"
       d="M 9.2,22.6 7.26,36.19 5.45,36.88 C 8.38,16.28 7.72,18.16 9.2,22.6 Z"
       id="path11989" />
    <rect
       class="cls-7"
       x="21"
       y="10"
       width="6"
       height="6"
       id="rect11991" />
    <path
       class="cls-8"
       d="m 27,10 v 5 h -1 a 4,4 0 0 1 -4,-4 v -1 z"
       id="path11993" />
    <path
       class="cls-9"
       d="m 25,10 v 1 a 1,1 0 0 1 -2,0 v -1 z"
       id="path11995" />
    <path
       class="cls-10"
       d="m 11.21,34.68 -4,1.51 1.99,-13.59 3.19,9.58 a 2,2 0 0 1 -1.18,2.5 z"
       id="path11997" />
    <path
       class="cls-11"
       d="M 42.35,35.49 C 6.17,46.36 11.68,45 8.31,45 a 2,2 0 0 1 -2,-2.28 l 0.93,-6.53 4,-1.51 a 2,2 0 0 0 1.18,-2.5 L 9.2,22.6 9.71,19 h 4 a 101.62,101.62 0 0 0 8.66,14.67 2,2 0 0 0 2.09,0.82 c 1,-0.23 1.18,-0.73 3.18,-3.78 0.1,0 -0.29,0.08 13.55,-3.5 z"
       id="path11999" />
    <path
       class="cls-10"
       d="m 41.18,27.21 -13.54,3.5 A 89.82,89.82 0 0 0 34.3,19 h 4 a 2,2 0 0 1 2,1.72 z"
       id="path12001" />
    <path
       class="cls-10"
       d="m 43.69,45 h -33 l 31.65,-9.51 c 0.09,0 1.35,9.43 1.35,9.51 z"
       id="path12003" />
    <path
       class="cls-6"
       d="m 24.45,34.49 c -0.14,0.22 -0.15,0.23 -0.81,1.18 a 2,2 0 0 1 -3.28,0 C 17.29,31.23 12.72,24.1 10.89,19 h 2.81 a 101.62,101.62 0 0 0 8.66,14.67 2,2 0 0 0 2.09,0.82 z"
       id="path12005" />
  </g>
  <metadata
     id="metadata12492">
    <rdf:RDF>
      <cc:Work
         rdf:about="">
        <dc:title>Map Delivery</dc:title>
      </cc:Work>
    </rdf:RDF>
  </metadata>
</svg>
