<?xml version="1.0" encoding="UTF-8" standalone="no"?>
<svg
   data-name="Layer 1"
   viewBox="0 0 24 24"
   version="1.1"
   id="svg50"
   sodipodi:docname="ports.svg"
   width="24"
   height="24"
   inkscape:version="1.2.1 (9c6d41e410, 2022-07-14)"
   xmlns:inkscape="http://www.inkscape.org/namespaces/inkscape"
   xmlns:sodipodi="http://sodipodi.sourceforge.net/DTD/sodipodi-0.dtd"
   xmlns="http://www.w3.org/2000/svg"
   xmlns:svg="http://www.w3.org/2000/svg">
  <defs
     id="defs54" />
  <sodipodi:namedview
     id="namedview52"
     pagecolor="#ffffff"
     bordercolor="#000000"
     borderopacity="0.25"
     inkscape:showpageshadow="2"
     inkscape:pageopacity="0.0"
     inkscape:pagecheckerboard="true"
     inkscape:deskcolor="#d1d1d1"
     showgrid="false"
     inkscape:zoom="33.916667"
     inkscape:cx="12.014742"
     inkscape:cy="12.029484"
     inkscape:window-width="1920"
     inkscape:window-height="1017"
     inkscape:window-x="-8"
     inkscape:window-y="-8"
     inkscape:window-maximized="1"
     inkscape:current-layer="svg50" />
  <path
     fill="#5c677d"
     d="m 21.94268,8.3078086 -0.12891,1.208276 a 1.1170637,0.82468966 0 0 1 -0.992075,0.446896 H 15.216758 V 6.652636 h 5.604937 a 1.1170637,0.82468966 0 0 1 0.992072,0.4468965 0.02073827,0.01531034 0 0 1 0.0056,0.012414 z"
     id="path2"
     style="fill:#ffc107;fill-opacity:1;stroke-width:0.481589" />
  <path
     fill="#a5a58d"
     d="M 4.9655172,19.034483 H 1.6551724 A 1.6551724,1.6551724 0 0 0 0,20.689655 v 0.827586 A 2.4827586,2.4827586 0 0 0 2.4827586,24 H 20.689655 A 3.3103448,3.3103448 0 0 0 24,20.689655 V 3.3103448 A 3.3103448,3.3103448 0 0 0 20.689655,0 H 9.1034483 A 2.4827586,2.4827586 0 0 0 6.6206897,2.4827586 v 0.8275862 h 4.9655173 a 7.862069,7.862069 0 0 1 7.862069,7.8620692 v 0 a 7.862069,7.862069 0 0 1 -7.862069,7.862069 z"
     id="path6"
     style="stroke-width:0.413793;fill:#ffc107;fill-opacity:1" />
  <rect
     width="4.965517"
     height="4.1379309"
     x="16.09696"
     y="19.832584"
     fill="#5c677d"
     id="rect12"
     style="stroke-width:0.413793" />
  <polygon
     fill="#2d3142"
     points="47,48 39,52 55,52 "
     id="polygon14"
     transform="matrix(0.4137931,0,0,0.4137931,-0.86855662,-1.6846564)" />
  <path
     fill="#7ccdf4"
     d="m 18.579719,21.487757 v 0 a 0.82758621,0.82758621 0 0 1 0.827587,0.827587 v 1.655172 h -1.655173 v -1.655172 a 0.82758621,0.82758621 0 0 1 0.827586,-0.827587 z"
     id="path16"
     style="stroke-width:0.413793" />
  <path
     fill="#5c677d"
     d="M 11.240219,18.206897 H 6.3425076 A 2.9386271,3.3083113 0 0 1 3.4038804,14.898585 v -1.10277 H 16.137931 l -1.763176,2.646649 a 3.9181695,4.4110818 0 0 1 -3.134536,1.764433 z"
     id="path34"
     style="stroke-width:0.12;stroke:#ffffff;stroke-opacity:1;stroke-dasharray:none" />
  <polygon
     fill="#7ccdf4"
     points="21,36 31,36 35,40 21,40 "
     id="polygon36"
     transform="matrix(0.48977118,0,0,0.55138522,-4.9222297,-8.2595944)" />
  <rect
     width="0.97954237"
     height="1.1027704"
     x="5.3629656"
     y="15.449971"
     fill="#f9c74f"
     id="rect38"
     style="stroke-width:0.519666" />
  <rect
     width="0.97954237"
     height="1.1027704"
     x="7.3220501"
     y="15.449971"
     fill="#f9c74f"
     id="rect40"
     style="stroke-width:0.519666" />
  <rect
     width="0.97954237"
     height="1.1027704"
     x="9.2811346"
     y="15.449971"
     fill="#f9c74f"
     id="rect42"
     style="stroke-width:0.519666" />
  <rect
     width="0.97954237"
     height="1.1027704"
     x="11.240219"
     y="15.449971"
     fill="#f9c74f"
     id="rect44"
     style="stroke-width:0.519666" />
</svg>
