<?xml version="1.0" encoding="UTF-8" standalone="no"?>
<!-- Generator: Adobe Illustrator 19.0.0, SVG Export Plug-In . SVG Version: 6.00 Build 0)  -->

<svg
   version="1.1"
   id="Capa_1"
   x="0px"
   y="0px"
   viewBox="0 0 21.328125 21.328125"
   xml:space="preserve"
   width="24"
   height="24"
   sodipodi:docname="reservations.svg"
   inkscape:version="1.2.1 (9c6d41e410, 2022-07-14)"
   xmlns:inkscape="http://www.inkscape.org/namespaces/inkscape"
   xmlns:sodipodi="http://sodipodi.sourceforge.net/DTD/sodipodi-0.dtd"
   xmlns="http://www.w3.org/2000/svg"
   xmlns:svg="http://www.w3.org/2000/svg"><defs
   id="defs63" /><sodipodi:namedview
   id="namedview61"
   pagecolor="#ffffff"
   bordercolor="#000000"
   borderopacity="0.25"
   inkscape:showpageshadow="2"
   inkscape:pageopacity="0.0"
   inkscape:pagecheckerboard="true"
   inkscape:deskcolor="#d1d1d1"
   showgrid="false"
   inkscape:zoom="1.6347656"
   inkscape:cx="256"
   inkscape:cy="256.30585"
   inkscape:window-width="1920"
   inkscape:window-height="1017"
   inkscape:window-x="-8"
   inkscape:window-y="-8"
   inkscape:window-maximized="1"
   inkscape:current-layer="Capa_1" />
<g
   id="g58"
   transform="scale(0.046875)">
	<polygon
   style="fill:#98d9d5"
   points="0,455 0,425 227.5,405 455,425 455,455 "
   id="polygon2" />
	<polygon
   style="fill:#c1e8e6"
   points="0,425 0,395 227.5,375 455,395 455,425 "
   id="polygon4" />
	<polygon
   style="fill:#f2ebd9"
   points="227.5,102.3 455,122.3 455,395 0,395 0,122.3 "
   id="polygon6" />
	<rect
   x="0"
   y="30"
   style="fill:#f2484b"
   width="455"
   height="92.300003"
   id="rect8" />
	<path
   style="fill:#f2484b"
   d="m 404.5,234.3 h -30 c -4.143,0 -7.5,-3.358 -7.5,-7.5 0,-4.142 3.357,-7.5 7.5,-7.5 h 30 c 4.143,0 7.5,3.358 7.5,7.5 0,4.142 -3.357,7.5 -7.5,7.5 z"
   id="path10" />
	<path
   style="fill:#185f8d"
   d="m 323.5,234.3 h -30 c -4.143,0 -7.5,-3.358 -7.5,-7.5 0,-4.142 3.357,-7.5 7.5,-7.5 h 30 c 4.143,0 7.5,3.358 7.5,7.5 0,4.142 -3.357,7.5 -7.5,7.5 z"
   id="path12" />
	<path
   style="fill:#185f8d"
   d="m 242.5,234.3 h -30 c -4.142,0 -7.5,-3.358 -7.5,-7.5 0,-4.142 3.358,-7.5 7.5,-7.5 h 30 c 4.143,0 7.5,3.358 7.5,7.5 0,4.142 -3.357,7.5 -7.5,7.5 z"
   id="path14" />
	<path
   style="fill:#185f8d"
   d="m 161.5,234.3 h -30 c -4.142,0 -7.5,-3.358 -7.5,-7.5 0,-4.142 3.358,-7.5 7.5,-7.5 h 30 c 4.142,0 7.5,3.358 7.5,7.5 0,4.142 -3.358,7.5 -7.5,7.5 z"
   id="path16" />
	<path
   style="fill:#185f8d"
   d="m 80.5,234.3 h -30 c -4.142,0 -7.5,-3.358 -7.5,-7.5 0,-4.142 3.358,-7.5 7.5,-7.5 h 30 c 4.142,0 7.5,3.358 7.5,7.5 0,4.142 -3.358,7.5 -7.5,7.5 z"
   id="path18" />
	<path
   style="fill:#185f8d"
   d="m 323.5,288.3 h -30 c -4.143,0 -7.5,-3.358 -7.5,-7.5 0,-4.142 3.357,-7.5 7.5,-7.5 h 30 c 4.143,0 7.5,3.358 7.5,7.5 0,4.142 -3.357,7.5 -7.5,7.5 z"
   id="path20" />
	<path
   style="fill:#185f8d"
   d="m 242.5,288.3 h -30 c -4.142,0 -7.5,-3.358 -7.5,-7.5 0,-4.142 3.358,-7.5 7.5,-7.5 h 30 c 4.143,0 7.5,3.358 7.5,7.5 0,4.142 -3.357,7.5 -7.5,7.5 z"
   id="path22" />
	<path
   style="fill:#185f8d"
   d="m 161.5,288.3 h -30 c -4.142,0 -7.5,-3.358 -7.5,-7.5 0,-4.142 3.358,-7.5 7.5,-7.5 h 30 c 4.142,0 7.5,3.358 7.5,7.5 0,4.142 -3.358,7.5 -7.5,7.5 z"
   id="path24" />
	<path
   style="fill:#185f8d"
   d="m 80.5,288.3 h -30 c -4.142,0 -7.5,-3.358 -7.5,-7.5 0,-4.142 3.358,-7.5 7.5,-7.5 h 30 c 4.142,0 7.5,3.358 7.5,7.5 0,4.142 -3.358,7.5 -7.5,7.5 z"
   id="path26" />
	<path
   style="fill:#185f8d"
   d="m 323.5,342.3 h -30 c -4.143,0 -7.5,-3.358 -7.5,-7.5 0,-4.142 3.357,-7.5 7.5,-7.5 h 30 c 4.143,0 7.5,3.358 7.5,7.5 0,4.142 -3.357,7.5 -7.5,7.5 z"
   id="path28" />
	<path
   style="fill:#f2484b"
   d="m 404.5,288.3 h -30 c -4.143,0 -7.5,-3.358 -7.5,-7.5 0,-4.142 3.357,-7.5 7.5,-7.5 h 30 c 4.143,0 7.5,3.358 7.5,7.5 0,4.142 -3.357,7.5 -7.5,7.5 z"
   id="path30" />
	<path
   style="fill:#f2484b"
   d="m 404.5,342.3 h -30 c -4.143,0 -7.5,-3.358 -7.5,-7.5 0,-4.142 3.357,-7.5 7.5,-7.5 h 30 c 4.143,0 7.5,3.358 7.5,7.5 0,4.142 -3.357,7.5 -7.5,7.5 z"
   id="path32" />
	<path
   style="fill:#185f8d"
   d="m 242.5,342.3 h -30 c -4.142,0 -7.5,-3.358 -7.5,-7.5 0,-4.142 3.358,-7.5 7.5,-7.5 h 30 c 4.143,0 7.5,3.358 7.5,7.5 0,4.142 -3.357,7.5 -7.5,7.5 z"
   id="path34" />
	<path
   style="fill:#185f8d"
   d="m 161.5,342.3 h -30 c -4.142,0 -7.5,-3.358 -7.5,-7.5 0,-4.142 3.358,-7.5 7.5,-7.5 h 30 c 4.142,0 7.5,3.358 7.5,7.5 0,4.142 -3.358,7.5 -7.5,7.5 z"
   id="path36" />
	<path
   style="fill:#185f8d"
   d="m 80.5,342.3 h -30 c -4.142,0 -7.5,-3.358 -7.5,-7.5 0,-4.142 3.358,-7.5 7.5,-7.5 h 30 c 4.142,0 7.5,3.358 7.5,7.5 0,4.142 -3.358,7.5 -7.5,7.5 z"
   id="path38" />
	<path
   style="fill:#f2484b"
   d="m 404.5,180.3 h -30 c -4.143,0 -7.5,-3.358 -7.5,-7.5 0,-4.142 3.357,-7.5 7.5,-7.5 h 30 c 4.143,0 7.5,3.358 7.5,7.5 0,4.142 -3.357,7.5 -7.5,7.5 z"
   id="path40" />
	<path
   style="fill:#185f8d"
   d="m 323.5,180.3 h -30 c -4.143,0 -7.5,-3.358 -7.5,-7.5 0,-4.142 3.357,-7.5 7.5,-7.5 h 30 c 4.143,0 7.5,3.358 7.5,7.5 0,4.142 -3.357,7.5 -7.5,7.5 z"
   id="path42" />
	<path
   style="fill:#185f8d"
   d="m 242.5,180.3 h -30 c -4.142,0 -7.5,-3.358 -7.5,-7.5 0,-4.142 3.358,-7.5 7.5,-7.5 h 30 c 4.143,0 7.5,3.358 7.5,7.5 0,4.142 -3.357,7.5 -7.5,7.5 z"
   id="path44" />
	<path
   style="fill:#185f8d"
   d="m 161.5,180.3 h -30 c -4.142,0 -7.5,-3.358 -7.5,-7.5 0,-4.142 3.358,-7.5 7.5,-7.5 h 30 c 4.142,0 7.5,3.358 7.5,7.5 0,4.142 -3.358,7.5 -7.5,7.5 z"
   id="path46" />
	<path
   style="fill:#185f8d"
   d="m 80.5,180.3 h -30 c -4.142,0 -7.5,-3.358 -7.5,-7.5 0,-4.142 3.358,-7.5 7.5,-7.5 h 30 c 4.142,0 7.5,3.358 7.5,7.5 0,4.142 -3.358,7.5 -7.5,7.5 z"
   id="path48" />
	<path
   style="fill:#98d9d5"
   d="m 422.5,30 v 15 c 0,8.28 -6.72,15 -15,15 -8.28,0 -15,-6.72 -15,-15 V 30 15 c 0,-8.28 6.72,-15 15,-15 8.28,0 15,6.72 15,15 z"
   id="path50" />
	<path
   style="fill:#98d9d5"
   d="m 302.5,30 v 15 c 0,8.28 -6.72,15 -15,15 -8.28,0 -15,-6.72 -15,-15 V 30 15 c 0,-8.28 6.72,-15 15,-15 8.28,0 15,6.72 15,15 z"
   id="path52" />
	<path
   style="fill:#98d9d5"
   d="m 182.5,30 v 15 c 0,8.28 -6.72,15 -15,15 -8.28,0 -15,-6.72 -15,-15 V 30 15 c 0,-8.28 6.72,-15 15,-15 8.28,0 15,6.72 15,15 z"
   id="path54" />
	<path
   style="fill:#98d9d5"
   d="m 62.5,30 v 15 c 0,8.28 -6.72,15 -15,15 -8.28,0 -15,-6.72 -15,-15 V 30 15 c 0,-8.28 6.72,-15 15,-15 8.28,0 15,6.72 15,15 z"
   id="path56" />
</g>















</svg>
