<?xml version="1.0" encoding="UTF-8" standalone="no"?>
<!-- Generator: Adobe Illustrator 19.0.0, SVG Export Plug-In . SVG Version: 6.00 Build 0)  -->

<svg
   version="1.1"
   id="Layer_1"
   x="0px"
   y="0px"
   viewBox="0 0 24 24"
   xml:space="preserve"
   sodipodi:docname="reservations.svg"
   width="24"
   height="24"
   inkscape:version="1.2.1 (9c6d41e410, 2022-07-14)"
   xmlns:inkscape="http://www.inkscape.org/namespaces/inkscape"
   xmlns:sodipodi="http://sodipodi.sourceforge.net/DTD/sodipodi-0.dtd"
   xmlns="http://www.w3.org/2000/svg"
   xmlns:svg="http://www.w3.org/2000/svg"><defs
   id="defs95" /><sodipodi:namedview
   id="namedview93"
   pagecolor="#ffffff"
   bordercolor="#000000"
   borderopacity="0.25"
   inkscape:showpageshadow="2"
   inkscape:pageopacity="0.0"
   inkscape:pagecheckerboard="true"
   inkscape:deskcolor="#d1d1d1"
   showgrid="false"
   inkscape:zoom="33.916667"
   inkscape:cx="11.601965"
   inkscape:cy="12.029484"
   inkscape:window-width="1920"
   inkscape:window-height="1017"
   inkscape:window-x="1352"
   inkscape:window-y="-8"
   inkscape:window-maximized="1"
   inkscape:current-layer="g48" />
<path
   style="fill:#f4cf31;stroke-width:0.0493865"
   d="M 24,21.346341 C 24,22.712195 22.8,24 21.4,24 H 2.6 C 1.2,24 0,22.712195 0,21.346341 V 4.1365854 C 0,2.7707317 1.2,1.7560976 2.6,1.7560976 h 18.8 c 1.4,0 2.6,1.0146341 2.6,2.3804878 z"
   id="path2" />
<path
   style="fill:#f2b233;stroke-width:0.0512989"
   d="M 0.08,2.6105263 C 0.08,1.1368421 1.2,0 2.6,0 H 21.4 C 22.8,0 24,1.0947368 24,2.5684211 V 21.136842 C 24,22.610526 22.8,24 21.4,24"
   id="path4" />
<path
   style="fill:#00233f;stroke-width:0.0507"
   d="M 21.4,0 H 2.6 C 1.2,0 0,1.0693234 0,2.5087973 V 4.9353389 H 24 V 2.5087973 C 24,1.0693234 22.8,0 21.4,0 Z"
   id="path6" />
<path
   style="fill:#104c75;stroke-width:0.0507"
   d="M 24,4.9353389 V 2.5087973 C 24,1.0693234 22.8,0 21.4,0 H 2.8"
   id="path8" />
<g
   id="g48"
   transform="matrix(0.05,0,0,0.04878049,-0.3,0)">
	<circle
   style="fill:#024651"
   cx="90"
   cy="226.79999"
   r="12.8"
   id="circle10" />
	<circle
   style="fill:#024651"
   cx="168.39999"
   cy="226.79999"
   r="12.8"
   id="circle12" />
	<circle
   style="fill:#024651"
   cx="246"
   cy="226.79999"
   r="12.8"
   id="circle14" />
	<circle
   style="fill:#024651;fill-opacity:1"
   cx="323.60001"
   cy="226.79999"
   r="12.8"
   id="circle16" />
	<circle
   style="fill:#024651"
   cx="90"
   cy="294.00003"
   r="12.8"
   id="circle18" />
	<circle
   style="fill:#024651"
   cx="168.39999"
   cy="294.00003"
   r="12.8"
   id="circle20" />
	<circle
   style="fill:#024651"
   cx="246"
   cy="294.00003"
   r="12.8"
   id="circle22" />
	<circle
   style="fill:#024651;fill-opacity:1"
   cx="323.60001"
   cy="294.00003"
   r="12.8"
   id="circle24" />
	<circle
   style="fill:#024651;fill-opacity:1"
   cx="402"
   cy="294.00003"
   r="12.8"
   id="circle26" />
	<circle
   style="fill:#024651"
   cx="90"
   cy="361.20001"
   r="12.8"
   id="circle28" />
	<circle
   style="fill:#024651;fill-opacity:1"
   cx="168.39999"
   cy="361.20001"
   r="12.8"
   id="circle30" />
	<circle
   style="fill:#024651"
   cx="246"
   cy="361.20001"
   r="12.8"
   id="circle32" />
	<circle
   style="fill:#024651;fill-opacity:1"
   cx="323.60001"
   cy="361.20001"
   r="12.8"
   id="circle34" />
	<circle
   style="fill:#024651;fill-opacity:1"
   cx="402"
   cy="361.20001"
   r="12.8"
   id="circle36" />
	<circle
   style="fill:#024651"
   cx="90"
   cy="428.40002"
   r="12.8"
   id="circle38" />
	<circle
   style="fill:#024651"
   cx="168.39999"
   cy="428.40002"
   r="12.8"
   id="circle40" />
	<circle
   style="fill:#024651"
   cx="246"
   cy="428.40002"
   r="12.8"
   id="circle42" />
	<circle
   style="fill:#024651;fill-opacity:1"
   cx="323.60001"
   cy="428.40002"
   r="12.8"
   id="circle44" />
	<circle
   style="fill:#024651;fill-opacity:1"
   cx="402"
   cy="428.40002"
   r="12.8"
   id="circle46" />
<circle
   style="fill:#024651;fill-opacity:1"
   cx="402"
   cy="226.79948"
   r="12.8"
   id="circle472" /><circle
   style="fill:#024651"
   cx="90"
   cy="159.14999"
   r="12.8"
   id="circle338" /><circle
   style="fill:#024651"
   cx="168.39999"
   cy="159.14999"
   r="12.8"
   id="circle340" /><circle
   style="fill:#024651"
   cx="246"
   cy="159.14999"
   r="12.8"
   id="circle342" /><circle
   style="fill:#024651;fill-opacity:1"
   cx="323.60001"
   cy="159.14999"
   r="12.8"
   id="circle344" /><circle
   style="fill:#024651;fill-opacity:1"
   cx="402"
   cy="159.14949"
   r="12.8"
   id="circle346" /></g>






<g
   id="g62"
   transform="matrix(0.05,0,0,0.04878049,-0.3,0)">
</g>
<g
   id="g64"
   transform="matrix(0.05,0,0,0.04878049,-0.3,0)">
</g>
<g
   id="g66"
   transform="matrix(0.05,0,0,0.04878049,-0.3,0)">
</g>
<g
   id="g68"
   transform="matrix(0.05,0,0,0.04878049,-0.3,0)">
</g>
<g
   id="g70"
   transform="matrix(0.05,0,0,0.04878049,-0.3,0)">
</g>
<g
   id="g72"
   transform="matrix(0.05,0,0,0.04878049,-0.3,0)">
</g>
<g
   id="g74"
   transform="matrix(0.05,0,0,0.04878049,-0.3,0)">
</g>
<g
   id="g76"
   transform="matrix(0.05,0,0,0.04878049,-0.3,0)">
</g>
<g
   id="g78"
   transform="matrix(0.05,0,0,0.04878049,-0.3,0)">
</g>
<g
   id="g80"
   transform="matrix(0.05,0,0,0.04878049,-0.3,0)">
</g>
<g
   id="g82"
   transform="matrix(0.05,0,0,0.04878049,-0.3,0)">
</g>
<g
   id="g84"
   transform="matrix(0.05,0,0,0.04878049,-0.3,0)">
</g>
<g
   id="g86"
   transform="matrix(0.05,0,0,0.04878049,-0.3,0)">
</g>
<g
   id="g88"
   transform="matrix(0.05,0,0,0.04878049,-0.3,0)">
</g>
<g
   id="g90"
   transform="matrix(0.05,0,0,0.04878049,-0.3,0)">
</g>
</svg>
