<?xml version="1.0" encoding="UTF-8" standalone="no"?>
<!-- Creator: CorelDRAW -->

<svg
   xml:space="preserve"
   width="0.25in"
   height="0.25in"
   version="1.1"
   style="clip-rule:evenodd;fill-rule:evenodd;image-rendering:optimizeQuality;shape-rendering:geometricPrecision;text-rendering:geometricPrecision"
   viewBox="0 0 250 250"
   id="svg66"
   sodipodi:docname="reservations.svg"
   inkscape:version="1.2.1 (9c6d41e410, 2022-07-14)"
   xmlns:inkscape="http://www.inkscape.org/namespaces/inkscape"
   xmlns:sodipodi="http://sodipodi.sourceforge.net/DTD/sodipodi-0.dtd"
   xmlns="http://www.w3.org/2000/svg"
   xmlns:svg="http://www.w3.org/2000/svg"><sodipodi:namedview
   id="namedview68"
   pagecolor="#ffffff"
   bordercolor="#000000"
   borderopacity="0.25"
   inkscape:showpageshadow="2"
   inkscape:pageopacity="0.0"
   inkscape:pagecheckerboard="true"
   inkscape:deskcolor="#d1d1d1"
   inkscape:document-units="in"
   showgrid="false"
   inkscape:zoom="33.916667"
   inkscape:cx="11.985258"
   inkscape:cy="12"
   inkscape:window-width="1920"
   inkscape:window-height="1017"
   inkscape:window-x="-8"
   inkscape:window-y="-8"
   inkscape:window-maximized="1"
   inkscape:current-layer="Layer_x0020_1" />
 <defs
   id="defs4">
  <style
   type="text/css"
   id="style2">
   <![CDATA[
    .fil0 {fill:black}
    .fil3 {fill:#6FABB9}
    .fil2 {fill:#89D3E5}
    .fil4 {fill:#D6E3FF}
    .fil1 {fill:#FB505A}
   ]]>
  </style>
 </defs>
 <g
   id="Layer_x0020_1"
   inkscape:label="Layer 1"
   inkscape:groupmode="layer"
   transform="translate(-70.27,-0.30249999)">
  <metadata
   id="CorelCorpID_0Corel-Layer" />
  <path
   class="fil0"
   d="M 305.1211,250.3025 H 85.417307 C 77.06386,250.3025 70.27,244.06389 70.27,236.39675 V 34.060704 c 0,-7.667141 6.79386,-13.904294 15.147307,-13.904294 H 305.1211 c 8.35345,0 15.1489,6.237153 15.1489,13.904294 V 236.39675 c 0,7.66714 -6.79705,13.90575 -15.1489,13.90575 z M 85.417307,26.017019 c -4.833602,0 -8.763696,3.607204 -8.763696,8.043685 V 236.39675 c 0,4.43648 3.930094,8.04368 8.763696,8.04368 H 305.1211 c 4.8336,0 8.7621,-3.6072 8.7621,-8.04368 V 34.060704 c 0,-4.436481 -3.9285,-8.043685 -8.7621,-8.043685 z"
   id="path7"
   style="stroke-width:0.152932" />
  <path
   class="fil0"
   d="M 317.07421,69.741553 H 73.4642 c -4.203063,0 -4.203063,-5.860608 0,-5.860608 h 243.6132 c 4.20785,0 4.20466,5.860608 -0.003,5.860608 z"
   id="path9"
   style="stroke-width:0.152932" />
  <path
   class="fil0"
   d="M 260.65931,233.49868 H 96.722316 c -1.762317,0 -3.192604,-1.31425 -3.192604,-2.93031 V 66.811249 c 0,-1.617528 1.430287,-2.930304 3.192604,-2.930304 H 293.81769 c 1.76232,0 3.1926,1.312776 3.1926,2.930304 V 200.1313 c 0,0.778 -0.33682,1.52229 -0.93543,2.07319 l -33.15838,30.43707 c -0.59861,0.54504 -1.40953,0.85712 -2.25557,0.85712 z M 99.914919,227.6366 H 259.33598 l 31.28751,-28.71845 V 69.743018 H 99.914919 V 227.63807 Z"
   id="path11"
   style="stroke-width:0.152932" />
  <path
   class="fil0"
   d="m 260.65931,233.49868 c -1.75114,0 -3.1958,-1.30546 -3.1958,-2.93031 l -0.003,-30.43853 c 0,-1.61753 1.43348,-2.93177 3.1958,-2.93177 h 33.16157 c 2.82386,0 4.26851,3.15593 2.25557,5.00349 l -33.15838,30.43854 c -0.60819,0.55968 -1.42709,0.85858 -2.25557,0.85858 z m 3.1926,-30.43854 v 20.43594 l 22.26043,-20.43594 z"
   id="path13"
   style="stroke-width:0.152932" />
  <path
   class="fil0"
   d="m 125.02315,45.906459 c -1.76232,0 -3.1926,-1.312777 -3.1926,-2.930305 V 3.1958091 c 0,-3.85774548 6.3852,-3.85774548 6.3852,0 V 42.976154 c 0,1.618993 -1.42709,2.930305 -3.1926,2.930305 z"
   id="path15"
   style="stroke-width:0.152932" />
  <path
   class="fil0"
   d="m 160.14658,45.906459 c -1.76232,0 -3.19261,-1.312777 -3.19261,-2.930305 V 3.1958091 c 0,-3.85774548 6.38521,-3.85774548 6.38521,0 V 42.976154 c 0,1.618993 -1.42709,2.930305 -3.1926,2.930305 z"
   id="path17"
   style="stroke-width:0.152932" />
  <path
   class="fil0"
   d="m 195.27,45.906459 c -1.76231,0 -3.1926,-1.312777 -3.1926,-2.930305 V 3.1958091 c 0,-3.85774548 6.38521,-3.85774548 6.38521,0 V 42.976154 c 0,1.618993 -1.43029,2.930305 -3.19261,2.930305 z"
   id="path19"
   style="stroke-width:0.152932" />
  <path
   class="fil0"
   d="m 230.39183,45.906459 c -1.76231,0 -3.1926,-1.312777 -3.1926,-2.930305 V 3.1958091 c 0,-3.85628033 6.38521,-3.85628033 6.38521,0 V 42.976154 c 0,1.618993 -1.43029,2.930305 -3.19261,2.930305 z"
   id="path21"
   style="stroke-width:0.152932" />
  <path
   class="fil0"
   d="m 265.51526,45.906459 c -1.76232,0 -3.1926,-1.312777 -3.1926,-2.930305 V 3.1958091 c 0,-3.85628033 6.3852,-3.85628033 6.3852,0 V 42.976154 c 0,1.618993 -1.43188,2.930305 -3.1926,2.930305 z"
   id="path23"
   style="stroke-width:0.152932" />
  <path
   class="fil0"
   d="m 211.14682,122.53098 h -31.75683 c -1.76231,0 -3.1926,-1.31277 -3.1926,-2.9303 V 90.450013 c 0,-1.617528 1.43029,-2.930304 3.1926,-2.930304 h 31.75683 c 1.76232,0 3.1926,1.312776 3.1926,2.930304 v 29.150667 c 0.003,1.61753 -1.43028,2.9303 -3.1926,2.9303 z m -28.56422,-5.8606 h 25.37162 V 93.380317 H 182.5826 Z"
   id="path25"
   style="stroke-width:0.152932" />
  <path
   class="fil0"
   d="m 152.5817,122.53098 h -31.76002 c -1.76231,0 -3.1926,-1.31277 -3.1926,-2.9303 V 90.450013 c 0,-1.617528 1.43029,-2.930304 3.1926,-2.930304 h 31.76002 c 1.76232,0 3.19261,1.312776 3.19261,2.930304 v 29.150667 c 0,1.61753 -1.4271,2.9303 -3.19261,2.9303 z m -28.56741,-5.8606 H 149.3891 V 93.380317 h -25.37481 z"
   id="path27"
   style="stroke-width:0.152932" />
  <path
   class="fil0"
   d="m 269.71673,122.53098 h -31.76002 c -1.76232,0 -3.19261,-1.31277 -3.19261,-2.9303 V 90.450013 c 0,-1.617528 1.43189,-2.930304 3.19261,-2.930304 h 31.76002 c 1.76231,0 3.1926,1.312776 3.1926,2.930304 v 29.150667 c 0,1.61753 -1.43029,2.9303 -3.1926,2.9303 z m -28.56742,-5.8606 h 25.37162 V 93.380317 h -25.37162 z"
   id="path29"
   style="stroke-width:0.152932" />
  <path
   class="fil0"
   d="m 211.14682,167.97268 h -31.75683 c -1.76231,0 -3.1926,-1.31424 -3.1926,-2.93031 v -29.15359 c 0,-1.61753 1.43029,-2.93031 3.1926,-2.93031 h 31.75683 c 1.76232,0 3.1926,1.31424 3.1926,2.93031 v 29.15066 c 0.003,1.61753 -1.43028,2.93177 -3.1926,2.93177 z M 182.5826,162.1106 h 25.37162 V 138.82055 H 182.5826 Z"
   id="path31"
   style="stroke-width:0.152932" />
  <path
   class="fil0"
   d="m 152.5817,167.97268 h -31.76002 c -1.76231,0 -3.1926,-1.31424 -3.1926,-2.93031 v -29.15359 c 0,-1.61753 1.43029,-2.93031 3.1926,-2.93031 h 31.76002 c 1.76232,0 3.19261,1.31424 3.19261,2.93031 v 29.15066 c 0,1.61753 -1.4271,2.93177 -3.19261,2.93177 z m -28.56741,-5.86208 h 25.37481 v -23.29005 h -25.37481 z"
   id="path33"
   style="stroke-width:0.152932" />
  <path
   class="fil0"
   d="m 269.71673,167.97268 h -31.76002 c -1.76232,0 -3.19261,-1.31424 -3.19261,-2.93031 v -29.15359 c 0,-1.61753 1.43189,-2.93031 3.19261,-2.93031 h 31.76002 c 1.76231,0 3.1926,1.31424 3.1926,2.93031 v 29.15066 c 0,1.61753 -1.43029,2.93177 -3.1926,2.93177 z m -28.56742,-5.86208 h 25.37162 v -23.29005 h -25.37162 z"
   id="path35"
   style="stroke-width:0.152932" />
  <path
   class="fil0"
   d="m 211.14682,213.41144 h -31.75683 c -1.76231,0 -3.1926,-1.31424 -3.1926,-2.9303 v -29.15067 c 0,-1.61753 1.43029,-2.93031 3.1926,-2.93031 h 31.75683 c 1.76232,0 3.1926,1.31425 3.1926,2.93031 v 29.15067 c 0.003,1.61606 -1.43028,2.9303 -3.1926,2.9303 z m -28.56422,-5.86207 h 25.37162 v -23.2886 l -25.37162,0.001 z"
   id="path37"
   style="stroke-width:0.152932" />
  <path
   class="fil0"
   d="m 152.5817,213.41144 h -31.76002 c -1.76231,0 -3.1926,-1.31424 -3.1926,-2.9303 v -29.15067 c 0,-1.61753 1.43029,-2.93031 3.1926,-2.93031 h 31.76002 c 1.76232,0 3.19261,1.31425 3.19261,2.93031 v 29.15067 c 0,1.61606 -1.4271,2.9303 -3.19261,2.9303 z m -28.56741,-5.86207 h 25.37481 v -23.2886 l -25.37481,0.001 z"
   id="path39"
   style="stroke-width:0.152932" />
  <path
   class="fil1"
   d="M 96.722316,63.880945 H 313.8832 V 34.059239 c 0,-4.436481 -3.9285,-8.043686 -8.7621,-8.043686 h -36.41324 v 16.960601 c 0,3.857746 -6.3852,3.856281 -6.3852,0 V 26.015553 h -28.73822 v 16.960601 c 0,3.857746 -6.38521,3.854816 -6.38521,0 V 26.015553 h -28.73822 v 16.960601 c 0,3.857746 -6.38521,3.854816 -6.38521,0 V 26.015553 h -28.73822 v 16.960601 c 0,3.859211 -6.3852,3.854816 -6.3852,0 V 26.015553 h -28.73822 v 16.960601 c 0,3.859211 -6.38521,3.854816 -6.38521,0 V 26.015553 H 85.415711 c -4.833602,0 -8.763697,3.607205 -8.763697,8.043686 v 29.821706 h 20.067109 z"
   id="path41"
   style="stroke-width:0.152932" />
  <path
   class="fil2"
   d="m 214.33942,135.88878 v 29.15066 c 0.003,1.61753 -1.43028,2.93177 -3.1926,2.93177 h -31.75683 c -1.76231,0 -3.1926,-1.31424 -3.1926,-2.9303 v -29.1536 c 0,-1.61753 1.43029,-2.9303 3.1926,-2.9303 h 31.75683 c 1.76232,0 3.1926,1.31424 3.1926,2.9303 z m -3.1926,-13.3578 h -31.75683 c -1.76231,0 -3.1926,-1.31277 -3.1926,-2.9303 V 90.450013 c 0,-1.617528 1.43029,-2.930304 3.1926,-2.930304 h 31.75683 c 1.76232,0 3.1926,1.312776 3.1926,2.930304 v 29.150667 c 0.003,1.61753 -1.43028,2.9303 -3.1926,2.9303 z M 290.62189,69.741553 H 99.913323 V 227.6366 H 257.46192 l -0.003,-27.50676 c 0,-1.61753 1.43348,-2.93177 3.1958,-2.93177 H 290.6203 V 69.741553 Z M 214.33942,181.33047 v 29.15067 c 0.003,1.61606 -1.43028,2.9303 -3.1926,2.9303 h -31.75683 c -1.76231,0 -3.1926,-1.31424 -3.1926,-2.9303 v -29.15067 c 0,-1.61753 1.43029,-2.93031 3.1926,-2.93031 h 31.75683 c 1.76232,0 3.1926,1.31425 3.1926,2.93031 z m 55.37731,-13.35926 h -31.76002 c -1.76232,0 -3.19261,-1.31424 -3.19261,-2.9303 v -29.1536 c 0,-1.61753 1.43189,-2.9303 3.19261,-2.9303 h 31.76002 c 1.76231,0 3.1926,1.31424 3.1926,2.9303 v 29.15067 c 0,1.61753 -1.43029,2.93177 -3.1926,2.93177 z m 0,-45.44169 h -31.76002 c -1.76232,0 -3.19261,-1.31278 -3.19261,-2.93031 V 90.448548 c 0,-1.617528 1.43189,-2.930304 3.19261,-2.930304 h 31.76002 c 1.76231,0 3.1926,1.312776 3.1926,2.930304 v 29.150662 c 0,1.61753 -1.43029,2.93031 -3.1926,2.93031 z M 155.77431,181.329 v 29.15067 c 0,1.61606 -1.4271,2.9303 -3.19261,2.9303 h -31.76002 c -1.76231,0 -3.1926,-1.31424 -3.1926,-2.9303 V 181.329 c 0,-1.61752 1.43029,-2.9303 3.1926,-2.9303 h 31.76002 c 1.76232,0 3.19261,1.31424 3.19261,2.9303 z m -3.19261,-13.35925 h -31.76002 c -1.76231,0 -3.1926,-1.31424 -3.1926,-2.93031 v -29.15359 c 0,-1.61753 1.43029,-2.93031 3.1926,-2.93031 h 31.76002 c 1.76232,0 3.19261,1.31424 3.19261,2.93031 v 29.15066 c 0,1.61753 -1.4271,2.93177 -3.19261,2.93177 z m 0,-45.4417 h -31.76002 c -1.76231,0 -3.1926,-1.31277 -3.1926,-2.9303 V 90.447083 c 0,-1.617528 1.43029,-2.930304 3.1926,-2.930304 h 31.76002 c 1.76232,0 3.19261,1.312776 3.19261,2.930304 v 29.150667 c 0,1.61753 -1.4271,2.9303 -3.19261,2.9303 z"
   id="path43"
   style="stroke-width:0.152932" />
  <polygon
   class="fil3"
   points="1299.69,1104.67 1299.69,945.71 1140.74,945.71 1140.74,1104.67 "
   id="polygon45"
   transform="matrix(0.15963017,0,0,0.14651521,59.052788,0.25817915)" />
  <polygon
   class="fil3"
   points="1299.69,635.58 1140.74,635.58 1140.74,794.54 1299.69,794.54 "
   id="polygon47"
   transform="matrix(0.15963017,0,0,0.14651521,59.052788,0.25817915)" />
  <polygon
   class="fil3"
   points="773.85,635.58 773.85,794.54 932.79,794.54 932.79,635.58 "
   id="polygon49"
   transform="matrix(0.15963017,0,0,0.14651521,59.052788,0.25817915)" />
  <polygon
   class="fil3"
   points="773.85,1104.67 932.79,1104.67 932.79,945.71 773.85,945.71 "
   id="polygon51"
   transform="matrix(0.15963017,0,0,0.14651521,59.052788,0.25817915)" />
  <polygon
   class="fil3"
   points="773.85,1414.81 932.79,1414.81 932.79,1255.85 773.85,1255.86 "
   id="polygon53"
   transform="matrix(0.15963017,0,0,0.14651521,59.052788,0.25817915)" />
  <polygon
   class="fil3"
   points="406.95,1255.86 406.95,1414.81 565.91,1414.81 565.91,1255.85 "
   id="polygon55"
   transform="matrix(0.15963017,0,0,0.14651521,59.052788,0.25817915)" />
  <polygon
   class="fil3"
   points="565.91,945.71 406.95,945.71 406.95,1104.67 565.91,1104.67 "
   id="polygon57"
   transform="matrix(0.15963017,0,0,0.14651521,59.052788,0.25817915)" />
  <polygon
   class="fil3"
   points="565.91,635.58 406.95,635.58 406.95,794.54 565.91,794.54 "
   id="polygon59"
   transform="matrix(0.15963017,0,0,0.14651521,59.052788,0.25817915)" />
  <path
   class="fil4"
   d="M 93.529712,230.56984 V 69.743018 H 76.655207 V 236.39675 c 0,4.43648 3.930095,8.04368 8.763696,8.04368 H 305.1227 c 4.8336,0 8.7621,-3.6072 8.7621,-8.04368 V 69.743018 H 297.01189 V 200.05072 c 0.0176,0.79851 -0.27137,1.54573 -0.93543,2.15524 l -33.51915,30.71984 -1.8964,0.57434 H 96.723912 c -1.762317,0 -3.192603,-1.31424 -3.192603,-2.9303 z"
   id="path61"
   style="stroke-width:0.152932" />
  <polygon
   class="fil3"
   points="1282.95,1384.17 1282.95,1523.65 1422.41,1384.17 "
   id="polygon63"
   transform="matrix(0.15963017,0,0,0.14651521,59.052788,0.25817915)" />
 </g>
</svg>
