<?xml version="1.0" encoding="UTF-8" standalone="no"?>
<!-- Generator: Adobe Illustrator 19.0.0, SVG Export Plug-In . SVG Version: 6.00 Build 0)  -->

<svg
   version="1.1"
   id="Layer_1"
   x="0px"
   y="0px"
   viewBox="0 0 24.000001 24"
   xml:space="preserve"
   sodipodi:docname="schedules.svg"
   width="24.000002"
   height="24"
   inkscape:version="1.2.1 (9c6d41e410, 2022-07-14)"
   xmlns:inkscape="http://www.inkscape.org/namespaces/inkscape"
   xmlns:sodipodi="http://sodipodi.sourceforge.net/DTD/sodipodi-0.dtd"
   xmlns="http://www.w3.org/2000/svg"
   xmlns:svg="http://www.w3.org/2000/svg"><defs
   id="defs65" /><sodipodi:namedview
   id="namedview63"
   pagecolor="#ffffff"
   bordercolor="#000000"
   borderopacity="0.25"
   inkscape:showpageshadow="2"
   inkscape:pageopacity="0.0"
   inkscape:pagecheckerboard="true"
   inkscape:deskcolor="#d1d1d1"
   showgrid="false"
   inkscape:zoom="33.916667"
   inkscape:cx="12.014742"
   inkscape:cy="12"
   inkscape:window-width="1920"
   inkscape:window-height="1017"
   inkscape:window-x="1352"
   inkscape:window-y="-8"
   inkscape:window-maximized="1"
   inkscape:current-layer="Layer_1" />



























<g
   id="g324"
   transform="matrix(0.05172414,0,0,0.04823151,-0.86896555,0)"><path
     style="fill:#f2eac4"
     d="M 428.8,40 H 69.6 C 42.4,40 16.8,59.2 16.8,86.4 V 388.8 L 126.4,496 h 302.4 c 27.2,0 52,-23.2 52,-50.4 V 86.4 C 480.8,59.2 456,40 428.8,40 Z"
     id="path2" /><path
     style="fill:#ddce92"
     d="M 20,88 C 20,60.8 42.4,40 69.6,40 h 359.2 c 27.2,0 52,19.2 52,46.4 v 359.2 c 0,27.2 -23.2,49.6 -50.4,49.6"
     id="path4" /><path
     style="fill:#32ba7c"
     d="M 480.8,152 V 86.4 C 480.8,59.2 456,40 428.8,40 H 69.6 C 42.4,40 16.8,59.2 16.8,86.4 V 152 Z"
     id="path6" /><path
     style="fill:#0aa06e"
     d="M 480.8,152 V 86.4 C 480.8,59.2 456,40 428.8,40 h -356"
     id="path8" /><polygon
     style="fill:#ddce92"
     points="72.8,442.4 126.4,496 225.6,496 127.2,396.8 "
     id="polygon10" /><path
     style="fill:#fcf8e6"
     d="m 128,497.6 0.8,-1.6 v -94.4 c 0,-7.2 -8,-9.6 -15.2,-9.6 H 20 v 0 z"
     id="path12" /><g
     id="g18">
	<path
   style="fill:#2f423f"
   d="m 143.2,343.2 c 7.2,4 24.8,11.2 41.6,11.2 21.6,0 32.8,-10.4 32.8,-24 0,-17.6 -17.6,-25.6 -36.8,-25.6 h -20 v -32 h 20 c 14.4,0 32,-4.8 32,-20 0,-11.2 -8.8,-18.4 -26.4,-18.4 -14.4,0 -30.4,6.4 -37.6,11.2 L 140,215.2 c 11.2,-7.2 32.8,-13.6 56,-13.6 38.4,0 60.8,20 60.8,44.8 0,19.2 -8,34.4 -32,41.6 v 0 c 16,4 38.4,20 38.4,44 0,32 -28.8,55.2 -74.4,55.2 -23.2,0 -43.2,-6.4 -53.6,-12.8 z"
   id="path14" />
	<path
   style="fill:#2f423f"
   d="m 320.8,240 h 1.6 l -34.4,16.8 -7.2,-32.8 48,-24 h 32 v 184 h -40 z"
   id="path16" />
</g><path
     style="fill:#0aa06e"
     d="M 184,58.4 C 184,83.2 164,104 138.4,104 113.6,104 92.8,84 92.8,58.4"
     id="path20" /><path
     style="fill:#fca12a"
     d="m 168.8,60 c 0,15.2 -12.8,28 -28,28 v 0 c -15.2,0 -28,-12.8 -28,-28 V 28 c 0,-15.2 12.8,-28 28,-28 v 0 c 15.2,0 28,12.8 28,28 z"
     id="path22" /><path
     style="fill:#ea860f"
     d="m 139.2,0.8 v 0 c 16,0 29.6,12.8 29.6,28.8 v 29.6 c 0,16 -13.6,28.8 -28.8,28.8 v 0"
     id="path24" /><path
     style="fill:#028455"
     d="m 404.8,58.4 c 0,24.8 -20,45.6 -45.6,45.6 -24.8,0 -45.6,-20 -45.6,-45.6"
     id="path26" /><path
     style="fill:#fca12a"
     d="m 384.8,60 c 0,15.2 -12.8,28 -28,28 v 0 c -15.2,0 -28,-12.8 -28,-28 V 28 c 0,-15.2 12.8,-28 28,-28 v 0 c 15.2,0 28,12.8 28,28 z"
     id="path28" /><path
     style="fill:#ea860f"
     d="m 357.6,0.8 v 0 c 16,0 27.2,12.8 27.2,28.8 v 29.6 c 0,16 -12,28.8 -28,28.8 v 0"
     id="path30" /><g
     id="g32">
</g><g
     id="g34">
</g><g
     id="g36">
</g><g
     id="g38">
</g><g
     id="g40">
</g><g
     id="g42">
</g><g
     id="g44">
</g><g
     id="g46">
</g><g
     id="g48">
</g><g
     id="g50">
</g><g
     id="g52">
</g><g
     id="g54">
</g><g
     id="g56">
</g><g
     id="g58">
</g><g
     id="g60">
</g></g>
</svg>
