<?xml version="1.0" encoding="UTF-8" standalone="no"?>
<!-- Generator: Adobe Illustrator 19.0.0, SVG Export Plug-In . SVG Version: 6.00 Build 0)  -->

<svg
   version="1.1"
   id="Layer_1"
   x="0px"
   y="0px"
   viewBox="0 0 24.000001 24.000001"
   xml:space="preserve"
   sodipodi:docname="ships.svg"
   width="24"
   height="24"
   inkscape:version="1.2.1 (9c6d41e410, 2022-07-14)"
   xmlns:inkscape="http://www.inkscape.org/namespaces/inkscape"
   xmlns:sodipodi="http://sodipodi.sourceforge.net/DTD/sodipodi-0.dtd"
   xmlns="http://www.w3.org/2000/svg"
   xmlns:svg="http://www.w3.org/2000/svg"><defs
   id="defs2118" /><sodipodi:namedview
   id="namedview2116"
   pagecolor="#ffffff"
   bordercolor="#000000"
   borderopacity="0.25"
   inkscape:showpageshadow="2"
   inkscape:pageopacity="0.0"
   inkscape:pagecheckerboard="true"
   inkscape:deskcolor="#d1d1d1"
   showgrid="false"
   inkscape:zoom="33.916667"
   inkscape:cx="11.985258"
   inkscape:cy="12"
   inkscape:window-width="1920"
   inkscape:window-height="1017"
   inkscape:window-x="-8"
   inkscape:window-y="-8"
   inkscape:window-maximized="1"
   inkscape:current-layer="Layer_1" />
<polygon
   style="fill:#797882"
   points="57.125,297.327 409.274,297.327 375.629,177.327 57.125,177.327 "
   id="polygon2005"
   transform="matrix(0.04687489,0,0,0.05539719,-4.1016659e-5,-2.1817074)" />
<rect
   x="2.6776872"
   y="7.6419311"
   style="fill:#acacb2;stroke-width:0.0509582"
   width="8.9500103"
   height="6.6476622"
   id="rect2007" />
<g
   id="g6039"
   style="stroke:#ffffff;stroke-opacity:1;stroke-width:0.1;stroke-dasharray:none"><rect
     x="6.9360366"
     y="4.1317439"
     style="fill:#57565c;stroke-width:0.1;stroke:#ffffff;stroke-opacity:1;stroke-dasharray:none"
     width="3.4685075"
     height="2.7957296"
     id="rect2009" /></g>
<rect
   x="8.6924391"
   y="4.1317439"
   style="fill:#2d2e30;stroke-width:0.0509582"
   width="1.7121054"
   height="2.7957296"
   id="rect2011" />
<path
   style="fill:#9d2217;stroke-width:0.0509582"
   d="M 10.40431,5.0634136 H 6.9358021 c -0.4354677,0 -0.7885293,-0.4172516 -0.7885293,-0.9318914 0,-0.5146399 0.3530616,-0.9318915 0.7885293,-0.9318915 H 10.40431 c 0.435467,0 0.788529,0.4172516 0.788529,0.9318915 0,0.5146398 -0.353015,0.9318914 -0.788529,0.9318914 z"
   id="path2013" />
<rect
   x="3.5713568"
   y="0.93216842"
   style="fill:#57565c;stroke-width:0.151;stroke:#ffffff;stroke-opacity:1;stroke-dasharray:none"
   width="2.2983696"
   height="6.7097626"
   id="rect2015" />
<rect
   x="4.7134166"
   y="0.93216842"
   style="fill:#2d2e30;stroke-width:0.0509582"
   width="1.1565441"
   height="6.7097626"
   id="rect2017" />
<path
   style="fill:#de3205;stroke-width:0.0509582"
   d="M 5.8697265,1.8638383 H 3.5713568 C 3.135889,1.8638383 2.7828274,1.4465867 2.7828274,0.93194686 2.7828274,0.417307 3.135889,0 3.5713568,0 h 2.2983697 c 0.4354678,0 0.7885294,0.41725161 0.7885294,0.93189147 0,0.51463983 -0.3530148,0.93194683 -0.7885294,0.93194683 z"
   id="path2019" />
<path
   style="fill:#acacb2;stroke-width:0.0509582"
   d="M 18.55379,8.5736009 H 2.5725466 c -0.4354677,0 -0.7885294,-0.4172516 -0.7885294,-0.9318914 0,-0.5146399 0.3530617,-0.9318915 0.7885294,-0.9318915 H 18.55379 c 0.435468,0 0.78853,0.4172516 0.78853,0.9318915 0,0.5146398 -0.353015,0.9318914 -0.78853,0.9318914 z"
   id="path2021" />
<g
   id="g2047"
   transform="matrix(0.04687489,0,0,0.05539719,-4.1016659e-5,-2.1817074)">
	<path
   style="fill:#3e3e42"
   d="m 119.581,229.966 h -11.148 c -3.717,0 -6.729,-3.012 -6.729,-6.729 V 212.09 c 0,-3.717 3.012,-6.729 6.729,-6.729 h 11.148 c 3.717,0 6.729,3.012 6.729,6.729 v 11.148 c 0,3.716 -3.014,6.728 -6.729,6.728 z"
   id="path2023" />
	<path
   style="fill:#3e3e42"
   d="m 160.605,229.966 h -11.148 c -3.717,0 -6.729,-3.012 -6.729,-6.729 V 212.09 c 0,-3.717 3.012,-6.729 6.729,-6.729 h 11.148 c 3.717,0 6.729,3.012 6.729,6.729 v 11.148 c 0,3.716 -3.012,6.728 -6.729,6.728 z"
   id="path2025" />
	<path
   style="fill:#3e3e42"
   d="m 201.629,229.966 h -11.148 c -3.717,0 -6.729,-3.012 -6.729,-6.729 V 212.09 c 0,-3.717 3.012,-6.729 6.729,-6.729 h 11.148 c 3.717,0 6.729,3.012 6.729,6.729 v 11.148 c 0,3.716 -3.012,6.728 -6.729,6.728 z"
   id="path2027" />
	<path
   style="fill:#3e3e42"
   d="m 242.655,229.966 h -11.148 c -3.717,0 -6.729,-3.012 -6.729,-6.729 V 212.09 c 0,-3.717 3.012,-6.729 6.729,-6.729 h 11.148 c 3.717,0 6.729,3.012 6.729,6.729 v 11.148 c 0,3.716 -3.013,6.728 -6.729,6.728 z"
   id="path2029" />
	<path
   style="fill:#3e3e42"
   d="m 283.679,229.966 h -11.148 c -3.717,0 -6.729,-3.012 -6.729,-6.729 V 212.09 c 0,-3.717 3.012,-6.729 6.729,-6.729 h 11.148 c 3.717,0 6.729,3.012 6.729,6.729 v 11.148 c 0,3.716 -3.012,6.728 -6.729,6.728 z"
   id="path2031" />
	<path
   style="fill:#3e3e42"
   d="m 324.704,229.966 h -11.148 c -3.717,0 -6.729,-3.012 -6.729,-6.729 V 212.09 c 0,-3.717 3.012,-6.729 6.729,-6.729 h 11.148 c 3.717,0 6.729,3.012 6.729,6.729 v 11.148 c 0,3.716 -3.013,6.728 -6.729,6.728 z"
   id="path2033" />
	<path
   style="fill:#3e3e42"
   d="m 141.347,265.928 h -11.148 c -3.717,0 -6.729,-3.012 -6.729,-6.729 v -11.148 c 0,-3.717 3.012,-6.729 6.729,-6.729 h 11.148 c 3.717,0 6.729,3.012 6.729,6.729 v 11.148 c 0,3.717 -3.012,6.729 -6.729,6.729 z"
   id="path2035" />
	<path
   style="fill:#3e3e42"
   d="m 189.1,259.199 c 0,3.717 -3.012,6.729 -6.729,6.729 h -11.148 c -3.717,0 -6.729,-3.012 -6.729,-6.729 v -11.148 c 0,-3.717 3.012,-6.729 6.729,-6.729 h 11.148 c 3.717,0 6.729,3.012 6.729,6.729 z"
   id="path2037" />
	<path
   style="fill:#3e3e42"
   d="m 230.125,259.199 c 0,3.717 -3.012,6.729 -6.729,6.729 h -11.148 c -3.717,0 -6.729,-3.012 -6.729,-6.729 v -11.148 c 0,-3.717 3.012,-6.729 6.729,-6.729 h 11.148 c 3.717,0 6.729,3.012 6.729,6.729 z"
   id="path2039" />
	<path
   style="fill:#3e3e42"
   d="m 264.421,265.928 h -11.148 c -3.717,0 -6.729,-3.012 -6.729,-6.729 v -11.148 c 0,-3.717 3.012,-6.729 6.729,-6.729 h 11.148 c 3.717,0 6.729,3.012 6.729,6.729 v 11.148 c 0,3.717 -3.013,6.729 -6.729,6.729 z"
   id="path2041" />
	<path
   style="fill:#3e3e42"
   d="m 305.446,265.928 h -11.148 c -3.717,0 -6.729,-3.012 -6.729,-6.729 v -11.148 c 0,-3.717 3.012,-6.729 6.729,-6.729 h 11.148 c 3.717,0 6.729,3.012 6.729,6.729 v 11.148 c 0,3.717 -3.013,6.729 -6.729,6.729 z"
   id="path2043" />
	<path
   style="fill:#3e3e42"
   d="m 353.199,259.199 c 0,3.717 -3.012,6.729 -6.729,6.729 h -11.148 c -3.717,0 -6.729,-3.012 -6.729,-6.729 v -11.148 c 0,-3.717 3.012,-6.729 6.729,-6.729 h 11.148 c 3.717,0 6.729,3.012 6.729,6.729 z"
   id="path2045" />
</g>
<path
   style="fill:#e1e1e3;stroke-width:0.0509582"
   d="M 20.069771,21.129761 C 19.469163,22.19444 18.458025,22.834 17.375262,22.834 H 4.2146209 c -1.6416524,0 -3.023571,-1.451739 -3.21608616,-3.378453 L 0.45487978,14.012607 C 0.43195798,13.783152 0.49312968,13.553088 0.62306688,13.380415 0.7529572,13.207742 0.93909739,13.108913 1.1346125,13.108913 H 23.315529 c 0.252374,0 0.484311,0.164197 0.603467,0.427168 0.119156,0.26297 0.106031,0.582114 -0.03394,0.830348 z"
   id="path2049" />
<path
   style="fill:#acacb2;stroke-width:0.0509582"
   d="M 11.627697,13.108913 V 22.834 h 5.747518 c 1.082763,0 2.093901,-0.63956 2.694509,-1.704239 l 3.815194,-6.763332 c 0.140015,-0.248179 0.153094,-0.567322 0.03394,-0.830348 -0.119109,-0.262971 -0.351,-0.427168 -0.603468,-0.427168 z"
   id="path2051" />
<ellipse
   style="fill:#2d2e30;stroke-width:0.0509582"
   cx="4.5176201"
   cy="15.935998"
   id="circle2053"
   rx="1.0251069"
   ry="1.2114811" />
<path
   style="fill:#57565c;stroke-width:0.0509582"
   d="m 4.5176201,17.147202 c -0.5661549,0 -1.0251069,-0.542394 -1.0251069,-1.211481 0,-0.669087 0.458952,-1.211481 1.0251069,-1.211481 z"
   id="path2055" />
<g
   id="g2065"
   transform="matrix(0.04687489,0,0,0.05539719,-4.1016659e-5,-2.1817074)">
	<circle
   style="fill:#2d2e30"
   cx="172.217"
   cy="327.05099"
   r="21.868999"
   id="circle2057" />
	<circle
   style="fill:#2d2e30"
   cx="248.064"
   cy="327.05099"
   r="21.868999"
   id="circle2059" />
	<circle
   style="fill:#2d2e30"
   cx="323.89899"
   cy="327.05099"
   r="21.868999"
   id="circle2061" />
	<circle
   style="fill:#2d2e30"
   cx="399.746"
   cy="327.05099"
   r="21.868999"
   id="circle2063" />
</g>
<path
   style="fill:#5ec5ea;stroke-width:0.0509582"
   d="m 11.9479,24 c -0.593905,0 -1.152185,-0.273219 -1.57209,-0.769578 -0.122016,-0.144199 -0.284297,-0.223638 -0.4568899,-0.223638 -0.1725934,0 -0.3348742,0.07938 -0.4568896,0.223638 C 9.0421253,23.72667 8.4837985,24 7.8899405,24 c -0.593858,0 -1.1521848,-0.273219 -1.57209,-0.769578 -0.2518588,-0.297649 -0.6618735,-0.297704 -0.913826,0 C 4.9841661,23.72667 4.4258391,24 3.8319811,24 3.23817,24 2.6797964,23.726781 2.259938,23.230422 2.1379227,23.086223 1.9756418,23.006784 1.8030485,23.006784 c -0.1725934,0 -0.3348743,0.07938 -0.4569365,0.223638 -0.3079211,0.363904 -0.80723242,0.363904 -1.11515356,0 -0.30792114,-0.363904 -0.30796802,-0.953995 0,-1.317899 0.41990525,-0.496248 0.97823206,-0.769577 1.57204316,-0.769577 0.5939048,0 1.1521847,0.273218 1.57209,0.769577 0.1220153,0.144199 0.2842962,0.223639 0.4568895,0.223639 0.1725934,0 0.3348742,-0.07938 0.4568896,-0.223639 0.4199055,-0.496248 0.9782323,-0.769577 1.5720902,-0.769577 0.593858,0 1.1521848,0.273218 1.5720901,0.769577 0.1220153,0.144199 0.2842962,0.223639 0.4568895,0.223639 0.1725933,0 0.3348742,-0.07938 0.4568895,-0.223639 0.4199053,-0.496248 0.9782321,-0.769577 1.5720901,-0.769577 0.5938579,0 1.1521849,0.273218 1.5720899,0.769577 0.251859,0.297649 0.661874,0.29776 0.913826,0 0.866764,-1.02446 2.277323,-1.02446 3.144133,0 0.122062,0.144199 0.284296,0.223639 0.45689,0.223639 0.172593,0 0.334827,-0.07938 0.456889,-0.223639 0.866764,-1.02446 2.277323,-1.02446 3.144133,0 0.122016,0.144199 0.284297,0.223639 0.45689,0.223639 0.172593,0 0.334827,-0.07938 0.45689,-0.223639 0.866763,-1.02446 2.277322,-1.02446 3.144133,0 0.307968,0.363904 0.307968,0.953995 0,1.317899 -0.307921,0.363904 -0.807233,0.363904 -1.115154,0 -0.122062,-0.144199 -0.284296,-0.223638 -0.456889,-0.223638 -0.172594,0 -0.334828,0.07938 -0.45689,0.223638 -0.866764,1.02446 -2.277323,1.02446 -3.144133,0 -0.122062,-0.144199 -0.284296,-0.223638 -0.45689,-0.223638 -0.172593,0 -0.334827,0.07938 -0.456889,0.223638 -0.866764,1.02446 -2.277323,1.02446 -3.144133,0 -0.251953,-0.297649 -0.661874,-0.297649 -0.913826,0 C 13.100084,23.726726 12.541758,24 11.9479,24 Z"
   id="path2067" />
<path
   style="fill:#9d2217;stroke-width:0.0509582"
   d="M 21.440158,18.700428 H 0.92315992 l 0.0754217,0.755175 c 0.003844,0.0385 0.009,0.0765 0.0137812,0.114616 H 20.949472 Z"
   id="path2069" />
<path
   style="fill:#de3205;stroke-width:0.0509582"
   d="M 11.627697,18.700428 H 0.92315992 l 0.0754217,0.755175 c 0.003844,0.0385 0.008953,0.0765 0.0137344,0.114616 h 10.615381 z"
   id="path2071" />
<path
   style="fill:#e1e1e3;stroke-width:0.0509582"
   d="M 11.627697,6.7097626 H 2.5725466 c -0.4354677,0 -0.7885294,0.4172516 -0.7885294,0.9318915 0,0.5146398 0.3530617,0.9318914 0.7885294,0.9318914 h 9.0551504 z"
   id="path2073" />
<g
   id="g2083"
   transform="matrix(0.04687489,0,0,0.05539719,-4.1016659e-5,-2.1817074)">
	<path
   style="fill:#57565c"
   d="m 172.218,348.915 c -12.078,0 -21.869,-9.791 -21.869,-21.869 0,-12.078 9.791,-21.869 21.869,-21.869 z"
   id="path2075" />
	<path
   style="fill:#57565c"
   d="m 248.059,348.915 c -12.078,0 -21.869,-9.791 -21.869,-21.869 0,-12.078 9.791,-21.869 21.869,-21.869 z"
   id="path2077" />
	<path
   style="fill:#57565c"
   d="m 323.9,348.915 c -12.078,0 -21.869,-9.791 -21.869,-21.869 0,-12.078 9.791,-21.869 21.869,-21.869 z"
   id="path2079" />
	<path
   style="fill:#57565c"
   d="m 399.741,348.915 c -12.078,0 -21.869,-9.791 -21.869,-21.869 0,-12.078 9.791,-21.869 21.869,-21.869 z"
   id="path2081" />
</g>
<g
   id="g2085"
   transform="matrix(0.04687489,0,0,0.05539719,-4.1016659e-5,-2.1817074)">
</g>
<g
   id="g2087"
   transform="matrix(0.04687489,0,0,0.05539719,-4.1016659e-5,-2.1817074)">
</g>
<g
   id="g2089"
   transform="matrix(0.04687489,0,0,0.05539719,-4.1016659e-5,-2.1817074)">
</g>
<g
   id="g2091"
   transform="matrix(0.04687489,0,0,0.05539719,-4.1016659e-5,-2.1817074)">
</g>
<g
   id="g2093"
   transform="matrix(0.04687489,0,0,0.05539719,-4.1016659e-5,-2.1817074)">
</g>
<g
   id="g2095"
   transform="matrix(0.04687489,0,0,0.05539719,-4.1016659e-5,-2.1817074)">
</g>
<g
   id="g2097"
   transform="matrix(0.04687489,0,0,0.05539719,-4.1016659e-5,-2.1817074)">
</g>
<g
   id="g2099"
   transform="matrix(0.04687489,0,0,0.05539719,-4.1016659e-5,-2.1817074)">
</g>
<g
   id="g2101"
   transform="matrix(0.04687489,0,0,0.05539719,-4.1016659e-5,-2.1817074)">
</g>
<g
   id="g2103"
   transform="matrix(0.04687489,0,0,0.05539719,-4.1016659e-5,-2.1817074)">
</g>
<g
   id="g2105"
   transform="matrix(0.04687489,0,0,0.05539719,-4.1016659e-5,-2.1817074)">
</g>
<g
   id="g2107"
   transform="matrix(0.04687489,0,0,0.05539719,-4.1016659e-5,-2.1817074)">
</g>
<g
   id="g2109"
   transform="matrix(0.04687489,0,0,0.05539719,-4.1016659e-5,-2.1817074)">
</g>
<g
   id="g2111"
   transform="matrix(0.04687489,0,0,0.05539719,-4.1016659e-5,-2.1817074)">
</g>
<g
   id="g2113"
   transform="matrix(0.04687489,0,0,0.05539719,-4.1016659e-5,-2.1817074)">
</g>
</svg>
