<?xml version="1.0" encoding="UTF-8" standalone="no"?>
<!-- Generator: Adobe Illustrator 19.0.0, SVG Export Plug-In . SVG Version: 6.00 Build 0)  -->

<svg
   version="1.1"
   id="Layer_1"
   x="0px"
   y="0px"
   viewBox="0 0 24 24"
   xml:space="preserve"
   sodipodi:docname="shipOwners.svg"
   inkscape:version="1.2.1 (9c6d41e410, 2022-07-14)"
   width="24"
   height="24"
   xmlns:inkscape="http://www.inkscape.org/namespaces/inkscape"
   xmlns:sodipodi="http://sodipodi.sourceforge.net/DTD/sodipodi-0.dtd"
   xmlns="http://www.w3.org/2000/svg"
   xmlns:svg="http://www.w3.org/2000/svg"><defs
   id="defs59" /><sodipodi:namedview
   id="namedview57"
   pagecolor="#ffffff"
   bordercolor="#000000"
   borderopacity="0.25"
   inkscape:showpageshadow="2"
   inkscape:pageopacity="0.0"
   inkscape:pagecheckerboard="true"
   inkscape:deskcolor="#d1d1d1"
   showgrid="false"
   inkscape:zoom="33.666667"
   inkscape:cx="11.985149"
   inkscape:cy="12"
   inkscape:window-width="1920"
   inkscape:window-height="1014"
   inkscape:window-x="-8"
   inkscape:window-y="-8"
   inkscape:window-maximized="1"
   inkscape:current-layer="Layer_1" />


























<path
   style="fill:#128cb3;stroke-width:0.0609895"
   d="M 14.087583,6.3388023 13.576411,3.5745829 C 13.181067,1.4365465 12.026349,-4.726e-8 10.702928,-4.726e-8 H 6.265461 C 5.8255862,-4.726e-8 5.4690082,0.60372564 5.4690082,1.3483048 v 5.3932987 c 0,0.7446585 0.3566249,1.3483048 0.7964528,1.3483048 h 7.06195 c 0.253453,0 0.491766,-0.2040986 0.641859,-0.5499236 0.150094,-0.3457457 0.193969,-0.7917155 0.118313,-1.2011824 z"
   id="path2" /><path
   style="fill:#34b2d9;stroke-width:0.0609895"
   d="M 11.856193,0.38439102 C 11.499006,0.13521927 11.108959,-4.726e-8 10.702975,-4.726e-8 H 6.2655079 C 5.8256331,-4.726e-8 5.4690551,0.60372564 5.4690551,1.3483048 v 5.3932987 c 0,0.7446585 0.3566248,1.3483048 0.7964528,1.3483048 h 5.5905441 z"
   id="path4" /><path
   style="fill:#212a2d;stroke:#ffffff;stroke-width:0.0609895;stroke-opacity:1"
   d="M 20.831158,10.563533 16.501082,5.6765926 C 15.555238,4.6092012 14.454426,4.0449145 13.317661,4.0449145 H 5.4690551 v 7.6404465 c 0,0.744659 0.3566248,1.348305 0.7964528,1.348305 H 20.365877 c 0.324234,0 0.628125,-0.311544 0.755437,-0.816394 0.152672,-0.605234 0.0263,-1.296646 -0.290156,-1.653739 z"
   id="path6" /><path
   style="fill:#2e373a;stroke:#ffffff;stroke-width:0.0609895;stroke-opacity:1"
   d="M 11.856146,4.0449145 H 5.4690551 v 7.6404465 c 0,0.744659 0.3566248,1.348305 0.7964528,1.348305 h 5.5905441 z"
   id="path8" /><path
   style="fill:#ba2b11;stroke-width:0.0609895"
   d="M 23.203548,10.337057 H 3.4513684 c -0.3232029,0 -0.6143903,0.330668 -0.7369684,0.837026 L 0.05949489,22.140418 c -0.10068746,0.415815 -0.0723281,0.88932 0.07560934,1.262443 0.14789056,0.373202 0.39590608,0.59714 0.66135909,0.59714 H 16.72566 c 4.011092,0 7.27434,-5.524313 7.27434,-12.31464 0,-0.744579 -0.356578,-1.348304 -0.796452,-1.348304 z"
   id="path10" /><path
   style="fill:#e64122;stroke-width:0.0609895"
   d="M 11.856052,10.337057 H 3.4513684 c -0.3232029,0 -0.6143903,0.330668 -0.7369684,0.837026 L 0.05949489,22.140418 c -0.10068746,0.415815 -0.0723281,0.88932 0.07560934,1.262443 0.14789056,0.373202 0.39590608,0.59714 0.66135909,0.59714 H 11.856052 Z"
   id="path12" /><path
   style="fill:#a2b3bf;stroke-width:0.0609895"
   d="m 12.870568,18.516873 h -1.970109 c -0.439875,0 -0.796453,-0.603726 -0.796453,-1.348305 0,-0.744658 0.356625,-1.348305 0.796453,-1.348305 h 1.970109 c 0.439874,0 0.796452,0.603647 0.796452,1.348305 0,0.744659 -0.356625,1.348305 -0.796452,1.348305 z"
   id="path14" /><path
   style="fill:#c9d2d9;stroke-width:0.0609895"
   d="m 11.88549,18.516873 h -0.985078 c -0.439875,0 -0.796453,-0.603726 -0.796453,-1.348305 0,-0.744658 0.356625,-1.348305 0.796453,-1.348305 h 0.985078 z"
   id="path16" /><path
   style="fill:#a2b3bf;stroke-width:0.0609895"
   d="m 17.938597,18.516873 h -1.970156 c -0.439875,0 -0.796453,-0.603726 -0.796453,-1.348305 0,-0.744658 0.356625,-1.348305 0.796453,-1.348305 h 1.970109 c 0.439875,0 0.796453,0.603647 0.796453,1.348305 4.6e-5,0.744659 -0.356578,1.348305 -0.796406,1.348305 z"
   id="path18" /><path
   style="fill:#c9d2d9;stroke-width:0.0609895"
   d="m 16.953519,18.516873 h -0.985078 c -0.439875,0 -0.796453,-0.603726 -0.796453,-1.348305 0,-0.744658 0.356625,-1.348305 0.796453,-1.348305 h 0.985078 z"
   id="path20" /><path
   style="fill:#a2b3bf;stroke-width:0.0609895"
   d="M 7.7438979,18.516873 H 5.7737893 c -0.4398748,0 -0.7964528,-0.603726 -0.7964528,-1.348305 0,-0.744658 0.3566249,-1.348305 0.7964528,-1.348305 h 1.9701086 c 0.4398748,0 0.7964527,0.603647 0.7964527,1.348305 0,0.744659 -0.3565779,1.348305 -0.7964527,1.348305 z"
   id="path22" /><path
   style="fill:#c9d2d9;stroke-width:0.0609895"
   d="M 6.7588202,18.516873 H 5.7737424 c -0.4398748,0 -0.7964527,-0.603726 -0.7964527,-1.348305 0,-0.744658 0.3566248,-1.348305 0.7964527,-1.348305 h 0.9850778 z"
   id="path24" /><g
   id="g26"
   transform="matrix(0.04687498,0,0,0.07935406,1.0538369e-5,-8.3146391)">
</g><g
   id="g28"
   transform="matrix(0.04687498,0,0,0.07935406,1.0538369e-5,-8.3146391)">
</g><g
   id="g30"
   transform="matrix(0.04687498,0,0,0.07935406,1.0538369e-5,-8.3146391)">
</g><g
   id="g32"
   transform="matrix(0.04687498,0,0,0.07935406,1.0538369e-5,-8.3146391)">
</g><g
   id="g34"
   transform="matrix(0.04687498,0,0,0.07935406,1.0538369e-5,-8.3146391)">
</g><g
   id="g36"
   transform="matrix(0.04687498,0,0,0.07935406,1.0538369e-5,-8.3146391)">
</g><g
   id="g38"
   transform="matrix(0.04687498,0,0,0.07935406,1.0538369e-5,-8.3146391)">
</g><g
   id="g40"
   transform="matrix(0.04687498,0,0,0.07935406,1.0538369e-5,-8.3146391)">
</g><g
   id="g42"
   transform="matrix(0.04687498,0,0,0.07935406,1.0538369e-5,-8.3146391)">
</g><g
   id="g44"
   transform="matrix(0.04687498,0,0,0.07935406,1.0538369e-5,-8.3146391)">
</g><g
   id="g46"
   transform="matrix(0.04687498,0,0,0.07935406,1.0538369e-5,-8.3146391)">
</g><g
   id="g48"
   transform="matrix(0.04687498,0,0,0.07935406,1.0538369e-5,-8.3146391)">
</g><g
   id="g50"
   transform="matrix(0.04687498,0,0,0.07935406,1.0538369e-5,-8.3146391)">
</g><g
   id="g52"
   transform="matrix(0.04687498,0,0,0.07935406,1.0538369e-5,-8.3146391)">
</g><g
   id="g54"
   transform="matrix(0.04687498,0,0,0.07935406,1.0538369e-5,-8.3146391)">
</g>
<g
   id="g4857"
   style="stroke:#ffffff;stroke-width:0.2;stroke-dasharray:none;stroke-opacity:1"
   transform="matrix(0.58940012,0,0,0.58940012,-2.8791498,6.3442051)"><g
     id="g4845"
     transform="translate(-0.03846154,1)"
     style="stroke:#ffffff;stroke-width:0.2;stroke-dasharray:none;stroke-opacity:1"><circle
       class="cls-2"
       cx="16"
       cy="9"
       r="7"
       id="circle264"
       style="fill:#ffd188;stroke:#ffffff;stroke-width:0.2;stroke-dasharray:none;stroke-opacity:1" /><path
       class="cls-3"
       d="M 9.156,7.534 A 8.98,8.98 0 0 0 12,8 8.955,8.955 0 0 0 18,5.7 8.975,8.975 0 0 0 22.909,7.931 6.995,6.995 0 0 0 9.156,7.534 Z"
       id="path266"
       style="fill:#e67244;stroke:#ffffff;stroke-width:0.2;stroke-dasharray:none;stroke-opacity:1" /></g><g
     id="g4849"
     style="stroke:#ffffff;stroke-width:0.2;stroke-dasharray:none;stroke-opacity:1"><path
       class="cls-1"
       d="m 18,17 h -4 a 9,9 0 0 0 -9,9 v 1 a 3,3 0 0 0 3,3 h 16 a 3,3 0 0 0 3,-3 v -1 a 9,9 0 0 0 -9,-9 z"
       id="path262"
       style="fill:#2d4a60;stroke:#ffffff;stroke-width:0.2;stroke-dasharray:none;stroke-opacity:1" /><path
       class="cls-4"
       d="m 14,17 1,2 -1.677,5.868 a 2,2 0 0 0 0.509,1.964 l 1.461,1.461 a 1,1 0 0 0 1.414,0 l 1.461,-1.461 a 2,2 0 0 0 0.509,-1.964 L 17,19 18,17 Z"
       id="path268"
       style="fill:#fd3730;stroke:#ffffff;stroke-width:0.2;stroke-dasharray:none;stroke-opacity:1" /></g></g></svg>
