<?xml version="1.0" encoding="UTF-8" standalone="no"?>
<!-- Generator: Adobe Illustrator 19.0.0, SVG Export Plug-In . SVG Version: 6.00 Build 0)  -->

<svg
   version="1.1"
   id="Layer_1"
   x="0px"
   y="0px"
   viewBox="0 0 24.999998 24.999998"
   xml:space="preserve"
   sodipodi:docname="filter.svg"
   width="24.999998"
   height="24.999998"
   inkscape:version="1.2.1 (9c6d41e410, 2022-07-14)"
   xmlns:inkscape="http://www.inkscape.org/namespaces/inkscape"
   xmlns:sodipodi="http://sodipodi.sourceforge.net/DTD/sodipodi-0.dtd"
   xmlns="http://www.w3.org/2000/svg"
   xmlns:svg="http://www.w3.org/2000/svg"><defs
   id="defs2083" /><sodipodi:namedview
   id="namedview2081"
   pagecolor="#ffffff"
   bordercolor="#000000"
   borderopacity="0.25"
   inkscape:showpageshadow="2"
   inkscape:pageopacity="0.0"
   inkscape:pagecheckerboard="0"
   inkscape:deskcolor="#d1d1d1"
   showgrid="false"
   inkscape:zoom="32.560002"
   inkscape:cx="12.499999"
   inkscape:cy="12.499999"
   inkscape:window-width="1920"
   inkscape:window-height="1017"
   inkscape:window-x="1352"
   inkscape:window-y="-8"
   inkscape:window-maximized="1"
   inkscape:current-layer="Layer_1" />
<g
   id="g2048"
   transform="matrix(0.08417508,0,0,0.08308242,-0.16439393,0)"
   style="fill:#fcfcfc;fill-opacity:1">
	<g
   id="g2046"
   style="fill:#fcfcfc;fill-opacity:1">
		<path
   d="m 288.953,0 h -277 c -5.522,0 -10,4.478 -10,10 v 49.531 c 0,5.522 4.478,10 10,10 h 12.372 l 91.378,107.397 v 113.978 c 0,3.688 2.03,7.076 5.281,8.816 1.479,0.792 3.101,1.184 4.718,1.184 1.94,0 3.875,-0.564 5.548,-1.68 l 49.5,-33 c 2.782,-1.854 4.453,-4.977 4.453,-8.32 V 176.928 L 276.581,69.531 h 12.372 c 5.522,0 10,-4.478 10,-10 V 10 c 0,-5.522 -4.477,-10 -10,-10 z M 167.587,166.77 c -1.539,1.809 -2.384,4.105 -2.384,6.48 v 79.305 l -29.5,19.666 V 173.25 c 0,-2.375 -0.845,-4.672 -2.384,-6.48 L 50.585,69.531 H 250.321 Z M 278.953,49.531 h -257 V 20 h 257 z"
   id="path2044"
   style="fill:#fcfcfc;fill-opacity:1" />
	</g>
</g>
<g
   id="g2050"
   transform="matrix(0.08417508,0,0,0.08308242,-0.16439393,0)"
   style="fill:#fcfcfc;fill-opacity:1">
</g>
<g
   id="g2052"
   transform="matrix(0.08417508,0,0,0.08308242,-0.16439393,0)"
   style="fill:#fcfcfc;fill-opacity:1">
</g>
<g
   id="g2054"
   transform="matrix(0.08417508,0,0,0.08308242,-0.16439393,0)"
   style="fill:#fcfcfc;fill-opacity:1">
</g>
<g
   id="g2056"
   transform="matrix(0.08417508,0,0,0.08308242,-0.16439393,0)"
   style="fill:#fcfcfc;fill-opacity:1">
</g>
<g
   id="g2058"
   transform="matrix(0.08417508,0,0,0.08308242,-0.16439393,0)"
   style="fill:#fcfcfc;fill-opacity:1">
</g>
<g
   id="g2060"
   transform="matrix(0.08417508,0,0,0.08308242,-0.16439393,0)"
   style="fill:#fcfcfc;fill-opacity:1">
</g>
<g
   id="g2062"
   transform="matrix(0.08417508,0,0,0.08308242,-0.16439393,0)"
   style="fill:#fcfcfc;fill-opacity:1">
</g>
<g
   id="g2064"
   transform="matrix(0.08417508,0,0,0.08308242,-0.16439393,0)"
   style="fill:#fcfcfc;fill-opacity:1">
</g>
<g
   id="g2066"
   transform="matrix(0.08417508,0,0,0.08308242,-0.16439393,0)"
   style="fill:#fcfcfc;fill-opacity:1">
</g>
<g
   id="g2068"
   transform="matrix(0.08417508,0,0,0.08308242,-0.16439393,0)"
   style="fill:#fcfcfc;fill-opacity:1">
</g>
<g
   id="g2070"
   transform="matrix(0.08417508,0,0,0.08308242,-0.16439393,0)"
   style="fill:#fcfcfc;fill-opacity:1">
</g>
<g
   id="g2072"
   transform="matrix(0.08417508,0,0,0.08308242,-0.16439393,0)"
   style="fill:#fcfcfc;fill-opacity:1">
</g>
<g
   id="g2074"
   transform="matrix(0.08417508,0,0,0.08308242,-0.16439393,0)"
   style="fill:#fcfcfc;fill-opacity:1">
</g>
<g
   id="g2076"
   transform="matrix(0.08417508,0,0,0.08308242,-0.16439393,0)"
   style="fill:#fcfcfc;fill-opacity:1">
</g>
<g
   id="g2078"
   transform="matrix(0.08417508,0,0,0.08308242,-0.16439393,0)"
   style="fill:#fcfcfc;fill-opacity:1">
</g>
</svg>
