<?xml version="1.0" encoding="UTF-8" standalone="no"?>
<svg
   id="Layer_1"
   version="1.1"
   viewBox="0 0 25 25"
   xml:space="preserve"
   sodipodi:docname="person.svg"
   inkscape:version="1.2.1 (9c6d41e410, 2022-07-14)"
   width="25"
   height="25"
   xmlns:inkscape="http://www.inkscape.org/namespaces/inkscape"
   xmlns:sodipodi="http://sodipodi.sourceforge.net/DTD/sodipodi-0.dtd"
   xmlns="http://www.w3.org/2000/svg"
   xmlns:svg="http://www.w3.org/2000/svg"><defs
     id="defs7" /><sodipodi:namedview
     id="namedview5"
     pagecolor="#ffffff"
     bordercolor="#666666"
     borderopacity="1.0"
     inkscape:pageshadow="2"
     inkscape:pageopacity="0.0"
     inkscape:pagecheckerboard="0"
     showgrid="false"
     inkscape:zoom="32.56"
     inkscape:cx="12.5"
     inkscape:cy="12.5"
     inkscape:window-width="1920"
     inkscape:window-height="1017"
     inkscape:window-x="-8"
     inkscape:window-y="-8"
     inkscape:window-maximized="1"
     inkscape:current-layer="Layer_1"
     inkscape:showpageshadow="2"
     inkscape:deskcolor="#d1d1d1" /><path
     d="M 20.615034,8.16092 V 7.385057 c 0.96811,-0.574712 1.594533,-1.637931 1.594533,-2.787356 V 3.2183908 C 22.209567,1.4367816 20.785877,0 19.020501,0 17.255125,0 15.802961,1.4367816 15.802961,3.2183908 V 4.597701 c 0,1.12069 0.569476,2.155173 1.537586,2.729885 V 8.16092 c -0.427107,0.114942 -0.825741,0.287356 -1.224374,0.517241 -0.626424,-1.465517 -2.078588,-2.5 -3.758542,-2.5 -1.651481,0 -3.046697,0.977011 -3.701595,2.413793 C 8.285877,8.41954 7.915718,8.247126 7.545558,8.16092 V 7.385057 C 8.513667,6.810345 9.140091,5.747126 9.140091,4.597701 V 3.2183908 C 9.140091,1.4367816 7.716401,0 5.951025,0 4.1856492,0 2.761959,1.4367816 2.761959,3.2183908 V 4.597701 c 0,1.12069 0.5694761,2.155173 1.5375854,2.729885 V 8.16092 C 1.7369021,8.908046 0,11.235632 0,13.936782 c 0,0.229885 0.1993166,0.431034 0.4271071,0.431034 H 8.855353 c 0.02847,0 0.05695,0 0.08542,0 0.341686,0.545977 0.825741,1.005747 1.395217,1.350575 v 1.293103 C 6.947608,17.931034 4.6412301,21.005747 4.6412301,24.568966 4.6412301,24.798851 4.8405467,25 5.0683371,25 H 19.732346 c 0.227791,0 0.427107,-0.201149 0.427107,-0.431034 0,-3.534483 -2.420273,-6.666667 -5.780182,-7.557472 v -1.235632 c 0.59795,-0.344828 1.082005,-0.804598 1.452164,-1.37931 h 8.741458 C 24.800683,14.396552 25,14.195402 25,13.965517 24.97153,11.264368 23.149203,8.87931 20.615034,8.16092 Z M 0.8542141,13.534483 C 1.0250569,11.293103 2.61959,9.454023 4.8120729,8.936782 5.0113895,8.879312 5.1537585,8.706897 5.1537585,8.505747 V 7.068966 c 0,-0.172414 -0.085421,-0.316092 -0.2277904,-0.373564 C 4.1287016,6.293103 3.6161731,5.488506 3.6161731,4.597701 V 3.2183908 c 0,-1.2931034 1.0535308,-2.3563218 2.3348519,-2.3563218 1.281321,0 2.334852,1.0632184 2.334852,2.3563218 V 4.597701 c 0,0.890805 -0.541002,1.724138 -1.338269,2.126437 -0.142369,0.05747 -0.256264,0.229885 -0.256264,0.402299 v 1.37931 c 0,0.20115 0.142369,0.373563 0.341686,0.431035 0.484054,0.114942 0.939635,0.287356 1.366742,0.517241 -0.05695,0.287356 -0.08542,0.574713 -0.08542,0.890805 v 1.83908 c 0,0.45977 0.08542,0.91954 0.22779,1.350575 z m 12.8986329,1.58046 c -0.142369,0.05747 -0.256264,0.229885 -0.256264,0.402298 v 1.839081 c 0,0.201149 0.142369,0.373563 0.341686,0.431034 3.018223,0.66092 5.23918,3.304598 5.438496,6.379311 H 5.4954442 c 0.1708428,-3.074713 2.3348518,-5.66092 5.3530748,-6.350575 0.199317,-0.05747 0.341686,-0.229885 0.341686,-0.431035 v -1.896551 c 0,-0.172414 -0.08542,-0.316092 -0.22779,-0.373563 -1.110479,-0.545977 -1.79385,-1.666667 -1.79385,-2.902299 v -1.839081 c 0,-1.810345 1.452164,-3.247126 3.21754,-3.247126 1.765376,0 3.21754,1.465517 3.21754,3.247126 v 1.810345 c 0,1.235632 -0.711845,2.385058 -1.850798,2.931035 z m 2.477221,-1.58046 c 0.142369,-0.431035 0.227791,-0.890805 0.227791,-1.350575 v -1.83908 c 0,-0.258621 -0.02847,-0.545977 -0.08542,-0.775862 0.455581,-0.287357 0.96811,-0.488506 1.480638,-0.603449 0.199317,-0.05747 0.341686,-0.229885 0.341686,-0.431034 V 7.097701 c 0,-0.172414 -0.08542,-0.316092 -0.227791,-0.373563 C 17.169706,6.321839 16.657177,5.517241 16.657177,4.626437 V 3.2471264 c 0,-1.2931034 1.053531,-2.3563218 2.334852,-2.3563218 1.281322,0 2.334852,1.0632184 2.334852,2.3563218 V 4.626437 c 0,0.890804 -0.541002,1.724138 -1.338269,2.126437 -0.142369,0.05747 -0.256264,0.229885 -0.256264,0.402298 v 1.379311 c 0,0.201149 0.142369,0.373563 0.341686,0.431034 2.192483,0.488506 3.81549,2.385058 4.014806,4.597701 l -7.85877,-0.02874 z"
     id="path2"
     style="fill:#fcfcfc;stroke:none;stroke-width:0.286044;fill-rule:nonzero;stroke-opacity:1" /><path
     style="fill:#fcfcfc;fill-opacity:1;fill-rule:nonzero;stroke:none;stroke-width:0.0495393;stroke-opacity:1"
     d="m 0.86007436,13.459767 c 6.788e-5,-0.03801 0.0205786,-0.193489 0.0455792,-0.345516 0.16974314,-1.032196 0.61985234,-1.943503 1.32778184,-2.688272 0.6688349,-0.7036415 1.4459,-1.1721476 2.3734442,-1.4309919 0.2757638,-0.076956 0.371078,-0.131051 0.4741465,-0.2691001 0.0604,-0.080899 0.063323,-0.1241914 0.063323,-0.937863 0,-0.6800486 -0.00889,-0.8696533 -0.043817,-0.934922 C 5.0749702,6.8053394 4.9534122,6.7120645 4.8087629,6.6292196 4.6419853,6.5337012 4.4736981,6.3995147 4.2947199,6.2193391 4.0655974,5.9886837 4.0072353,5.9071351 3.874641,5.6323679 3.6320333,5.1296268 3.6177793,5.0228194 3.6307193,3.8046183 3.6417271,2.7683134 3.642106,2.7631394 3.7248996,2.5184275 3.856754,2.1287072 4.0326265,1.8427586 4.3121017,1.5637048 4.5935494,1.282681 4.8769217,1.1029132 5.2364865,0.97728662 5.4630147,0.89814112 5.5181345,0.89141222 5.9428747,0.89105302 6.344473,0.89071337 6.4311379,0.89986602 6.6185504,0.96240882 7.4141913,1.227929 7.9740031,1.8107946 8.2076683,2.6169691 c 0.065861,0.2272283 0.069359,0.2911831 0.069359,1.268166 0,1.1634429 -0.012776,1.257883 -0.2313203,1.7099021 C 7.8242478,6.053086 7.4873467,6.410418 7.021332,6.6815338 c -0.3283557,0.1910292 -0.326,0.1829966 -0.326,1.1116711 0,1.0342484 0.00754,1.0520488 0.5031536,1.1875119 0.3064441,0.083759 0.7795076,0.2599297 1.0125629,0.3770823 L 8.39077,9.4481421 8.36957,9.5612947 C 8.329542,9.7749403 8.315943,12.451853 8.353548,12.714988 c 0.032177,0.225148 0.1275132,0.648158 0.1725028,0.765399 0.016888,0.04401 -0.3359054,0.04848 -3.8237476,0.04848 H 0.85995086 Z"
     id="path1092" /><path
     style="fill:#fcfcfc;fill-opacity:1;fill-rule:nonzero;stroke:none;stroke-width:0.0495393;stroke-opacity:1"
     d="m 17.575246,13.536557 c -0.730575,-0.0046 -1.328317,-0.01455 -1.328317,-0.02214 0,-0.0076 0.0341,-0.149105 0.07579,-0.314477 0.04168,-0.165373 0.08994,-0.425064 0.107242,-0.577091 0.04104,-0.360623 0.04118,-2.387551 1.87e-4,-2.7035082 -0.01747,-0.1346922 -0.03475,-0.2713897 -0.03839,-0.3037727 -0.0123,-0.1094131 0.639378,-0.4187021 1.245028,-0.5908919 0.156188,-0.044405 0.322193,-0.107496 0.368901,-0.1402018 0.16954,-0.1187168 0.176133,-0.1596403 0.176133,-1.0931818 0,-0.9917024 0.01811,-0.9286471 -0.324245,-1.1288649 C 17.438868,6.4175611 17.099233,6.0525786 16.892845,5.6257015 16.675958,5.1771093 16.662414,5.0777113 16.661954,3.9312039 16.661491,2.7764297 16.672622,2.6986313 16.90803,2.2113022 17.141895,1.727167 17.494473,1.3740327 17.982187,1.1354527 c 0.393116,-0.19230497 0.620071,-0.2384083 1.090295,-0.22148106 0.304928,0.0109769 0.434452,0.0303735 0.629606,0.0942858 0.642594,0.2104466 1.200765,0.7374668 1.455462,1.3742353 0.148201,0.3705165 0.162504,0.5303115 0.149824,1.6738562 -0.01101,0.992504 -0.0149,1.0513698 -0.08203,1.2408999 -0.209981,0.592781 -0.605979,1.0888142 -1.100089,1.3779908 -0.256122,0.149894 -0.343471,0.2405694 -0.378925,0.3933522 -0.03794,0.1634816 -0.03451,1.3770252 0.0044,1.5462731 0.0429,0.1867745 0.157742,0.2989124 0.365161,0.3565697 0.09338,0.025956 0.280338,0.082405 0.415473,0.1254432 1.304348,0.4154121 2.398076,1.3656272 3.033324,2.6353092 0.240931,0.481551 0.449721,1.1606 0.499351,1.624036 l 0.02178,0.203359 -2.591109,-0.0073 c -1.42511,-0.004 -3.188851,-0.0111 -3.919425,-0.01568 z"
     id="path1094" /><path
     style="fill:#fcfcfc;fill-opacity:1;fill-rule:nonzero;stroke:none;stroke-width:0.0495393;stroke-opacity:1"
     d="m 5.5111685,23.948096 c 0.090985,-0.907644 0.2942744,-1.634609 0.676344,-2.418612 0.3791989,-0.778112 0.7699256,-1.318983 1.3877249,-1.920984 0.8602359,-0.838239 1.8021751,-1.383061 2.9452226,-1.70353 0.44332,-0.124291 0.512437,-0.158995 0.598827,-0.30068 0.05631,-0.09235 0.05984,-0.161669 0.05984,-1.173086 0,-1.239245 0.0065,-1.208241 -0.282754,-1.354525 C 10.621475,14.937641 10.376334,14.755518 10.117017,14.49767 9.6503904,14.033684 9.3711397,13.508232 9.2297549,12.828152 9.1609072,12.496984 9.161777,10.115838 9.230879,9.7515627 9.4757518,8.460698 10.469566,7.4576207 11.769283,7.1894985 c 0.295487,-0.060957 0.892822,-0.063802 1.196381,-0.0057 0.643149,0.123104 1.196942,0.4181414 1.672743,0.8911654 0.420015,0.4175635 0.699835,0.9104614 0.881343,1.5524665 0.0624,0.2207257 0.0654,0.2958186 0.0655,1.6440666 l 1.23e-4,1.412776 -0.08105,0.29542 c -0.24531,0.894154 -0.883877,1.69918 -1.652969,2.083857 -0.213021,0.106548 -0.300291,0.204755 -0.339281,0.381801 -0.02274,0.103237 -0.03098,0.477734 -0.0242,1.098834 0.0098,0.895151 0.01345,0.946456 0.07361,1.026972 0.108903,0.145755 0.201569,0.192317 0.598406,0.300686 1.626047,0.44404 3.010107,1.450437 3.958412,2.878293 0.619072,0.932132 1.028974,2.072873 1.132566,3.151889 l 0.02433,0.253378 H 12.382798 5.4903961 l 0.020781,-0.207309 z"
     id="path1096" /></svg>
