<?xml version="1.0" encoding="UTF-8" standalone="no"?>
<svg
   version="1.1"
   viewBox="0 0 24.999998 25"
   enable-background="new 0 0 512 512"
   id="svg308"
   sodipodi:docname="visible.svg.2022_08_09_10_23_10.1.svg"
   width="24.999998"
   height="25"
   inkscape:version="1.2.1 (9c6d41e410, 2022-07-14)"
   xmlns:inkscape="http://www.inkscape.org/namespaces/inkscape"
   xmlns:sodipodi="http://sodipodi.sourceforge.net/DTD/sodipodi-0.dtd"
   xmlns="http://www.w3.org/2000/svg"
   xmlns:svg="http://www.w3.org/2000/svg">
  <defs
     id="defs312" />
  <sodipodi:namedview
     id="namedview310"
     pagecolor="#ffffff"
     bordercolor="#000000"
     borderopacity="0.25"
     inkscape:showpageshadow="2"
     inkscape:pageopacity="0.0"
     inkscape:pagecheckerboard="0"
     inkscape:deskcolor="#d1d1d1"
     showgrid="false"
     inkscape:zoom="32.56"
     inkscape:cx="12.5"
     inkscape:cy="12.5"
     inkscape:window-width="1920"
     inkscape:window-height="1017"
     inkscape:window-x="-8"
     inkscape:window-y="-8"
     inkscape:window-maximized="1"
     inkscape:current-layer="svg308" />
  <g
     id="g306"
     style="fill:#fcfcfc;fill-opacity:1"
     transform="matrix(0.05102561,0,0,0.07751938,-0.56255735,-7.3410853)">
    <g
       id="g304"
       style="fill:#fcfcfc;fill-opacity:1">
      <path
         d="M 497.6,244.7 C 433.7,148 347.9,94.7 256,94.7 c -91.9,0 -177.7,53.3 -241.6,150 -4.5,6.8 -4.5,15.7 0,22.5 63.9,96.7 149.7,150 241.6,150 91.9,0 177.7,-53.3 241.6,-150 4.5,-6.8 4.5,-15.6 0,-22.5 z M 256,376.4 C 181.8,376.4 111.2,333.8 56.1,256 111.1,178.2 181.7,135.6 256,135.6 330.2,135.6 400.8,178.2 455.9,256 400.8,333.8 330.3,376.4 256,376.4 Z"
         id="path300"
         style="fill:#fcfcfc;fill-opacity:1" />
      <path
         d="m 256,148.5 c -59.3,0 -107.5,48.2 -107.5,107.5 0,59.3 48.2,107.5 107.5,107.5 59.3,0 107.5,-48.2 107.5,-107.5 0,-59.3 -48.2,-107.5 -107.5,-107.5 z m 0,175.5 c -36.8,0 -66.8,-30.5 -66.8,-68 0,-37.5 30,-68 66.8,-68 36.8,0 66.8,30.5 66.8,68 0,37.5 -30,68 -66.8,68 z"
         id="path302"
         style="fill:#fcfcfc;fill-opacity:1" />
    </g>
  </g>
</svg>
