<?xml version="1.0" encoding="UTF-8" standalone="no"?>
<svg
   enable-background="new 0 0 32 32"
   height="32px"
   id="Layer_1"
   version="1.1"
   viewBox="0 0 32 32"
   width="32px"
   xml:space="preserve"
   sodipodi:docname="calendar.svg"
   inkscape:version="1.1 (c68e22c387, 2021-05-23)"
   xmlns:inkscape="http://www.inkscape.org/namespaces/inkscape"
   xmlns:sodipodi="http://sodipodi.sourceforge.net/DTD/sodipodi-0.dtd"
   xmlns="http://www.w3.org/2000/svg"
   xmlns:svg="http://www.w3.org/2000/svg"><defs
     id="defs26" /><sodipodi:namedview
     id="namedview24"
     pagecolor="#ffffff"
     bordercolor="#666666"
     borderopacity="1.0"
     inkscape:pageshadow="2"
     inkscape:pageopacity="0.0"
     inkscape:pagecheckerboard="0"
     showgrid="false"
     inkscape:zoom="26"
     inkscape:cx="15.980769"
     inkscape:cy="16.019231"
     inkscape:window-width="1920"
     inkscape:window-height="1017"
     inkscape:window-x="-8"
     inkscape:window-y="-8"
     inkscape:window-maximized="1"
     inkscape:current-layer="Layer_1" /><g
     id="calendar_1_"
     style="fill:#fcfcfc;stroke:none"><path
       d="M 29.334,3 H 25 V 1 C 25,0.447 24.553,0 24,0 23.447,0 23,0.447 23,1 V 3 H 17 V 1 C 17,0.447 16.552,0 16,0 15.448,0 15,0.447 15,1 V 3 H 9 V 1 C 9,0.447 8.552,0 8,0 7.448,0 7,0.447 7,1 V 3 H 2.667 C 1.194,3 0,4.193 0,5.666 V 29.333 C 0,30.806 1.194,32 2.667,32 H 29.334 C 30.807,32 32,30.806 32,29.333 V 5.666 C 32,4.193 30.807,3 29.334,3 Z M 30,29.333 C 30,29.701 29.701,30 29.334,30 H 2.667 C 2.299,30 2,29.701 2,29.333 V 5.666 C 2,5.299 2.299,5 2.667,5 H 7 V 7 C 7,7.553 7.448,8 8,8 8.552,8 9,7.553 9,7 V 5 h 6 v 2 c 0,0.553 0.448,1 1,1 0.552,0 1,-0.447 1,-1 V 5 h 6 v 2 c 0,0.553 0.447,1 1,1 0.553,0 1,-0.447 1,-1 V 5 h 4.334 C 29.701,5 30,5.299 30,5.666 Z"
       fill="#333332"
       id="path2"
       style="fill:#fcfcfc;stroke:none" /><rect
       fill="#333332"
       height="3"
       width="4"
       x="7"
       y="12"
       id="rect4"
       style="fill:#fcfcfc;stroke:none" /><rect
       fill="#333332"
       height="3"
       width="4"
       x="7"
       y="17"
       id="rect6"
       style="fill:#fcfcfc;stroke:none" /><rect
       fill="#333332"
       height="3"
       width="4"
       x="7"
       y="22"
       id="rect8"
       style="fill:#fcfcfc;stroke:none" /><rect
       fill="#333332"
       height="3"
       width="4"
       x="14"
       y="22"
       id="rect10"
       style="fill:#fcfcfc;stroke:none" /><rect
       fill="#333332"
       height="3"
       width="4"
       x="14"
       y="17"
       id="rect12"
       style="fill:#fcfcfc;stroke:none" /><rect
       fill="#333332"
       height="3"
       width="4"
       x="14"
       y="12"
       id="rect14"
       style="fill:#fcfcfc;stroke:none" /><rect
       fill="#333332"
       height="3"
       width="4"
       x="21"
       y="22"
       id="rect16"
       style="fill:#fcfcfc;stroke:none" /><rect
       fill="#333332"
       height="3"
       width="4"
       x="21"
       y="17"
       id="rect18"
       style="fill:#fcfcfc;stroke:none" /><rect
       fill="#333332"
       height="3"
       width="4"
       x="21"
       y="12"
       id="rect20"
       style="fill:#fcfcfc;stroke:none" /></g></svg>
