<?xml version="1.0" encoding="UTF-8" standalone="no"?>
<!-- Generator: Adobe Illustrator 23.0.3, SVG Export Plug-In . SVG Version: 6.00 Build 0)  -->

<svg
   version="1.1"
   id="Layer_1"
   x="0px"
   y="0px"
   viewBox="0 0 24 24"
   xml:space="preserve"
   sodipodi:docname="manifest.svg"
   width="24"
   height="24"
   inkscape:version="1.2.1 (9c6d41e410, 2022-07-14)"
   xmlns:inkscape="http://www.inkscape.org/namespaces/inkscape"
   xmlns:sodipodi="http://sodipodi.sourceforge.net/DTD/sodipodi-0.dtd"
   xmlns="http://www.w3.org/2000/svg"
   xmlns:svg="http://www.w3.org/2000/svg"
   xmlns:rdf="http://www.w3.org/1999/02/22-rdf-syntax-ns#"
   xmlns:cc="http://creativecommons.org/ns#"
   xmlns:dc="http://purl.org/dc/elements/1.1/"><defs
   id="defs5077" /><sodipodi:namedview
   id="namedview5075"
   pagecolor="#ffffff"
   bordercolor="#111111"
   borderopacity="1"
   inkscape:showpageshadow="0"
   inkscape:pageopacity="0"
   inkscape:pagecheckerboard="1"
   inkscape:deskcolor="#d1d1d1"
   showgrid="false"
   inkscape:zoom="33.916667"
   inkscape:cx="12"
   inkscape:cy="12"
   inkscape:window-width="1920"
   inkscape:window-height="1017"
   inkscape:window-x="-8"
   inkscape:window-y="-8"
   inkscape:window-maximized="1"
   inkscape:current-layer="g3432" />
<style
   type="text/css"
   id="style5046">
	.st0{fill:#FFB60B;}
	.st1{fill:#141C28;}
</style>
<title
   id="title5048">notepad-1-flat</title>












<metadata
   id="metadata7893"><rdf:RDF><cc:Work
       rdf:about=""><dc:title>notepad-1-flat</dc:title></cc:Work></rdf:RDF></metadata><g
   id="g192"
   transform="matrix(0.04687498,0,0,0.07935406,1.0538369e-5,-8.3146391)"><path
     style="fill:#128cb3"
     d="M 300.535,184.659 289.63,149.825 c -8.434,-26.943 -33.068,-45.046 -61.301,-45.046 h -94.666 c -9.384,0 -16.991,7.608 -16.991,16.991 v 67.965 c 0,9.384 7.608,16.991 16.991,16.991 h 150.655 c 5.407,0 10.491,-2.572 13.693,-6.93 3.202,-4.357 4.138,-9.977 2.524,-15.137 z"
     id="path2" /><path
     style="fill:#34b2d9"
     d="m 252.932,109.623 c -7.62,-3.14 -15.941,-4.844 -24.602,-4.844 h -94.666 c -9.384,0 -16.991,7.608 -16.991,16.991 v 67.965 c 0,9.384 7.608,16.991 16.991,16.991 h 119.265 z"
     id="path4" /><path
     style="fill:#212a2d"
     d="M 444.398,237.898 352.023,176.314 C 331.845,162.863 308.361,155.752 284.11,155.752 H 116.673 v 96.283 c 0,9.384 7.608,16.991 16.991,16.991 h 300.808 c 6.917,0 13.4,-3.926 16.116,-10.288 3.257,-7.627 0.561,-16.34 -6.19,-20.84 z"
     id="path6" /><path
     style="fill:#2e373a"
     d="M 252.931,155.752 H 116.673 v 96.283 c 0,9.384 7.608,16.991 16.991,16.991 h 119.265 z"
     id="path8" /><path
     style="fill:#ba2b11"
     d="M 495.009,235.044 H 73.629 c -6.895,0 -13.107,4.167 -15.722,10.548 L 1.269,383.787 c -2.148,5.24 -1.543,11.207 1.613,15.909 3.155,4.703 8.446,7.525 14.109,7.525 h 339.823 c 85.57,0 155.186,-69.616 155.186,-155.186 0,-9.383 -7.607,-16.991 -16.991,-16.991 z"
     id="path10" /><path
     style="fill:#e64122"
     d="m 252.929,235.044 h -179.3 c -6.895,0 -13.107,4.167 -15.722,10.548 L 1.269,383.787 c -2.148,5.24 -1.543,11.207 1.613,15.909 3.155,4.703 8.446,7.525 14.109,7.525 h 235.938 z"
     id="path12" /><path
     style="fill:#a2b3bf"
     d="m 274.572,338.124 h -42.029 c -9.384,0 -16.991,-7.608 -16.991,-16.991 0,-9.384 7.608,-16.991 16.991,-16.991 h 42.029 c 9.384,0 16.991,7.607 16.991,16.991 0,9.384 -7.608,16.991 -16.991,16.991 z"
     id="path14" /><path
     style="fill:#c9d2d9"
     d="m 253.557,338.124 h -21.015 c -9.384,0 -16.991,-7.608 -16.991,-16.991 0,-9.384 7.608,-16.991 16.991,-16.991 h 21.015 z"
     id="path16" /><path
     style="fill:#a2b3bf"
     d="m 382.69,338.124 h -42.03 c -9.384,0 -16.991,-7.608 -16.991,-16.991 0,-9.384 7.608,-16.991 16.991,-16.991 h 42.029 c 9.384,0 16.991,7.607 16.991,16.991 10e-4,9.384 -7.607,16.991 -16.99,16.991 z"
     id="path18" /><path
     style="fill:#c9d2d9"
     d="M 361.675,338.124 H 340.66 c -9.384,0 -16.991,-7.608 -16.991,-16.991 0,-9.384 7.608,-16.991 16.991,-16.991 h 21.015 z"
     id="path20" /><path
     style="fill:#a2b3bf"
     d="m 165.203,338.124 h -42.029 c -9.384,0 -16.991,-7.608 -16.991,-16.991 0,-9.384 7.608,-16.991 16.991,-16.991 h 42.029 c 9.384,0 16.991,7.607 16.991,16.991 0,9.384 -7.607,16.991 -16.991,16.991 z"
     id="path22" /><path
     style="fill:#c9d2d9"
     d="m 144.188,338.124 h -21.015 c -9.384,0 -16.991,-7.608 -16.991,-16.991 0,-9.384 7.608,-16.991 16.991,-16.991 h 21.015 z"
     id="path24" /><g
     id="g26">
</g><g
     id="g28">
</g><g
     id="g30">
</g><g
     id="g32">
</g><g
     id="g34">
</g><g
     id="g36">
</g><g
     id="g38">
</g><g
     id="g40">
</g><g
     id="g42">
</g><g
     id="g44">
</g><g
     id="g46">
</g><g
     id="g48">
</g><g
     id="g50">
</g><g
     id="g52">
</g><g
     id="g54">
</g></g><g
   id="g7862"
   transform="matrix(0.02663574,0,0,0.0312488,-1.36375,8.0006167)"><g
     id="g3432"
     transform="matrix(1.2832265,0,0,1.0624999,616.17779,-12.278196)"><path
       class="st0"
       d="m -94.679084,19.838304 h -57.599996 c 4.2,5.5 6.5,12.3 6.5,19.2 v 38.4 c 0,17.7 -14.3,31.999996 -32,31.999996 h -115.3 c -17.7,0 -32,-14.299996 -32,-31.999996 v -38.4 c 0,-6.9 2.3,-13.7 6.4,-19.2 h -57.6 c -35.3,0.1 -63.9,28.7 -64,64 V 429.4383 c 0.1,35.3 28.7,63.9 64,64 h 281.599996 c 35.3,-0.1 63.9,-28.7 64,-64 V 83.838304 c -0.1,-35.3 -28.7,-63.9 -64,-64 z"
       id="path5050" /><path
       class="st1"
       d="m -145.87908,199.0383 h -128 c -7.1,0 -12.8,-5.7 -12.8,-12.8 0,-7.1 5.7,-12.8 12.8,-12.8 v 0 h 128 c 7.1,0 12.8,5.7 12.8,12.8 0,7.1 -5.7,12.8 -12.8,12.8 z"
       id="path5052" /><circle
       class="st1"
       cx="-325.0791"
       cy="186.23831"
       r="12.8"
       id="circle5054" /><path
       class="st1"
       d="m -145.87908,250.2383 h -128 c -7.1,0 -12.8,-5.7 -12.8,-12.8 0,-7.1 5.7,-12.8 12.8,-12.8 v 0 h 128 c 7.1,0 12.8,5.7 12.8,12.8 0,7.1 -5.7,12.8 -12.8,12.8 z"
       id="path5056" /><circle
       class="st1"
       cx="-325.0791"
       cy="237.43831"
       r="12.8"
       id="circle5058" /><path
       class="st1"
       d="m -145.87908,301.4383 h -128 c -7.1,0 -12.8,-5.7 -12.8,-12.8 0,-7.1 5.7,-12.8 12.8,-12.8 v 0 h 128 c 7.1,0 12.8,5.7 12.8,12.8 0,7.1 -5.7,12.8 -12.8,12.8 z"
       id="path5060" /><circle
       class="st1"
       cx="-325.0791"
       cy="288.63831"
       r="12.8"
       id="circle5062" /><path
       class="st1"
       d="m -145.87908,352.6383 h -128 c -7.1,0 -12.8,-5.7 -12.8,-12.8 0,-7.1 5.7,-12.8 12.8,-12.8 v 0 h 128 c 7.1,0 12.8,5.7 12.8,12.8 0,7.1 -5.7,12.8 -12.8,12.8 z"
       id="path5064" /><circle
       class="st1"
       cx="-325.0791"
       cy="339.83829"
       r="12.8"
       id="circle5066" /><path
       class="st1"
       d="m -145.87908,403.8383 h -128 c -7.1,0 -12.8,-5.7 -12.8,-12.8 0,-7.1 5.7,-12.8 12.8,-12.8 v 0 h 128 c 7.1,0 12.8,5.7 12.8,12.8 0,7.1 -5.7,12.8 -12.8,12.8 z"
       id="path5068" /><circle
       class="st1"
       cx="-325.0791"
       cy="391.0383"
       r="12.8"
       id="circle5070" /><path
       class="st1"
       d="m -177.87908,7.0383041 h -21.4 c -7,-20.0000001 -28.9,-30.5000001 -48.9,-23.4000001 -11,3.9 -19.6,12.5000001 -23.4,23.4000001 h -21.4 c -17.7,0 -32,14.2999999 -32,31.9999999 v 38.4 c 0,17.7 14.3,31.999996 32,31.999996 h 115.2 c 17.7,0 32,-14.299996 32,-31.999996 v -38.4 c -0.1,-17.7 -14.4,-31.9999999 -32.1,-31.9999999 z m -57.6,25.5999999 c -7.1,0 -12.8,-5.7 -12.8,-12.8 0,-7.1 5.7,-12.7999999 12.8,-12.7999999 7.1,0 12.8,5.6999999 12.8,12.7999999 0,0 0,0 0,0 0,7.1 -5.7,12.8 -12.8,12.8 z"
       id="path5072"
       style="fill:#212a2d;fill-opacity:1" /></g></g></svg>
