<?xml version="1.0" ?><!DOCTYPE svg  PUBLIC '-//W3C//DTD SVG 1.1//EN'  'http://www.w3.org/Graphics/SVG/1.1/DTD/svg11.dtd'><svg enable-background="new 0 0 500 500" height="500px" id="Layer_1" version="1.1" viewBox="0 0 500 500" width="500px" xml:space="preserve" xmlns="http://www.w3.org/2000/svg" xmlns:xlink="http://www.w3.org/1999/xlink"><path clip-rule="evenodd" d="M349.938,127.345c0,12.539,10.18,22.715,22.717,22.715  c12.535,0,22.711-10.177,22.711-22.715c0-12.536-10.176-22.713-22.711-22.713C360.118,104.632,349.938,114.809,349.938,127.345z   M349.938,272.715c0,12.537,10.18,22.712,22.717,22.712c12.535,0,22.711-10.175,22.711-22.712c0-12.54-10.176-22.715-22.711-22.715  C360.118,250,349.938,260.175,349.938,272.715z M31.949,331.771c0,20.074,16.264,36.341,36.34,36.341h154.454v25.072  c-4.453,2.999-8.269,6.815-11.268,11.268H100.089c-12.537,0-22.714,10.179-22.714,22.716c0,12.535,10.177,22.711,22.714,22.711  h111.386c7.355,10.997,19.804,18.172,33.981,18.172c14.18,0,26.616-7.175,33.983-18.172h120.469  c12.54,0,22.715-10.176,22.715-22.711c0-12.537-10.175-22.716-22.715-22.716H279.44c-3-4.452-6.817-8.269-11.269-11.268v-25.072  h163.539c20.078,0,36.34-16.267,36.34-36.341V68.29c0-20.077-16.262-36.34-36.34-36.34H68.29c-20.077,0-36.34,16.264-36.34,36.34  V331.771z M97.367,77.375h305.267c11.084,0,19.99,8.905,19.99,19.991v59.959c0,11.086-8.906,19.991-19.99,19.991H97.367  c-11.083,0-19.991-8.905-19.991-19.991V97.367C77.375,86.28,86.284,77.375,97.367,77.375z M97.367,222.744h305.267  c11.084,0,19.99,8.904,19.99,19.989v59.961c0,11.081-8.906,19.991-19.99,19.991H97.367c-11.083,0-19.991-8.91-19.991-19.991v-59.961  C77.375,231.648,86.284,222.744,97.367,222.744z" fill="#010101" fill-rule="evenodd"/></svg>