<?xml version="1.0" encoding="UTF-8" standalone="no"?>
<svg
   id="Layer_1"
   data-name="Layer 1"
   viewBox="0 0 22 22"
   version="1.1"
   sodipodi:docname="calendar-dark.svg"
   inkscape:version="1.2.1 (9c6d41e410, 2022-07-14)"
   width="22"
   height="22"
   xmlns:inkscape="http://www.inkscape.org/namespaces/inkscape"
   xmlns:sodipodi="http://sodipodi.sourceforge.net/DTD/sodipodi-0.dtd"
   xmlns="http://www.w3.org/2000/svg"
   xmlns:svg="http://www.w3.org/2000/svg"
   xmlns:rdf="http://www.w3.org/1999/02/22-rdf-syntax-ns#"
   xmlns:cc="http://creativecommons.org/ns#"
   xmlns:dc="http://purl.org/dc/elements/1.1/">
  <defs
     id="defs919" />
  <sodipodi:namedview
     id="namedview917"
     pagecolor="#ffffff"
     bordercolor="#666666"
     borderopacity="1.0"
     inkscape:pageshadow="2"
     inkscape:pageopacity="0.0"
     inkscape:pagecheckerboard="0"
     showgrid="false"
     inkscape:zoom="37"
     inkscape:cx="10.986486"
     inkscape:cy="11"
     inkscape:window-width="1920"
     inkscape:window-height="1017"
     inkscape:window-x="-8"
     inkscape:window-y="-8"
     inkscape:window-maximized="1"
     inkscape:current-layer="g12795"
     inkscape:showpageshadow="2"
     inkscape:deskcolor="#d1d1d1" />
  <title
     id="title882">Artboard 24</title>
  <g
     id="g12795"
     transform="translate(-1,-1)">
    <rect
       x="5"
       y="8"
       width="2"
       height="2"
       id="rect884"
       style="fill:#a8cbfe;fill-opacity:1" />
    <rect
       x="9"
       y="8"
       width="2"
       height="2"
       id="rect886"
       style="fill:#a8cbfe;fill-opacity:1" />
    <rect
       x="13"
       y="8"
       width="2"
       height="2"
       id="rect888"
       style="fill:#a8cbfe;fill-opacity:1" />
    <rect
       x="17"
       y="8"
       width="2"
       height="2"
       id="rect890"
       style="fill:#a8cbfe;fill-opacity:1" />
    <rect
       x="5"
       y="11"
       width="2"
       height="2"
       id="rect892"
       style="fill:#a8cbfe;fill-opacity:1" />
    <rect
       x="9"
       y="11"
       width="2"
       height="2"
       id="rect894"
       style="fill:#a8cbfe;fill-opacity:1" />
    <rect
       x="13"
       y="11"
       width="2"
       height="2"
       id="rect896"
       style="fill:#a8cbfe;fill-opacity:1" />
    <rect
       x="17"
       y="11"
       width="2"
       height="2"
       id="rect898"
       style="fill:#a8cbfe;fill-opacity:1" />
    <rect
       x="5"
       y="14"
       width="2"
       height="2"
       id="rect900"
       style="fill:#a8cbfe;fill-opacity:1" />
    <rect
       x="9"
       y="14"
       width="2"
       height="2"
       id="rect902"
       style="fill:#a8cbfe;fill-opacity:1" />
    <rect
       x="13"
       y="14"
       width="2"
       height="2"
       id="rect904"
       style="fill:#a8cbfe;fill-opacity:1" />
    <rect
       x="17"
       y="14"
       width="2"
       height="2"
       id="rect906"
       style="fill:#a8cbfe;fill-opacity:1" />
    <rect
       x="5"
       y="17"
       width="2"
       height="2"
       id="rect908"
       style="fill:#a8cbfe;fill-opacity:1" />
    <rect
       x="9"
       y="17"
       width="2"
       height="2"
       id="rect910"
       style="fill:#a8cbfe;fill-opacity:1" />
    <rect
       x="13"
       y="17"
       width="2"
       height="2"
       id="rect912"
       style="fill:#a8cbfe;fill-opacity:1" />
    <path
       d="M 20,1 H 16 V 4 H 14 V 3.37 A 1.37,1.37 0 0 0 12.63,2 H 11.37 A 1.37,1.37 0 0 0 10,3.37 V 4 H 8 V 1 H 4 A 3,3 0 0 0 1,4 v 16 a 3,3 0 0 0 3,3 h 16 a 3,3 0 0 0 3,-3 V 4 A 3,3 0 0 0 20,1 Z m 1,19 a 1,1 0 0 1 -1,1 H 4 A 1,1 0 0 1 3,20 V 4 A 1,1 0 0 1 4,3 H 6 V 6 H 18 V 3 h 2 a 1,1 0 0 1 1,1 z"
       id="path914"
       style="fill-opacity:1;fill-rule:nonzero;fill:#a8cbfe" />
  </g>
  <metadata
     id="metadata19694">
    <rdf:RDF>
      <cc:Work
         rdf:about="">
        <dc:title>Artboard 24</dc:title>
      </cc:Work>
    </rdf:RDF>
  </metadata>
</svg>
