<svg id="Слой_1" data-name="Слой 1" xmlns="http://www.w3.org/2000/svg" viewBox="0 0 101 101"><title>log_Монтажная область 1</title><path d="M99.27,49.7A1.5,1.5,0,0,0,98,49H88.91a1.5,1.5,0,0,0-.31-.51l-8.2-9A1.5,1.5,0,0,0,79.3,39H75.16l-8.81-9.52a1.5,1.5,0,0,0-1.1-.48H36V12.5A1.5,1.5,0,0,0,34.5,11h-7A1.5,1.5,0,0,0,26,12.5V29H17.5A1.5,1.5,0,0,0,16,30.5V39H12.5A1.5,1.5,0,0,0,11,40.5V49H4a1.5,1.5,0,0,0-1.42,2L13.07,81a1.5,1.5,0,0,0,1.42,1h69a1.5,1.5,0,0,0,1.35-.85l14.48-30A1.5,1.5,0,0,0,99.27,49.7ZM29,14h4V29H29ZM19,32H64.59l6.48,7H19ZM14,42H78.64L85,49H14ZM82.58,79h-67L6.11,52h89.5Z"/><path d="M25,71a6,6,0,1,0-6-6A6,6,0,0,0,25,71Zm0-9a3,3,0,1,1-3,3A3,3,0,0,1,25,62Z"/><path d="M49.51,71a6,6,0,1,0-6-6A6,6,0,0,0,49.51,71Zm0-9a3,3,0,1,1-3,3A3,3,0,0,1,49.51,62Z"/><path d="M74,71a6,6,0,1,0-6-6A6,6,0,0,0,74,71Zm0-9a3,3,0,1,1-3,3A3,3,0,0,1,74,62Z"/></svg>