<?xml version="1.0" encoding="UTF-8" standalone="no"?>
<svg
   data-name="Layer 2"
   id="bd7cde45-0ae7-42a0-942c-e7941e4f9ae8"
   viewBox="0 0 22 22"
   version="1.1"
   sodipodi:docname="tasks-dark.svg"
   inkscape:version="1.2.1 (9c6d41e410, 2022-07-14)"
   width="22"
   height="22"
   xmlns:inkscape="http://www.inkscape.org/namespaces/inkscape"
   xmlns:sodipodi="http://sodipodi.sourceforge.net/DTD/sodipodi-0.dtd"
   xmlns="http://www.w3.org/2000/svg"
   xmlns:svg="http://www.w3.org/2000/svg">
  <defs
     id="defs21" />
  <sodipodi:namedview
     id="namedview19"
     pagecolor="#ffffff"
     bordercolor="#666666"
     borderopacity="1.0"
     inkscape:pageshadow="2"
     inkscape:pageopacity="0.0"
     inkscape:pagecheckerboard="0"
     showgrid="false"
     inkscape:zoom="37"
     inkscape:cx="10.986486"
     inkscape:cy="11"
     inkscape:window-width="1920"
     inkscape:window-height="1017"
     inkscape:window-x="-8"
     inkscape:window-y="-8"
     inkscape:window-maximized="1"
     inkscape:current-layer="bd7cde45-0ae7-42a0-942c-e7941e4f9ae8"
     inkscape:showpageshadow="2"
     inkscape:deskcolor="#d1d1d1" />
  <path
     d="M 19.327478,8.3855072 H 2.6725217 A 2.6782609,2.6782609 0 0 1 0,5.7110725 V 2.6725217 A 2.6782609,2.6782609 0 0 1 2.6725217,0 H 19.327478 A 2.6782609,2.6782609 0 0 1 22,2.6725217 V 5.7110725 A 2.6782609,2.6782609 0 0 1 19.327478,8.3855072 Z M 2.6725217,1.5942029 A 1.0795942,1.0795942 0 0 0 1.5942029,2.6725217 V 5.7110725 A 1.0795942,1.0795942 0 0 0 2.6725217,6.7913043 H 19.327478 A 1.0795942,1.0795942 0 0 0 20.405797,5.7136232 V 2.6725217 A 1.0795942,1.0795942 0 0 0 19.327478,1.5942029 Z"
     id="path2"
     style="fill:#69a384;fill-opacity:1;stroke:none;stroke-width:0.637681" />
  <path
     d="M 5.0529855,5.515942 A 0.79710145,0.79710145 0 0 1 4.2558841,4.7188406 V 3.4434783 a 0.79710145,0.79710145 0 0 1 1.5942029,0 V 4.7188406 A 0.79710145,0.79710145 0 0 1 5.0529855,5.515942 Z"
     id="path4"
     style="fill:#69a384;fill-opacity:1;stroke:none;stroke-width:0.637681" />
  <path
     d="m 17.100696,5.148 a 0.95652175,0.95652175 0 0 0 0,-1.9130435 0.95652175,0.95652175 0 0 0 0,1.9130435 z"
     id="path6"
     style="fill:#69a384;fill-opacity:1;stroke:none;stroke-width:0.637681" />
  <path
     d="m 13.91229,5.148 a 0.95652175,0.95652175 0 0 0 0,-1.9130435 0.95652175,0.95652175 0 0 0 0,1.9130435 z"
     id="path8"
     style="fill:#69a384;fill-opacity:1;stroke:none;stroke-width:0.637681" />
  <path
     d="M 19.327478,15.192116 H 2.6725217 A 2.6782609,2.6782609 0 0 1 0,12.518957 V 9.4810435 A 2.6782609,2.6782609 0 0 1 2.6725217,6.8085217 H 19.327478 A 2.6782609,2.6782609 0 0 1 22,9.4810435 v 3.0379135 a 2.6782609,2.6782609 0 0 1 -2.672522,2.673159 z M 2.6725217,8.4027246 A 1.0795942,1.0795942 0 0 0 1.5942029,9.4810435 v 3.0379135 a 1.0802319,1.0802319 0 0 0 1.0783188,1.078956 H 19.327478 a 1.0802319,1.0802319 0 0 0 1.078319,-1.078956 V 9.4810435 A 1.0795942,1.0795942 0 0 0 19.327478,8.4027246 Z"
     id="path10"
     style="fill:#69a384;fill-opacity:1;stroke:none;stroke-width:0.637681" />
  <path
     d="M 5.0529855,12.324464 A 0.79710145,0.79710145 0 0 1 4.2558841,11.527362 V 10.252 a 0.79710145,0.79710145 0 1 1 1.5942029,0 v 1.275362 a 0.79710145,0.79710145 0 0 1 -0.7971015,0.797102 z"
     id="path12"
     style="fill:#69a384;fill-opacity:1;stroke:none;stroke-width:0.637681" />
  <path
     d="M 19.327478,22 H 2.6725217 A 2.6782609,2.6782609 0 0 1 0,19.327478 v -3.03855 A 2.6782609,2.6782609 0 0 1 2.6725217,13.614493 H 19.327478 A 2.6782609,2.6782609 0 0 1 22,16.286377 v 3.038551 A 2.6782609,2.6782609 0 0 1 19.327478,22 Z M 2.6725217,15.208696 a 1.0795942,1.0795942 0 0 0 -1.0783188,1.077681 v 3.038551 a 1.0795942,1.0795942 0 0 0 1.0783188,1.080869 H 19.327478 a 1.0795942,1.0795942 0 0 0 1.078319,-1.078319 v -3.03855 a 1.0795942,1.0795942 0 0 0 -1.078319,-1.077682 z"
     id="path14"
     style="fill:#69a384;fill-opacity:1;stroke:none;stroke-width:0.637681" />
  <path
     d="M 5.0529855,19.132348 A 0.79710145,0.79710145 0 0 1 4.2558841,18.333333 v -1.275362 a 0.79710145,0.79710145 0 0 1 1.5942029,0 v 1.275362 a 0.79646377,0.79646377 0 0 1 -0.7971015,0.799015 z"
     id="path16"
     style="fill:#69a384;fill-opacity:1;stroke:none;stroke-width:0.637681" />
</svg>
