<?xml version="1.0" encoding="UTF-8" standalone="no"?>
<svg
   enable-background="new 0 0 50 50"
   height="24.999954"
   id="Layer_1"
   version="1.1"
   viewBox="0 0 25.000082 24.999954"
   width="25.000082"
   xml:space="preserve"
   sodipodi:docname="user-dark.svg"
   inkscape:version="1.2.1 (9c6d41e410, 2022-07-14)"
   xmlns:inkscape="http://www.inkscape.org/namespaces/inkscape"
   xmlns:sodipodi="http://sodipodi.sourceforge.net/DTD/sodipodi-0.dtd"
   xmlns="http://www.w3.org/2000/svg"
   xmlns:svg="http://www.w3.org/2000/svg"><defs
     id="defs11" /><sodipodi:namedview
     id="namedview9"
     pagecolor="#ffffff"
     bordercolor="#666666"
     borderopacity="1.0"
     inkscape:pageshadow="2"
     inkscape:pageopacity="0.0"
     inkscape:pagecheckerboard="true"
     showgrid="false"
     inkscape:zoom="32.56006"
     inkscape:cx="12.515333"
     inkscape:cy="12.499977"
     inkscape:window-width="1920"
     inkscape:window-height="1017"
     inkscape:window-x="1352"
     inkscape:window-y="-8"
     inkscape:window-maximized="1"
     inkscape:current-layer="Layer_1"
     inkscape:showpageshadow="2"
     inkscape:deskcolor="#d1d1d1" /><g
     id="g3401"
     transform="scale(0.51653061,0.51389482)"><circle
       cx="24.200001"
       cy="24.200001"
       fill="none"
       r="24"
       stroke="#000000"
       stroke-linecap="round"
       stroke-miterlimit="10"
       stroke-width="2"
       id="circle2"
       style="fill:#fcfcfc;fill-opacity:0;stroke:#fcfcfc;stroke-width:0.4;stroke-miterlimit:10;stroke-dasharray:none" /><path
       d="m 29.133,34.728 c -0.146,-1.612 -0.09,-2.737 -0.09,-4.21 0.73,-0.383 2.038,-2.825 2.259,-4.888 0.574,-0.047 1.479,-0.607 1.744,-2.818 0.143,-1.187 -0.425,-1.855 -0.771,-2.065 C 33.209,17.938 35.149,9.248 28.687,8.35 28.022,7.182 26.319,6.591 24.106,6.591 c -8.854,0.163 -9.922,6.686 -7.981,14.156 -0.345,0.21 -0.913,0.878 -0.771,2.065 0.266,2.211 1.17,2.771 1.744,2.818 0.22,2.062 1.58,4.505 2.312,4.888 0,1.473 0.055,2.598 -0.091,4.21 -1.261,3.39 -7.737,3.655 -11.473,6.924 3.906,3.933 10.236,6.746 16.916,6.746 6.68,0 14.532,-5.274 15.839,-6.713 C 36.888,38.386 30.397,38.13 29.133,34.728 Z"
       id="path6"
       style="fill:#fcfcfc;fill-opacity:1;stroke:#fcfcfc;stroke-width:0.5;stroke-miterlimit:4;stroke-dasharray:none;stroke-opacity:1" /></g></svg>
