<?xml version="1.0" encoding="UTF-8" standalone="no"?>
<svg
   enable-background="new 0 0 50 50"
   height="24.999998"
   id="Layer_1"
   version="1.1"
   viewBox="0 0 25 24.999998"
   width="25"
   xml:space="preserve"
   sodipodi:docname="user-light.svg"
   inkscape:version="1.2.1 (9c6d41e410, 2022-07-14)"
   xmlns:inkscape="http://www.inkscape.org/namespaces/inkscape"
   xmlns:sodipodi="http://sodipodi.sourceforge.net/DTD/sodipodi-0.dtd"
   xmlns="http://www.w3.org/2000/svg"
   xmlns:svg="http://www.w3.org/2000/svg"><defs
     id="defs11" /><sodipodi:namedview
     id="namedview9"
     pagecolor="#ffffff"
     bordercolor="#666666"
     borderopacity="1.0"
     inkscape:pageshadow="2"
     inkscape:pageopacity="0.0"
     inkscape:pagecheckerboard="true"
     showgrid="false"
     inkscape:zoom="32.560002"
     inkscape:cx="12.515355"
     inkscape:cy="12.499999"
     inkscape:window-width="1920"
     inkscape:window-height="1017"
     inkscape:window-x="1352"
     inkscape:window-y="-8"
     inkscape:window-maximized="1"
     inkscape:current-layer="Layer_1"
     inkscape:showpageshadow="2"
     inkscape:deskcolor="#d1d1d1" /><ellipse
     cx="12.5"
     cy="12.436245"
     fill="none"
     stroke="#000000"
     stroke-linecap="round"
     stroke-miterlimit="10"
     stroke-width="2"
     id="circle2"
     style="fill:none;fill-opacity:0.5;stroke:#000000;stroke-width:0.206084;stroke-miterlimit:10;stroke-dasharray:none;stroke-opacity:1"
     rx="12.396958"
     ry="12.333203" /><path
     d="m 15.048091,17.846409 c -0.07542,-0.82838 -0.04649,-1.406499 -0.04649,-2.163449 0.377075,-0.196818 1.052708,-1.451721 1.166864,-2.511863 0.296494,-0.02415 0.763963,-0.311927 0.900846,-1.448123 0.07386,-0.60998 -0.21953,-0.953254 -0.398253,-1.06117 C 17.153511,9.2183056 18.155598,4.7526583 14.817717,4.2911909 14.474218,3.6909749 13.59455,3.3872698 12.451448,3.3872698 7.8780036,3.4710328 7.326339,6.8230949 8.328943,10.661804 c -0.1782063,0.107916 -0.471601,0.45119 -0.3982524,1.06117 0.1373997,1.136196 0.6043517,1.423971 0.9008457,1.448123 0.1136387,1.059628 0.816133,2.315045 1.1942407,2.511863 0,0.75695 0.02841,1.335069 -0.047006,2.163449 -0.6513568,1.742065 -3.9964693,1.878244 -5.9262625,3.55813 2.017605,2.021103 5.2873026,3.466657 8.7377891,3.466657 3.450487,0 7.506358,-2.710221 8.181476,-3.449699 -1.917914,-1.695302 -5.270773,-1.826856 -5.92368,-3.575088 z"
     id="path6"
     style="fill:#000000;fill-opacity:1;stroke:#000000;stroke-width:0.257605;stroke-miterlimit:4;stroke-dasharray:none;stroke-opacity:1" /></svg>
